<?xml version="1.0" encoding="utf-8"?>
<!-- Generator: Adobe Illustrator 23.0.6, SVG Export Plug-In . SVG Version: 6.00 Build 0)  -->
<svg version="1.1" id="Camada_1" xmlns="http://www.w3.org/2000/svg" xmlns:xlink="http://www.w3.org/1999/xlink" x="0px" y="0px"
	 viewBox="0 0 150 150" style="enable-background:new 0 0 150 150;" xml:space="preserve">
<style type="text/css">
	.st0{opacity:0.3;fill:#E7F0CE;}
	.st1{fill-rule:evenodd;clip-rule:evenodd;fill:#FFFFFF;}
	.st2{opacity:0.4;}
	.st3{fill:#DFE0E1;}
	.st4{opacity:0.5;}
	.st5{clip-path:url(#SVGID_2_);}
	.st6{fill:#BADDCC;}
	.st7{fill-rule:evenodd;clip-rule:evenodd;fill:#1DAA7D;}
</style>
<circle class="st0" cx="66.8" cy="66.8" r="66.8"/>
<g>
	<polygon class="st1" points="93.9,62.5 75.3,62.5 94.1,87.4 81.6,87.4 100.2,112.3 131.5,112.3 112.8,87.4 137.7,87.4 100.2,37.5 
		75.3,37.5 	"/>
</g>
<g class="st2">
	<g>
		<g>
			<path class="st3" d="M10.1,112.4h-6c-0.3,0-0.5-0.2-0.5-0.5s0.2-0.5,0.5-0.5h6c0.3,0,0.5,0.2,0.5,0.5S10.4,112.4,10.1,112.4z"/>
		</g>
		<g>
			<path class="st3" d="M30.3,112.4H19.8c-0.3,0-0.5-0.2-0.5-0.5s0.2-0.5,0.5-0.5h10.5c0.3,0,0.5,0.2,0.5,0.5S30.6,112.4,30.3,112.4
				z M15.4,112.4h-0.9c-0.3,0-0.5-0.2-0.5-0.5s0.2-0.5,0.5-0.5h0.9c0.3,0,0.5,0.2,0.5,0.5S15.7,112.4,15.4,112.4z"/>
		</g>
		<g>
			<path class="st3" d="M135.5,112.4H125c-0.3,0-0.5-0.2-0.5-0.5s0.2-0.5,0.5-0.5h10.5c0.3,0,0.5,0.2,0.5,0.5
				S135.8,112.4,135.5,112.4z M120.6,112.4h-0.9c-0.3,0-0.5-0.2-0.5-0.5s0.2-0.5,0.5-0.5h0.9c0.3,0,0.5,0.2,0.5,0.5
				S120.9,112.4,120.6,112.4z M115.4,112.4h-10.5c-0.3,0-0.5-0.2-0.5-0.5s0.2-0.5,0.5-0.5h10.5c0.3,0,0.5,0.2,0.5,0.5
				S115.6,112.4,115.4,112.4z M100.5,112.4H89.9c-0.3,0-0.5-0.2-0.5-0.5s0.2-0.5,0.5-0.5h10.5c0.3,0,0.5,0.2,0.5,0.5
				S100.7,112.4,100.5,112.4z M85.6,112.4h-0.9c-0.3,0-0.5-0.2-0.5-0.5s0.2-0.5,0.5-0.5h0.9c0.3,0,0.5,0.2,0.5,0.5
				S85.8,112.4,85.6,112.4z M80.3,112.4H69.8c-0.3,0-0.5-0.2-0.5-0.5s0.2-0.5,0.5-0.5h10.5c0.3,0,0.5,0.2,0.5,0.5
				S80.6,112.4,80.3,112.4z M65.4,112.4H54.9c-0.3,0-0.5-0.2-0.5-0.5s0.2-0.5,0.5-0.5h10.5c0.3,0,0.5,0.2,0.5,0.5
				S65.7,112.4,65.4,112.4z M50.5,112.4h-0.9c-0.3,0-0.5-0.2-0.5-0.5s0.2-0.5,0.5-0.5h0.9c0.3,0,0.5,0.2,0.5,0.5
				S50.8,112.4,50.5,112.4z M45.2,112.4H34.7c-0.3,0-0.5-0.2-0.5-0.5s0.2-0.5,0.5-0.5h10.5c0.3,0,0.5,0.2,0.5,0.5
				S45.5,112.4,45.2,112.4z"/>
		</g>
		<g>
			<path class="st3" d="M145.9,112.4h-6c-0.3,0-0.5-0.2-0.5-0.5s0.2-0.5,0.5-0.5h6c0.3,0,0.5,0.2,0.5,0.5S146.2,112.4,145.9,112.4z"
				/>
		</g>
	</g>
</g>
<g class="st4">
	<defs>
		<path id="SVGID_1_" class="st4" d="M98.9,39.6 M99.9,37.6H75l18.6,24.9H75l18.6,24.9H81.3l18.7,24.9h31.2l-18.7-24.9h24.9
			L99.9,37.6L99.9,37.6z"/>
	</defs>
	<clipPath id="SVGID_2_">
		<use xlink:href="#SVGID_1_"  style="overflow:visible;"/>
	</clipPath>
	<g class="st5">
		<rect x="77" y="24.6" transform="matrix(0.7982 -0.6024 0.6024 0.7982 -41.3936 65.7781)" class="st6" width="1" height="140.1"/>
	</g>
	<g class="st5">
		<rect x="79.1" y="23" transform="matrix(0.7982 -0.6024 0.6024 0.7982 -39.9746 66.7504)" class="st6" width="1" height="140.1"/>
	</g>
	<g class="st5">
		
			<rect x="81.3" y="21.4" transform="matrix(0.7982 -0.6024 0.6024 0.7982 -38.5558 67.7235)" class="st6" width="1" height="140.1"/>
	</g>
	<g class="st5">
		
			<rect x="83.5" y="19.7" transform="matrix(0.7982 -0.6024 0.6024 0.7982 -37.1369 68.696)" class="st6" width="1" height="140.1"/>
	</g>
	<g class="st5">
		
			<rect x="85.6" y="18.1" transform="matrix(0.7982 -0.6024 0.6024 0.7982 -35.718 69.6683)" class="st6" width="1" height="140.1"/>
	</g>
	<g class="st5">
		
			<rect x="87.8" y="16.5" transform="matrix(0.7982 -0.6024 0.6024 0.7982 -34.299 70.6412)" class="st6" width="1" height="140.1"/>
	</g>
	<g class="st5">
		
			<rect x="89.9" y="14.8" transform="matrix(0.7982 -0.6024 0.6024 0.7982 -32.8801 71.6146)" class="st6" width="1" height="140.1"/>
	</g>
	<g class="st5">
		
			<rect x="92.1" y="13.2" transform="matrix(0.7982 -0.6024 0.6024 0.7982 -31.4612 72.5876)" class="st6" width="1" height="140.1"/>
	</g>
	<g class="st5">
		
			<rect x="94.3" y="11.6" transform="matrix(0.7982 -0.6024 0.6024 0.7982 -30.0424 73.5601)" class="st6" width="1" height="140.1"/>
	</g>
	<g class="st5">
		
			<rect x="96.4" y="9.9" transform="matrix(0.7982 -0.6024 0.6024 0.7982 -28.6236 74.5325)" class="st6" width="1" height="140.1"/>
	</g>
	<g class="st5">
		
			<rect x="98.6" y="8.3" transform="matrix(0.7982 -0.6024 0.6024 0.7982 -27.2044 75.5052)" class="st6" width="1" height="140.1"/>
	</g>
	<g class="st5">
		
			<rect x="100.7" y="6.7" transform="matrix(0.7982 -0.6024 0.6024 0.7982 -25.7858 76.478)" class="st6" width="1" height="140.1"/>
	</g>
	<g class="st5">
		<rect x="102.9" y="5" transform="matrix(0.7982 -0.6024 0.6024 0.7982 -24.3669 77.4514)" class="st6" width="1" height="140.1"/>
	</g>
	<g class="st5">
		
			<rect x="105.1" y="3.4" transform="matrix(0.7982 -0.6024 0.6024 0.7982 -22.9478 78.4241)" class="st6" width="1" height="140.1"/>
	</g>
	<g class="st5">
		
			<rect x="107.2" y="1.8" transform="matrix(0.7982 -0.6024 0.6024 0.7982 -21.529 79.3966)" class="st6" width="1" height="140.1"/>
	</g>
	<g class="st5">
		
			<rect x="109.4" y="0.1" transform="matrix(0.7982 -0.6024 0.6024 0.7982 -20.1099 80.3692)" class="st6" width="1" height="140.1"/>
	</g>
	<g class="st5">
		
			<rect x="111.6" y="-1.5" transform="matrix(0.7982 -0.6024 0.6024 0.7982 -18.6913 81.342)" class="st6" width="1" height="140.1"/>
	</g>
	<g class="st5">
		
			<rect x="113.7" y="-3.1" transform="matrix(0.7982 -0.6024 0.6024 0.7982 -17.2725 82.3145)" class="st6" width="1" height="140.1"/>
	</g>
	<g class="st5">
		
			<rect x="115.9" y="-4.7" transform="matrix(0.7982 -0.6024 0.6024 0.7982 -15.8532 83.2882)" class="st6" width="1" height="140.1"/>
	</g>
	<g class="st5">
		
			<rect x="118" y="-6.4" transform="matrix(0.7982 -0.6024 0.6024 0.7982 -14.4344 84.2609)" class="st6" width="1" height="140.1"/>
	</g>
	<g class="st5">
		<rect x="120.2" y="-8" transform="matrix(0.7982 -0.6024 0.6024 0.7982 -13.0154 85.234)" class="st6" width="1" height="140.1"/>
	</g>
	<g class="st5">
		
			<rect x="122.4" y="-9.6" transform="matrix(0.7982 -0.6024 0.6024 0.7982 -11.5967 86.2064)" class="st6" width="1" height="140.1"/>
	</g>
	<g class="st5">
		
			<rect x="124.5" y="-11.3" transform="matrix(0.7982 -0.6024 0.6024 0.7982 -10.1779 87.1789)" class="st6" width="1" height="140.1"/>
	</g>
	<g class="st5">
		
			<rect x="126.7" y="-12.9" transform="matrix(0.7982 -0.6024 0.6024 0.7982 -8.7588 88.1518)" class="st6" width="1" height="140.1"/>
	</g>
</g>
<g class="st2">
	<g>
		<g>
			<path class="st3" d="M10.1,38.6h-6c-0.3,0-0.5-0.2-0.5-0.5s0.2-0.5,0.5-0.5h6c0.3,0,0.5,0.2,0.5,0.5S10.4,38.6,10.1,38.6z"/>
		</g>
		<g>
			<path class="st3" d="M30.3,38.6H19.8c-0.3,0-0.5-0.2-0.5-0.5s0.2-0.5,0.5-0.5h10.5c0.3,0,0.5,0.2,0.5,0.5S30.6,38.6,30.3,38.6z
				 M15.4,38.6h-0.9c-0.3,0-0.5-0.2-0.5-0.5s0.2-0.5,0.5-0.5h0.9c0.3,0,0.5,0.2,0.5,0.5S15.7,38.6,15.4,38.6z"/>
		</g>
		<g>
			<path class="st3" d="M135.5,38.6H125c-0.3,0-0.5-0.2-0.5-0.5s0.2-0.5,0.5-0.5h10.5c0.3,0,0.5,0.2,0.5,0.5S135.8,38.6,135.5,38.6z
				 M120.6,38.6h-0.9c-0.3,0-0.5-0.2-0.5-0.5s0.2-0.5,0.5-0.5h0.9c0.3,0,0.5,0.2,0.5,0.5S120.9,38.6,120.6,38.6z M115.4,38.6h-10.5
				c-0.3,0-0.5-0.2-0.5-0.5s0.2-0.5,0.5-0.5h10.5c0.3,0,0.5,0.2,0.5,0.5S115.6,38.6,115.4,38.6z M100.5,38.6H89.9
				c-0.3,0-0.5-0.2-0.5-0.5s0.2-0.5,0.5-0.5h10.5c0.3,0,0.5,0.2,0.5,0.5S100.7,38.6,100.5,38.6z M85.6,38.6h-0.9
				c-0.3,0-0.5-0.2-0.5-0.5s0.2-0.5,0.5-0.5h0.9c0.3,0,0.5,0.2,0.5,0.5S85.8,38.6,85.6,38.6z M80.3,38.6H69.8
				c-0.3,0-0.5-0.2-0.5-0.5s0.2-0.5,0.5-0.5h10.5c0.3,0,0.5,0.2,0.5,0.5S80.6,38.6,80.3,38.6z M65.4,38.6H54.9
				c-0.3,0-0.5-0.2-0.5-0.5s0.2-0.5,0.5-0.5h10.5c0.3,0,0.5,0.2,0.5,0.5S65.7,38.6,65.4,38.6z M50.5,38.6h-0.9
				c-0.3,0-0.5-0.2-0.5-0.5s0.2-0.5,0.5-0.5h0.9c0.3,0,0.5,0.2,0.5,0.5S50.8,38.6,50.5,38.6z M45.2,38.6H34.7
				c-0.3,0-0.5-0.2-0.5-0.5s0.2-0.5,0.5-0.5h10.5c0.3,0,0.5,0.2,0.5,0.5S45.5,38.6,45.2,38.6z"/>
		</g>
		<g>
			<path class="st3" d="M145.9,38.6h-6c-0.3,0-0.5-0.2-0.5-0.5s0.2-0.5,0.5-0.5h6c0.3,0,0.5,0.2,0.5,0.5S146.2,38.6,145.9,38.6z"/>
		</g>
	</g>
</g>
<g>
	<polygon class="st7" points="75,37.6 50.1,37.6 12.6,87.5 37.5,87.5 18.8,112.4 50.1,112.4 68.7,87.5 56.2,87.5 75,62.6 56.4,62.6 
			"/>
</g>
<g class="st2">
	<g>
		<g>
			<path class="st3" d="M75,146.4c-0.3,0-0.5-0.2-0.5-0.5v-6c0-0.3,0.2-0.5,0.5-0.5s0.5,0.2,0.5,0.5v6
				C75.5,146.2,75.3,146.4,75,146.4z"/>
		</g>
		<g>
			<path class="st3" d="M75,136c-0.3,0-0.5-0.2-0.5-0.5v-0.9c0-0.3,0.2-0.5,0.5-0.5s0.5,0.2,0.5,0.5v0.9C75.5,135.8,75.3,136,75,136
				z M75,130.7c-0.3,0-0.5-0.2-0.5-0.5v-10.5c0-0.3,0.2-0.5,0.5-0.5s0.5,0.2,0.5,0.5v10.5C75.5,130.5,75.3,130.7,75,130.7z"/>
		</g>
		<g>
			<path class="st3" d="M75,115.9c-0.3,0-0.5-0.2-0.5-0.5v-10.5c0-0.3,0.2-0.5,0.5-0.5s0.5,0.2,0.5,0.5v10.5
				C75.5,115.7,75.3,115.9,75,115.9z M75,101c-0.3,0-0.5-0.2-0.5-0.5v-0.9c0-0.3,0.2-0.5,0.5-0.5s0.5,0.2,0.5,0.5v0.9
				C75.5,100.8,75.3,101,75,101z M75,95.7c-0.3,0-0.5-0.2-0.5-0.5V84.7c0-0.3,0.2-0.5,0.5-0.5s0.5,0.2,0.5,0.5v10.5
				C75.5,95.5,75.3,95.7,75,95.7z M75,80.8c-0.3,0-0.5-0.2-0.5-0.5V69.8c0-0.3,0.2-0.5,0.5-0.5s0.5,0.2,0.5,0.5v10.5
				C75.5,80.6,75.3,80.8,75,80.8z M75,65.9c-0.3,0-0.5-0.2-0.5-0.5v-0.9c0-0.3,0.2-0.5,0.5-0.5s0.5,0.2,0.5,0.5v0.9
				C75.5,65.7,75.3,65.9,75,65.9z M75,60.6c-0.3,0-0.5-0.2-0.5-0.5V49.6c0-0.3,0.2-0.5,0.5-0.5s0.5,0.2,0.5,0.5v10.5
				C75.5,60.4,75.3,60.6,75,60.6z M75,45.7c-0.3,0-0.5-0.2-0.5-0.5V34.7c0-0.3,0.2-0.5,0.5-0.5s0.5,0.2,0.5,0.5v10.5
				C75.5,45.5,75.3,45.7,75,45.7z M75,30.8c-0.3,0-0.5-0.2-0.5-0.5v-0.9c0-0.3,0.2-0.5,0.5-0.5s0.5,0.2,0.5,0.5v0.9
				C75.5,30.6,75.3,30.8,75,30.8z M75,25.5c-0.3,0-0.5-0.2-0.5-0.5V14.5c0-0.3,0.2-0.5,0.5-0.5s0.5,0.2,0.5,0.5V25
				C75.5,25.3,75.3,25.5,75,25.5z"/>
		</g>
		<g>
			<path class="st3" d="M75,10.6c-0.3,0-0.5-0.2-0.5-0.5v-6c0-0.3,0.2-0.5,0.5-0.5s0.5,0.2,0.5,0.5v6C75.5,10.4,75.3,10.6,75,10.6z"
				/>
		</g>
	</g>
</g>
<g>
	<g>
		<path class="st3" d="M75.8,143c-1.6,0-3.1,0-4.7-0.1c-0.3,0-0.5-0.3-0.5-0.5c0-0.3,0.3-0.5,0.5-0.5c2.6,0.1,5.2,0.1,7.9,0l0.2,0
			c0.3,0,0.5,0.2,0.5,0.5c0,0.3-0.2,0.5-0.5,0.5l-0.2,0C78,142.9,76.9,143,75.8,143z M87.3,141.9c-0.2,0-0.5-0.2-0.5-0.4
			c-0.1-0.3,0.1-0.5,0.4-0.6c2.6-0.5,5.3-1.1,7.8-1.9c0.3-0.1,0.5,0.1,0.6,0.3c0.1,0.3-0.1,0.5-0.3,0.6
			C92.8,140.7,90.1,141.4,87.3,141.9C87.4,141.9,87.4,141.9,87.3,141.9z M63,141.9C63,141.9,63,141.9,63,141.9
			c-2.8-0.5-5.5-1.1-8.1-1.9c-0.3-0.1-0.4-0.4-0.3-0.6c0.1-0.3,0.4-0.4,0.6-0.3c2.6,0.8,5.2,1.4,7.9,1.9c0.3,0,0.5,0.3,0.4,0.6
			C63.5,141.8,63.3,141.9,63,141.9z M102.9,137c-0.2,0-0.4-0.1-0.5-0.3c-0.1-0.3,0-0.5,0.2-0.7c2.4-1.1,4.8-2.4,7.1-3.8
			c0.2-0.1,0.5-0.1,0.7,0.2c0.1,0.2,0.1,0.5-0.2,0.7c-2.3,1.4-4.8,2.7-7.2,3.8C103,137,102.9,137,102.9,137z M47.5,137.1
			c-0.1,0-0.1,0-0.2,0c-2.5-1.1-4.9-2.4-7.3-3.8c-0.2-0.1-0.3-0.5-0.2-0.7c0.1-0.2,0.5-0.3,0.7-0.2c2.3,1.4,4.7,2.6,7.2,3.7
			c0.3,0.1,0.4,0.4,0.3,0.7C47.8,137,47.7,137.1,47.5,137.1z M116.7,128.6c-0.1,0-0.3-0.1-0.4-0.2c-0.2-0.2-0.1-0.5,0.1-0.7
			c2.1-1.7,4.1-3.5,6-5.4c0.2-0.2,0.5-0.2,0.7,0c0.2,0.2,0.2,0.5,0,0.7c-1.9,1.9-4,3.8-6.1,5.5C117,128.5,116.8,128.6,116.7,128.6z
			 M33.5,128.8c-0.1,0-0.2,0-0.3-0.1c-2.2-1.7-4.2-3.5-6.2-5.4c-0.2-0.2-0.2-0.5,0-0.7c0.2-0.2,0.5-0.2,0.7,0
			c1.9,1.9,3.9,3.7,6.1,5.3c0.2,0.2,0.3,0.5,0.1,0.7C33.8,128.7,33.7,128.8,33.5,128.8z M128.2,117c-0.1,0-0.2,0-0.3-0.1
			c-0.2-0.2-0.3-0.5-0.1-0.7c1.7-2.1,3.2-4.4,4.6-6.7c0.1-0.2,0.5-0.3,0.7-0.2c0.2,0.1,0.3,0.5,0.2,0.7c-1.4,2.3-3,4.6-4.7,6.8
			C128.5,117,128.4,117,128.2,117z M22,117.3c-0.1,0-0.3-0.1-0.4-0.2c-1.7-2.1-3.3-4.4-4.7-6.7c-0.1-0.2-0.1-0.5,0.2-0.7
			c0.2-0.1,0.5-0.1,0.7,0.2c1.4,2.3,2.9,4.5,4.6,6.6c0.2,0.2,0.1,0.5-0.1,0.7C22.2,117.3,22.1,117.3,22,117.3z M136.6,103.1
			c-0.1,0-0.1,0-0.2,0c-0.3-0.1-0.4-0.4-0.3-0.7c1.1-2.5,2.1-5,2.9-7.6c0.1-0.3,0.4-0.4,0.6-0.3c0.3,0.1,0.4,0.4,0.3,0.6
			c-0.8,2.6-1.8,5.2-2.9,7.7C137,103,136.8,103.1,136.6,103.1z M13.5,103.4c-0.2,0-0.4-0.1-0.5-0.3c-1.1-2.5-2.1-5.1-2.9-7.7
			c-0.1-0.3,0.1-0.5,0.3-0.6c0.3-0.1,0.5,0.1,0.6,0.3c0.8,2.6,1.8,5.1,2.9,7.5c0.1,0.3,0,0.5-0.2,0.7
			C13.7,103.4,13.6,103.4,13.5,103.4z M141.4,87.6C141.4,87.6,141.4,87.6,141.4,87.6c-0.4-0.1-0.5-0.3-0.5-0.6c0.5-2.6,0.8-5.3,1-8
			c0-0.3,0.2-0.5,0.5-0.5c0.3,0,0.5,0.3,0.5,0.5c-0.2,2.7-0.5,5.5-1,8.1C141.9,87.4,141.7,87.6,141.4,87.6z M8.7,87.9
			c-0.2,0-0.5-0.2-0.5-0.4c-0.5-2.7-0.8-5.4-1-8.1c0-0.3,0.2-0.5,0.5-0.5c0.3,0,0.5,0.2,0.5,0.5c0.2,2.7,0.5,5.4,1,8
			C9.2,87.6,9,87.9,8.7,87.9C8.7,87.9,8.7,87.9,8.7,87.9z M142.4,71.3c-0.3,0-0.5-0.2-0.5-0.5c-0.2-2.7-0.5-5.4-1-8
			c0-0.3,0.1-0.5,0.4-0.6c0.3,0,0.5,0.1,0.6,0.4c0.5,2.7,0.8,5.4,1,8.1C142.9,71.1,142.7,71.3,142.4,71.3
			C142.4,71.3,142.4,71.3,142.4,71.3z M7.6,71.7C7.6,71.7,7.6,71.7,7.6,71.7c-0.3,0-0.5-0.3-0.5-0.5C7.3,68.4,7.6,65.7,8,63
			c0-0.3,0.3-0.5,0.6-0.4c0.3,0,0.5,0.3,0.4,0.6c-0.5,2.6-0.8,5.3-0.9,8C8.1,71.5,7.9,71.7,7.6,71.7z M139.4,55.3
			c-0.2,0-0.4-0.1-0.5-0.4c-0.8-2.6-1.8-5.1-2.9-7.6c-0.1-0.3,0-0.5,0.2-0.7c0.3-0.1,0.5,0,0.7,0.2c1.1,2.5,2.1,5.1,2.9,7.7
			c0.1,0.3-0.1,0.5-0.3,0.6C139.5,55.3,139.5,55.3,139.4,55.3z M10.5,55.7c-0.1,0-0.1,0-0.2,0C10,55.6,9.9,55.3,10,55
			c0.8-2.6,1.8-5.2,2.9-7.7c0.1-0.3,0.4-0.4,0.7-0.3c0.3,0.1,0.4,0.4,0.3,0.7c-1.1,2.5-2.1,5-2.8,7.6C10.9,55.5,10.7,55.7,10.5,55.7
			z M132.8,40.5c-0.2,0-0.3-0.1-0.4-0.2c-1.4-2.3-2.9-4.5-4.6-6.6c-0.2-0.2-0.1-0.5,0.1-0.7c0.2-0.2,0.5-0.1,0.7,0.1
			c1.7,2.1,3.3,4.4,4.7,6.7c0.1,0.2,0.1,0.5-0.2,0.7C132.9,40.5,132.8,40.5,132.8,40.5z M17.1,40.8c-0.1,0-0.2,0-0.3-0.1
			c-0.2-0.1-0.3-0.4-0.2-0.7c1.4-2.3,3-4.6,4.6-6.8c0.2-0.2,0.5-0.3,0.7-0.1c0.2,0.2,0.3,0.5,0.1,0.7c-1.7,2.1-3.2,4.4-4.6,6.7
			C17.4,40.7,17.3,40.8,17.1,40.8z M122.7,27.7c-0.1,0-0.3,0-0.4-0.1c-1.9-1.9-3.9-3.7-6.1-5.4c-0.2-0.2-0.3-0.5-0.1-0.7
			c0.2-0.2,0.5-0.3,0.7-0.1c2.1,1.7,4.2,3.5,6.1,5.4c0.2,0.2,0.2,0.5,0,0.7C123,27.7,122.8,27.7,122.7,27.7z M27.1,28
			c-0.1,0-0.3,0-0.4-0.1c-0.2-0.2-0.2-0.5,0-0.7c1.9-1.9,4-3.8,6.1-5.5c0.2-0.2,0.5-0.1,0.7,0.1c0.2,0.2,0.1,0.5-0.1,0.7
			c-2.1,1.7-4.1,3.5-6,5.4C27.3,27.9,27.2,28,27.1,28z M109.9,17.7c-0.1,0-0.2,0-0.3-0.1c-2.3-1.4-4.7-2.7-7.2-3.8
			c-0.3-0.1-0.4-0.4-0.3-0.7c0.1-0.3,0.4-0.4,0.7-0.3c2.5,1.1,4.9,2.4,7.3,3.8c0.2,0.1,0.3,0.5,0.2,0.7
			C110.2,17.6,110.1,17.7,109.9,17.7z M39.8,17.9c-0.2,0-0.3-0.1-0.4-0.2c-0.1-0.2-0.1-0.5,0.2-0.7c2.3-1.4,4.8-2.7,7.2-3.9
			c0.3-0.1,0.5,0,0.7,0.2c0.1,0.3,0,0.5-0.2,0.7c-2.4,1.1-4.8,2.4-7.1,3.8C40,17.9,39.9,17.9,39.8,17.9z M95.1,11
			c-0.1,0-0.1,0-0.2,0c-2.6-0.8-5.2-1.5-7.9-1.9c-0.3,0-0.5-0.3-0.4-0.6c0-0.3,0.3-0.5,0.6-0.4c2.7,0.5,5.4,1.1,8,2
			c0.3,0.1,0.4,0.4,0.3,0.6C95.5,10.9,95.3,11,95.1,11z M54.6,11.1c-0.2,0-0.4-0.1-0.5-0.3c-0.1-0.3,0.1-0.5,0.3-0.6
			c2.6-0.8,5.3-1.5,8-2c0.3-0.1,0.5,0.1,0.6,0.4c0.1,0.3-0.1,0.5-0.4,0.6c-2.6,0.5-5.3,1.2-7.8,2C54.7,11.1,54.6,11.1,54.6,11.1z
			 M79.1,8.1C79.1,8.1,79.1,8.1,79.1,8.1C76.4,8,73.6,8,71,8.1l-0.4,0c-0.3,0-0.5-0.2-0.5-0.5c0-0.3,0.2-0.5,0.5-0.5l0.4,0
			c2.7-0.2,5.5-0.2,8.2,0c0.3,0,0.5,0.3,0.5,0.5C79.6,7.9,79.3,8.1,79.1,8.1z"/>
	</g>
</g>
<g>
	<g>
		<path class="st6" d="M98.9,39.6l34.5,45.8h-20.9h-4l2.4,3.2l16.3,21.7H101L85.3,89.5h8.4h4l-2.4-3.2L79,64.6h14.6h4l-2.4-3.2
			L79,39.6H98.9 M99.9,37.6H75l18.6,24.9H75l18.6,24.9H81.3l18.7,24.9h31.2l-18.7-24.9h24.9L99.9,37.6L99.9,37.6z"/>
	</g>
</g>
</svg>
