<?xml version="1.0" encoding="utf-8"?>
<!-- Generator: Adobe Illustrator 23.0.2, SVG Export Plug-In . SVG Version: 6.00 Build 0)  -->
<svg version="1.1" id="Camada_1" xmlns="http://www.w3.org/2000/svg" xmlns:xlink="http://www.w3.org/1999/xlink" x="0px" y="0px"
	 viewBox="0 0 150 53.45" style="enable-background:new 0 0 150 53.45;" xml:space="preserve">
<style type="text/css">
	.st0{fill:#008C50;}
	.st1{fill:#FFFFFF;}
	.st2{fill-rule:evenodd;clip-rule:evenodd;fill:#FFFFFF;}
</style>
<g>
	<g>
		<path class="st0" d="M11.56,52.58c-5.89,0-10.68-4.8-10.68-10.69V11.56c0-5.89,4.79-10.69,10.68-10.69h126.89
			c5.89,0,10.69,4.8,10.69,10.69v41.02H11.56z"/>
		<path class="st1" d="M138.44,1.75c5.42,0,9.81,4.39,9.81,9.81v40.15H11.56c-5.42,0-9.81-4.4-9.81-9.82V11.56
			c0-5.42,4.4-9.81,9.81-9.81H138.44 M138.44,0H11.56C5.18,0,0,5.18,0,11.56v30.33c0,6.37,5.18,11.55,11.56,11.55h136.7H150v-1.74
			V11.56C150,5.18,144.81,0,138.44,0L138.44,0z"/>
	</g>
	<g>
		<g>
			<polygon class="st2" points="120.69,18.92 125.91,18.92 133.75,29.35 128.53,29.35 132.44,34.56 125.91,34.56 122,29.35 
				124.59,29.35 120.69,24.14 124.59,24.14 120.69,18.92 			"/>
			<polygon class="st2" points="120.69,18.92 115.47,18.92 107.63,29.35 112.85,29.35 108.94,34.56 115.47,34.56 119.37,29.35 
				116.75,29.35 120.69,24.14 116.79,24.14 120.69,18.92 			"/>
		</g>
		<path class="st2" d="M21.86,19.98h-5.57v8.87c0,4.29,3.19,5.96,7.24,5.96c4.4,0,7.31-1.56,7.31-6.28v-8.55h-5.46v8.66
			c0,1.42-0.32,2.41-1.77,2.41c-1.35,0-1.74-1.03-1.74-2.41V19.98L21.86,19.98z"/>
		<path class="st2" d="M32.22,34.56h5.25v-6.28c0-0.6,0-1.45,0.95-1.45c0.92,0,0.92,0.85,0.92,1.45v6.28h5.25V27
			c0-2.12-1.03-3.58-3.83-3.58c-1.48,0-2.9,0.6-3.54,2.13h-0.04v-1.88h-4.97V34.56L32.22,34.56z"/>
		<path class="st2" d="M46.41,34.56h5.25V23.67h-5.25V34.56L46.41,34.56z M51.66,18.92h-5.25v3.62h5.25V18.92L51.66,18.92z"/>
		<path class="st2" d="M53.39,34.56h5.25v-6.28c0-0.6,0-1.45,0.96-1.45c0.89,0,0.89,0.85,0.89,1.45v6.28h5.28v-6.28
			c0-0.6,0-1.45,0.89-1.45c0.95,0,0.95,0.85,0.95,1.45v6.28h5.26v-6.53c0-2.13,0-4.61-3.83-4.61c-1.32,0-3.12,0.6-3.48,1.88h-0.03
			c-0.43-1.31-1.95-1.88-3.41-1.88c-1.67,0-3.09,0.6-3.73,2.13h-0.04v-1.88h-4.96V34.56L53.39,34.56z"/>
		<path class="st2" d="M79.07,28.07c-0.07-0.85,0.18-2.13,1.42-2.13c1.17,0,1.31,1.31,1.31,2.13H79.07L79.07,28.07z M86.35,30.37
			v-0.64c0-3.69-1.49-6.31-5.71-6.31c-4.4,0-6.74,1.84-6.74,5.5c0,3.76,2.34,5.89,6.74,5.89c1.84,0,3.51-0.22,4.9-0.64v-2.8
			c-0.82,0.43-2.13,0.68-3.55,0.68c-1.56,0-2.8-0.32-2.91-1.67H86.35L86.35,30.37z"/>
		<path class="st2" d="M100.66,34.56V18.92h-5.25v6.17h-0.04c-0.81-1.17-1.88-1.67-3.3-1.67c-3.26,0-4.61,2.59-4.61,5.53
			c0,3.12,1.28,5.85,4.79,5.85c1.7,0,2.77-0.6,3.48-2.24h0.04v1.99H100.66L100.66,34.56z M95.55,29.06c0,1.03-0.18,2.23-1.27,2.23
			c-1.17,0-1.35-1.2-1.35-2.34c0-1.13,0.18-2.27,1.28-2.27C95.37,26.68,95.55,27.82,95.55,29.06L95.55,29.06z"/>
		<polygon class="st2" points="105.02,37.17 105.02,16.3 104.15,16.3 104.15,37.17 105.02,37.17 105.02,37.17 		"/>
	</g>
</g>
</svg>
