<svg xmlns="http://www.w3.org/2000/svg" id="Camada_1" viewBox="0 0 100 150">
  <style>
    .st0,.st1{fill:none;stroke:#5e5e6d;stroke-linecap:round;stroke-linejoin:round;stroke-miterlimit:10}.st1{stroke:#1daa7d}
  </style>
  <path d="M63.3 43.2c0 9-7.1 22.8-16.1 22.8S31.7 52.2 31.7 43.2s6.9-16.6 15.8-16.6c8.9.1 15.8 7.7 15.8 16.6zM44.8 67.4l-1 2.9 1.9-.3 3.3-.7-1.7-1.9M46.7 71.8l-.3 41.5" class="st0"/>
  <path d="M21.6 39.5c-1.5-3.2-2.5-6.7-2.8-9.6-.8-9 5.5-17 14.4-17.8 4.2-.3 8.1 1 11.1 3.5M60.5 31.3c2.7-1.2 5.9-1.6 9.1-1.1 3.5.7 6.3 2.4 8.5 4.8" class="st1"/>
  <path d="M45.2 78.6c-2 2.6-4.5 4.4-7.4 4.8-8.9 1.1-17.3-11.8-18.4-20.7C18.3 55 22.8 47.5 29.9 45M35.5 85l-.6 3 1.9-.6 3.1-1-1.9-1.8M38.1 89.2l6.8 24.4" class="st0"/>
  <path d="M26 80.4c-8.6 2.3-18.6-9.5-20.8-18.2s2.5-17.8 11.1-20c4.3-1.1 8.5-.3 12 1.9M23.9 82.2l-.2 3.2 1.7-.9 3.1-1.4-2.2-1.5M26.9 86.2l16.4 27.9M62.9 53.8c2.8-1 5.9-1.2 9-.4 8.6 2.2 13.4 11.4 11.1 20-2.2 8.6-12.6 20.3-21.2 18.1-7.6-2-10.8-13.9-9.9-22.5M59.1 92.1l-1.7 2.6 2 .2 3.3.2-1.2-2.4M59.8 97l-11.6 16.5" class="st1"/>
  <g>
    <path d="M45.8 24.3c-.3-2.2-.4-4.4-.2-6.3 1-8.4 8.3-14.9 16.7-13.9 8.5 1.1 14.1 9.1 13.1 17.5-.2 2.3-1.1 4.9-2.3 7.4" class="st0"/>
  </g>
  <g>
    <path d="M65.2 51.4c.2-1.4.4-2.8.9-4 2.6-8.1 11-12.9 19.1-10.3s12 11.6 9.4 19.6c-1.4 4.4-6.7 9.5-9.7 12.8M65.6 93l-15.3 20.8" class="st0"/>
  </g>
  <path d="M45.2 118.5s1.6 6-2.4 10.5c-3.5 3.8-1.9 9.8-1.9 9.8M48.5 118.6s1.9 6-.3 13.2c-1.6 5.1 2.5 9.3 2.5 9.3" class="st0"/>
  <path d="M46.6 118.8s1.7 8.1-2 13.8c-4.2 6.3 3.3 11.8 3.3 11.8" class="st0"/>
  <path d="M43.2 117.7c-.2-.2 4.2-1.5 6.6.2 1.6-1.2 0-2.2 0-2.2s-5.2-1.5-7.9 1.2c-1.3 2.8-7.8 6.6-5.6 13.1 1.9 6.9-3.1 7.2-3.1 7.2" class="st1"/>
</svg>
