<?xml version="1.0" encoding="utf-8"?>
<!-- Generator: Adobe Illustrator 23.0.2, SVG Export Plug-In . SVG Version: 6.00 Build 0)  -->
<svg version="1.1" id="Camada_1" xmlns="http://www.w3.org/2000/svg" xmlns:xlink="http://www.w3.org/1999/xlink" x="0px" y="0px"
	 viewBox="0 0 100 150" style="enable-background:new 0 0 100 150;" xml:space="preserve">
<style type="text/css">
	.st0{fill:none;stroke:#5E5E6D;stroke-linecap:round;stroke-linejoin:round;stroke-miterlimit:10;}
	.st1{fill:none;stroke:#9F2D87;stroke-linecap:round;stroke-linejoin:round;stroke-miterlimit:10;}
</style>
<g>
	<path class="st0" d="M63.3,43.2c0,9-7.1,22.8-16.1,22.8S31.7,52.2,31.7,43.2s6.9-16.6,15.8-16.6C56.4,26.7,63.3,34.3,63.3,43.2z"/>
	<polyline class="st0" points="44.8,67.4 43.8,70.3 45.7,70 49,69.3 47.3,67.4 	"/>
	<line class="st0" x1="46.7" y1="71.8" x2="46.4" y2="113.3"/>
</g>
<path class="st1" d="M21.6,39.5c-1.5-3.2-2.5-6.7-2.8-9.6c-0.8-9,5.5-17,14.4-17.8c4.2-0.3,8.1,1,11.1,3.5"/>
<g>
	<path class="st1" d="M60.5,31.3c2.7-1.2,5.9-1.6,9.1-1.1c3.5,0.7,6.3,2.4,8.5,4.8"/>
</g>
<g>
	<path class="st0" d="M45.2,78.6c-2,2.6-4.5,4.4-7.4,4.8c-8.9,1.1-17.3-11.8-18.4-20.7C18.3,55,22.8,47.5,29.9,45"/>
	<polyline class="st0" points="35.5,85 34.9,88 36.8,87.4 39.9,86.4 38,84.6 	"/>
	<line class="st0" x1="38.1" y1="89.2" x2="44.9" y2="113.6"/>
</g>
<g>
	<path class="st1" d="M26,80.4c-8.6,2.3-18.6-9.5-20.8-18.2s2.5-17.8,11.1-20c4.3-1.1,8.5-0.3,12,1.9"/>
	<polyline class="st1" points="23.9,82.2 23.7,85.4 25.4,84.5 28.5,83.1 26.3,81.6 	"/>
	<line class="st1" x1="26.9" y1="86.2" x2="43.3" y2="114.1"/>
</g>
<g>
	<path class="st1" d="M62.9,53.8c2.8-1,5.9-1.2,9-0.4c8.6,2.2,13.4,11.4,11.1,20C80.8,82,70.4,93.7,61.8,91.5
		c-7.6-2-10.8-13.9-9.9-22.5"/>
	<polyline class="st1" points="59.1,92.1 57.4,94.7 59.4,94.9 62.7,95.1 61.5,92.7 	"/>
	<line class="st0" x1="59.8" y1="97" x2="48.2" y2="113.5"/>
</g>
<g>
	<path class="st0" d="M45.8,24.3c-0.3-2.2-0.4-4.4-0.2-6.3c1-8.4,8.3-14.9,16.7-13.9c8.5,1.1,14.1,9.1,13.1,17.5
		c-0.2,2.3-1.1,4.9-2.3,7.4"/>
</g>
<g>
	<path class="st0" d="M65.2,51.4c0.2-1.4,0.4-2.8,0.9-4c2.6-8.1,11-12.9,19.1-10.3s12,11.6,9.4,19.6c-1.4,4.4-6.7,9.5-9.7,12.8"/>
	<line class="st0" x1="65.6" y1="93" x2="50.3" y2="113.8"/>
</g>
<path class="st0" d="M45.2,118.5c0,0,1.6,6-2.4,10.5c-3.5,3.8-1.9,9.8-1.9,9.8"/>
<path class="st0" d="M48.5,118.6c0,0,1.9,6-0.3,13.2c-1.6,5.1,2.5,9.3,2.5,9.3"/>
<path class="st0" d="M46.6,118.8c0,0,1.7,8.1-2,13.8c-4.2,6.3,3.3,11.8,3.3,11.8"/>
<path class="st1" d="M43.2,117.7c-0.2-0.2,4.2-1.5,6.6,0.2c1.6-1.2,0-2.2,0-2.2s-5.2-1.5-7.9,1.2c-1.3,2.8-7.8,6.6-5.6,13.1
	c1.9,6.9-3.1,7.2-3.1,7.2"/>
</svg>
