<?xml version="1.0" encoding="utf-8"?>
<!-- Generator: Adobe Illustrator 23.0.2, SVG Export Plug-In . SVG Version: 6.00 Build 0)  -->
<svg version="1.1" id="Camada_1" xmlns="http://www.w3.org/2000/svg" xmlns:xlink="http://www.w3.org/1999/xlink" x="0px" y="0px"
	 viewBox="0 0 100 150" style="enable-background:new 0 0 100 150;" xml:space="preserve">
<style type="text/css">
	.st0{fill:none;stroke:#9F2D87;stroke-linecap:round;stroke-linejoin:round;stroke-miterlimit:10;}
	.st1{fill:none;stroke:#5E5E6D;stroke-linecap:round;stroke-linejoin:round;stroke-miterlimit:10;}
</style>
<g>
	<path class="st1" d="M60.41,61.26c0,7-5.56,17.85-12.55,17.85c-7,0-12.17-10.86-12.17-17.85c0-7,5.38-12.96,12.38-12.96
		C55.05,48.31,60.41,54.27,60.41,61.26z"/>
	<polyline class="st1" points="45.91,80.1 45.13,82.45 46.67,82.16 49.25,81.67 47.86,80.1 	"/>
	<line class="st1" x1="47.45" y1="83.67" x2="47.22" y2="116.03"/>
</g>
<path class="st0" d="M27.74,58.34c-1.22-2.52-2-5.19-2.2-7.48c-0.58-6.97,4.28-13.36,11.25-13.94c3.29-0.28,6.33,0.8,8.68,2.75"/>
<g>
	<path class="st0" d="M58.17,51.96c2.15-0.96,4.59-1.31,7.09-0.84c2.7,0.51,4.99,1.87,6.68,3.76"/>
</g>
<g>
	<path class="st1" d="M46.24,88.91c-1.57,2.01-3.52,3.42-5.77,3.72c-6.93,0.93-13.51-9.15-14.43-16.08
		c-0.82-6.11,2.61-11.97,8.17-13.92"/>
	<polyline class="st1" points="38.67,93.87 38.21,96.3 39.69,95.81 42.18,94.98 40.6,93.62 	"/>
	<line class="st1" x1="40.67" y1="97.2" x2="46" y2="116.26"/>
</g>
<g>
	<path class="st0" d="M31.19,90.32c-6.77,1.76-14.51-7.46-16.26-14.23c-1.75-6.77,1.96-13.89,8.73-15.65
		c3.33-0.86,6.65-0.23,9.36,1.45"/>
	<polyline class="st0" points="29.56,91.77 29.39,94.24 30.8,93.57 33.18,92.45 31.44,91.28 	"/>
	<line class="st0" x1="31.94" y1="94.83" x2="44.76" y2="116.75"/>
</g>
<g>
	<path class="st0" d="M60.12,69.53c2.18-0.78,4.6-0.95,7.02-0.32c6.77,1.75,10.47,8.86,8.72,15.63c-1.75,6.77-9.84,15.9-16.61,14.15
		c-5.94-1.53-8.44-10.82-7.78-17.64"/>
	<polyline class="st0" points="57.12,99.46 55.77,101.54 57.33,101.64 59.95,101.81 59,99.95 	"/>
	<line class="st1" x1="57.71" y1="103.3" x2="48.67" y2="116.17"/>
</g>
<g>
	<path class="st1" d="M46.73,46.48c-0.26-1.75-0.31-3.44-0.13-4.92c0.78-6.59,6.52-11.61,13.11-10.82c6.59,0.78,10.97,7,10.19,13.59
		c-0.21,1.81-0.86,3.85-1.81,5.84"/>
</g>
<g>
	<path class="st1" d="M61.88,67.7c0.15-1.14,0.38-2.21,0.69-3.16c2.06-6.31,8.67-10.1,14.98-8.03c6.31,2.06,9.38,9.02,7.31,15.33
		c-1.13,3.45-5.25,7.45-7.59,10.04"/>
	<line class="st1" x1="62.26" y1="100.25" x2="50.29" y2="116.43"/>
</g>
<path class="st1" d="M46.2,120.14c0,0,1.3,4.73-1.88,8.2c-2.7,2.95-1.45,7.68-1.45,7.68"/>
<path class="st1" d="M48.81,120.23c0,0,1.49,4.73-0.29,10.35c-1.27,4.01,2,7.28,2,7.28"/>
<path class="st1" d="M47.36,120.38c0,0,1.36,6.32-1.54,10.78c-3.21,4.94,2.55,9.19,2.55,9.19"/>
<path class="st0" d="M44.67,119.58c-0.15-0.14,3.27-1.2,5.09,0.14c1.25-0.94,0.04-1.74,0.04-1.74s-4.13-1.21-6.19,0.94
	c-1.03,2.24-6.09,5.14-4.34,10.27c1.42,5.4-2.43,5.66-2.43,5.66"/>
</svg>
