<svg xmlns="http://www.w3.org/2000/svg" id="Camada_1" viewBox="0 0 100 150">
  <style>
    .st0,.st1{fill:none;stroke:#1daa7d;stroke-linecap:round;stroke-linejoin:round;stroke-miterlimit:10}.st1{stroke:#5e5e6d}
  </style>
  <path d="M62 21l-8.6-1.3M49.2 110.7a6.3 6.3 0 0 1-7.1 5.3c-3.4-.5-5.8-3.7-5.3-7.1s3.7-5.8 7.1-5.3c3.5.6 5.8 3.7 5.3 7.1z" class="st0"/>
  <path d="M79.2 99.6c1 2.6-.9 7.4-1.4 12-.1.8-1.4 7.6-1.7 9.4-.6 4.2-4.6 7.1-8.7 6.4l-51.2-7.7c-4.2-.6-7.1-4.6-6.4-8.7L24 16.9c.6-4.2 4.6-7.1 8.7-6.4l51.2 7.7c4.2.6 7.1 4.6 6.4 8.7l-7.6 51.2-8.9-.7 6.5-47L31.2 23 20.7 94.1l46.7 7.1" class="st0"/>
  <g>
    <path d="M17.2 35.6c-4.3-1.3-8.1.7-9.7 4.3-1 2.1-1.5 7.2 3.8 9.8 1.1.6 2.3 1.1 3.6 1.3M14.9 54.1c-4.6-1.4-8.7.7-10.5 4.6-1 2.3-1.5 7.8 4.1 10.6 1.2.6 2.5 1.2 3.9 1.4M12.4 73.8c-4.2-1.2-7.9.6-9.5 4.1-.9 2-1.4 7 3.7 9.6 1.1.5 2.3 1 3.5 1.3M83.2 139.6s-1.6-5.8 2.9-9.9c5.6-5 15.4-18.8 9.8-37.3-2.1-5.3-6.7-10.2-23.9-10.2-13.7 0-12.9 16.2 1.4 15.4" class="st1"/>
  </g>
</svg>
