<?xml version="1.0" encoding="utf-8"?>
<!-- Generator: Adobe Illustrator 23.0.2, SVG Export Plug-In . SVG Version: 6.00 Build 0)  -->
<svg version="1.1" id="Camada_1" xmlns="http://www.w3.org/2000/svg" xmlns:xlink="http://www.w3.org/1999/xlink" x="0px" y="0px"
	 viewBox="0 0 100 150" style="enable-background:new 0 0 100 150;" xml:space="preserve">
<style type="text/css">
	.st0{fill:none;stroke:#9F2D87;stroke-linecap:round;stroke-linejoin:round;stroke-miterlimit:10;}
	.st1{fill:none;stroke:#5E5E6D;stroke-linecap:round;stroke-linejoin:round;stroke-miterlimit:10;}
</style>
<g>
	<g>
		<line class="st0" x1="62" y1="21" x2="53.4" y2="19.7"/>
		<path class="st0" d="M49.2,110.7c-0.5,3.4-3.7,5.8-7.1,5.3c-3.4-0.5-5.8-3.7-5.3-7.1c0.5-3.4,3.7-5.8,7.1-5.3
			C47.4,104.2,49.7,107.3,49.2,110.7z"/>
		<path class="st0" d="M79.2,99.6c1,2.6-0.9,7.4-1.4,12c-0.1,0.8-1.4,7.6-1.7,9.4c-0.6,4.2-4.6,7.1-8.7,6.4l-51.2-7.7
			c-4.2-0.6-7.1-4.6-6.4-8.7l14.2-94.1c0.6-4.2,4.6-7.1,8.7-6.4l51.2,7.7c4.2,0.6,7.1,4.6,6.4,8.7l-7.6,51.2l-8.9-0.7l6.5-47
			L31.2,23L20.7,94.1l46.7,7.1"/>
	</g>
	<g>
		<path class="st1" d="M17.2,35.6c-4.3-1.3-8.1,0.7-9.7,4.3C6.5,42,6,47.1,11.3,49.7c1.1,0.6,2.3,1.1,3.6,1.3"/>
		<path class="st1" d="M14.9,54.1c-4.6-1.4-8.7,0.7-10.5,4.6c-1,2.3-1.5,7.8,4.1,10.6c1.2,0.6,2.5,1.2,3.9,1.4"/>
		<path class="st1" d="M12.4,73.8c-4.2-1.2-7.9,0.6-9.5,4.1c-0.9,2-1.4,7,3.7,9.6c1.1,0.5,2.3,1,3.5,1.3"/>
		<path class="st1" d="M83.2,139.6c0,0-1.6-5.8,2.9-9.9c5.6-5,15.4-18.8,9.8-37.3c-2.1-5.3-6.7-10.2-23.9-10.2
			c-13.7,0-12.9,16.2,1.4,15.4"/>
	</g>
</g>
</svg>
