<?xml version="1.0" encoding="utf-8"?>
<!-- Generator: Adobe Illustrator 23.0.2, SVG Export Plug-In . SVG Version: 6.00 Build 0)  -->
<svg version="1.1" id="Camada_1" xmlns="http://www.w3.org/2000/svg" xmlns:xlink="http://www.w3.org/1999/xlink" x="0px" y="0px"
	 viewBox="0 0 130 150" style="enable-background:new 0 0 130 150;" xml:space="preserve">
<style type="text/css">
	.st0{fill:none;stroke:#9F2D87;stroke-linecap:round;stroke-linejoin:round;stroke-miterlimit:10;}
</style>
<g>
	<line class="st0" x1="74.6" y1="111.7" x2="74.6" y2="28.4"/>
	<path class="st0" d="M101.6,92v3.4c0,2.3-1.8,4.1-3.9,4.1H86.5c-2.2,0-3.9-1.9-3.9-4.1V87l5.4-5.5"/>
	<path class="st0" d="M104.2,79.3l-6.4,6.4c-0.6,0.6-0.9,1.4-0.9,2.2v1c0,1.7,1.3,3.1,2.9,3.1h14.2c2.2,0,3.9-1.9,3.9-4.1V67.8
		c0-2.3-1.8-4.1-3.9-4.1h-4.3"/>
	<path class="st0" d="M96.4,35.8h3.5c2.2,0,3.9,1.9,3.9,4.1v11.1c0,1.1-0.5,2.1-1.4,2.8l-6.9,5"/>
	<path class="st0" d="M100.2,69.9l9.6-6.2c0.9-0.6,1.5-1.7,1.5-2.8V50.3c0-2.3-1.8-4.1-3.9-4.1h-3.2"/>
	<path class="st0" d="M87.1,51l7.2-5c0.9-0.6,1.4-1.6,1.4-2.7L96,35v-2.5c0-2.3-1.8-4.1-3.9-4.1H74.8"/>
	<path class="st0" d="M45.9,69.6L24.8,52c-2-1.7-4.9-1-6,1.4l-6.4,13.9c-0.7,1.5-0.5,3.3,0.6,4.6l2.8,3.3h18.5"/>
	<polyline class="st0" points="19.7,75.3 19.7,83.1 29.4,88.5 50.1,88.5 	"/>
	<path class="st0" d="M36.4,88.6v4.9c0,2.3,1.8,4.1,3.9,4.1h27.9V87.2c0-1.7-0.9-3.3-2.3-4.2l-6.5-4"/>
	<path class="st0" d="M23.5,50.4l6-9.2c1.3-2,4-2.4,5.8-0.8l12.3,11"/>
	<path class="st0" d="M35.6,39.6l6.6-6.4c1.5-1.4,3.8-1.5,5.3,0l7.4,6.9"/>
	<path class="st0" d="M48.4,33.4l6.6-4.3c1.7-1.1,3.8-0.7,5.1,0.8l3.7,4.6"/>
	<path class="st0" d="M58.7,66.2L72,75.5c1.7,1.2,2.7,3.2,2.7,5.4v9"/>
	<path class="st0" d="M62.7,55.1l10.4,7c1,0.7,1.6,1.9,1.6,3.1v7.7"/>
	<polyline class="st0" points="60.4,29.9 64.4,28 71.8,28 	"/>
	<path class="st0" d="M68,102v8.9c0,2.2,0.9,4,3,4H73v9.1"/>
	<line class="st0" x1="62.8" y1="102" x2="62.8" y2="110.7"/>
	<path class="st0" d="M82.6,103.4v7.3c0,2.2-2.6,4-4.7,4h-0.5v14"/>
	<path class="st0" d="M85.3,71.9l-8.3,8.8c-1.3,1.4-2.3,3.3-2.3,5.2v5.6"/>
	<path class="st0" d="M74.6,74.6v-2.4c0-1.7,0.7-3.4,1.9-4.6l3.5-3.5"/>
	<path class="st0" d="M81.8,42l-5.5,5.8c-1.2,1.2-1.8,2.9-1.8,4.6v20"/>
	<path class="st0" d="M92.8,81c-0.4,0.7-1.1,1.1-1.9,1.1c-1.3,0-2.3-1.1-2.3-2.4s1-2.4,2.3-2.4c0.7,0,1.4,0.3,1.8,0.9"/>
	<path class="st0" d="M59.3,79c-0.4,0.7-1.1,1.1-1.9,1.1c-1.3,0-2.3-1.1-2.3-2.4c0-1.3,1-2.4,2.3-2.4c0.7,0,1.4,0.3,1.8,0.9"/>
	<path class="st0" d="M49.7,72.4c-0.4,0.7-1.1,1.1-1.9,1.1c-1.3,0-2.3-1.1-2.3-2.4c0-1.3,1-2.4,2.3-2.4c0.7,0,1.4,0.3,1.8,0.9"/>
	<path class="st0" d="M31.1,68c-0.4,0.7-1.1,1.1-1.9,1.1c-1.3,0-2.3-1.1-2.3-2.4c0-1.3,1-2.4,2.3-2.4c0.7,0,1.4,0.3,1.8,0.9"/>
	<path class="st0" d="M41.1,54.6c-0.4,0.7-1.1,1.1-1.9,1.1c-1.3,0-2.3-1.1-2.3-2.4c0-1.3,1-2.4,2.3-2.4c0.7,0,1.4,0.3,1.8,0.9"/>
	<path class="st0" d="M58.7,66.2c-0.4,0.7-1.1,1.1-1.9,1.1c-1.3,0-2.3-1.1-2.3-2.4c0-1.3,1-2.4,2.3-2.4c0.7,0,1.4,0.3,1.8,0.9"/>
	<path class="st0" d="M62.5,54.8c-0.4,0.7-1.1,1.1-1.9,1.1c-1.3,0-2.3-1.1-2.3-2.4c0-1.3,1-2.4,2.3-2.4c0.7,0,1.4,0.3,1.8,0.9"/>
	<path class="st0" d="M51,55.1c-0.4,0.7-1.1,1.1-1.9,1.1c-1.3,0-2.3-1.1-2.3-2.4s1-2.4,2.3-2.4c0.7,0,1.4,0.3,1.8,0.9"/>
	<path class="st0" d="M38.6,76.2c-0.4,0.7-1.1,1.1-1.9,1.1c-1.3,0-2.3-1.1-2.3-2.4s1-2.4,2.3-2.4c0.7,0,1.4,0.3,1.8,0.9"/>
	<path class="st0" d="M54.8,89c-0.4,0.7-1.1,1.1-1.9,1.1c-1.3,0-2.3-1.1-2.3-2.4c0-1.3,1-2.4,2.3-2.4c0.7,0,1.4,0.3,1.8,0.9"/>
	<path class="st0" d="M73.9,128c-0.4,0.7-1.1,1.1-1.9,1.1c-1.3,0-1.5-1.1-1.5-2.4s0.2-2.4,1.5-2.4c0.7,0,1.4,0.3,1.8,0.9"/>
	<path class="st0" d="M79.7,132.9c-0.4,0.7-1.1,1.1-1.9,1.1c-1.3,0-2.3-1.1-2.3-2.4c0-1.3,1-2.4,2.3-2.4c0.7,0,1.4,0.3,1.8,0.9"/>
	<path class="st0" d="M64.7,114.7c-0.4,0.7-1.1,1.1-1.9,1.1c-1.3,0-2.3-1.1-2.3-2.4c0-1.3,1-2.4,2.3-2.4c0.7,0,1.4,0.3,1.8,0.9"/>
	<line class="st0" x1="88.6" y1="103.3" x2="88.6" y2="110.7"/>
	<path class="st0" d="M90.5,114.7c-0.4,0.7-1.1,1.1-1.9,1.1c-1.3,0-2.3-1.1-2.3-2.4c0-1.3,1-2.4,2.3-2.4c0.7,0,1.4,0.3,1.8,0.9"/>
	<path class="st0" d="M57.5,44.3c-0.4,0.7-1.1,1.1-1.9,1.1c-1.3,0-2.3-1.1-2.3-2.4c0-1.3,1-2.4,2.3-2.4c0.7,0,1.4,0.3,1.8,0.9"/>
	<path class="st0" d="M66.9,38.3c-0.4,0.7-1.1,1.1-1.9,1.1c-1.3,0-2.3-1.1-2.3-2.4c0-1.3,1-2.4,2.3-2.4c0.7,0,1.4,0.3,1.8,0.9"/>
	<path class="st0" d="M96,62.4c-0.4,0.7-1.1,1.1-1.9,1.1c-1.3,0-2.3-1.1-2.3-2.4c0-1.3,1-2.4,2.3-2.4c0.7,0,1.4,0.3,1.8,0.9"/>
	<path class="st0" d="M89.1,70.9C88.7,71.6,88,72,87.2,72c-1.3,0-2.3-1.1-2.3-2.4c0-1.3,1-2.4,2.3-2.4c0.7,0,1.4,0.3,1.8,0.9"/>
	<path class="st0" d="M85.3,41.3c-0.4,0.7-1.1,1.1-1.9,1.1c-1.3,0-2.3-1.1-2.3-2.4c0-1.3,1-2.4,2.3-2.4c0.7,0,1.4,0.3,1.8,0.9"/>
	<path class="st0" d="M86.8,54.1c-0.4,0.7-1.1,1.1-1.9,1.1c-1.3,0-2.3-1.1-2.3-2.4c0-1.3,1-2.4,2.3-2.4c0.7,0,1.4,0.3,1.8,0.9"/>
	<path class="st0" d="M83.2,62.6c-0.4,0.7-1.1,1.1-1.9,1.1c-1.3,0-2.3-1.1-2.3-2.4c0-1.3,1-2.4,2.3-2.4c0.7,0,1.4,0.3,1.8,0.9"/>
	<path class="st0" d="M100,73c-0.4,0.7-1.1,1.1-1.9,1.1c-1.3,0-2.3-1.1-2.3-2.4c0-1.3,1-2.4,2.3-2.4c0.7,0,1.4,0.3,1.8,0.9"/>
	<path class="st0" d="M107.9,78.7c-0.4,0.7-1.1,1.1-1.9,1.1c-1.3,0-2.3-1.1-2.3-2.4c0-1.3,1-2.4,2.3-2.4c0.7,0,1.4,0.3,1.8,0.9"/>
	<line class="st0" x1="28.3" y1="55.1" x2="28.7" y2="63.6"/>
	<line class="st0" x1="28.3" y1="54.9" x2="36.3" y2="53.7"/>
	<path class="st0" d="M47.6,41.8c-0.4,0.7-1.1,1.1-1.9,1.1c-1.3,0-2.3-1.1-2.3-2.4c0-1.3,1-2.4,2.3-2.4c0.7,0,1.4,0.3,1.8,0.9"/>
	<line class="st0" x1="37.6" y1="42" x2="42.8" y2="41"/>
</g>
</svg>
