<svg xmlns="http://www.w3.org/2000/svg" id="Camada_1" viewBox="0 0 130 150">
  <style>
    .st0{fill:none;stroke:#1daa7d;stroke-linecap:round;stroke-linejoin:round;stroke-miterlimit:10}
  </style>
  <path d="M74.6 111.7V28.4M101.6 92v3.4c0 2.3-1.8 4.1-3.9 4.1H86.5c-2.2 0-3.9-1.9-3.9-4.1V87l5.4-5.5" class="st0"/>
  <path d="M104.2 79.3l-6.4 6.4c-.6.6-.9 1.4-.9 2.2v1c0 1.7 1.3 3.1 2.9 3.1H114c2.2 0 3.9-1.9 3.9-4.1V67.8c0-2.3-1.8-4.1-3.9-4.1h-4.3M96.4 35.8h3.5c2.2 0 3.9 1.9 3.9 4.1V51c0 1.1-.5 2.1-1.4 2.8l-6.9 5" class="st0"/>
  <path d="M100.2 69.9l9.6-6.2c.9-.6 1.5-1.7 1.5-2.8V50.3c0-2.3-1.8-4.1-3.9-4.1h-3.2M87.1 51l7.2-5c.9-.6 1.4-1.6 1.4-2.7L96 35v-2.5c0-2.3-1.8-4.1-3.9-4.1H74.8M45.9 69.6L24.8 52c-2-1.7-4.9-1-6 1.4l-6.4 13.9c-.7 1.5-.5 3.3.6 4.6l2.8 3.3h18.5M19.7 75.3v7.8l9.7 5.4h20.7" class="st0"/>
  <path d="M36.4 88.6v4.9c0 2.3 1.8 4.1 3.9 4.1h27.9V87.2c0-1.7-.9-3.3-2.3-4.2l-6.5-4M23.5 50.4l6-9.2c1.3-2 4-2.4 5.8-.8l12.3 11M35.6 39.6l6.6-6.4c1.5-1.4 3.8-1.5 5.3 0l7.4 6.9M48.4 33.4l6.6-4.3c1.7-1.1 3.8-.7 5.1.8l3.7 4.6M58.7 66.2L72 75.5c1.7 1.2 2.7 3.2 2.7 5.4v9M62.7 55.1l10.4 7c1 .7 1.6 1.9 1.6 3.1v7.7M60.4 29.9l4-1.9h7.4M68 102v8.9c0 2.2.9 4 3 4h2v9.1M62.8 102v8.7M82.6 103.4v7.3c0 2.2-2.6 4-4.7 4h-.5v14M85.3 71.9L77 80.7c-1.3 1.4-2.3 3.3-2.3 5.2v5.6" class="st0"/>
  <path d="M74.6 74.6v-2.4c0-1.7.7-3.4 1.9-4.6l3.5-3.5" class="st0"/>
  <path d="M81.8 42l-5.5 5.8a6.5 6.5 0 0 0-1.8 4.6v20M92.8 81c-.4.7-1.1 1.1-1.9 1.1-1.3 0-2.3-1.1-2.3-2.4s1-2.4 2.3-2.4c.7 0 1.4.3 1.8.9M59.3 79c-.4.7-1.1 1.1-1.9 1.1-1.3 0-2.3-1.1-2.3-2.4s1-2.4 2.3-2.4c.7 0 1.4.3 1.8.9M49.7 72.4c-.4.7-1.1 1.1-1.9 1.1-1.3 0-2.3-1.1-2.3-2.4s1-2.4 2.3-2.4c.7 0 1.4.3 1.8.9M31.1 68c-.4.7-1.1 1.1-1.9 1.1-1.3 0-2.3-1.1-2.3-2.4s1-2.4 2.3-2.4c.7 0 1.4.3 1.8.9M41.1 54.6c-.4.7-1.1 1.1-1.9 1.1-1.3 0-2.3-1.1-2.3-2.4 0-1.3 1-2.4 2.3-2.4.7 0 1.4.3 1.8.9M58.7 66.2c-.4.7-1.1 1.1-1.9 1.1-1.3 0-2.3-1.1-2.3-2.4 0-1.3 1-2.4 2.3-2.4.7 0 1.4.3 1.8.9M62.5 54.8c-.4.7-1.1 1.1-1.9 1.1-1.3 0-2.3-1.1-2.3-2.4 0-1.3 1-2.4 2.3-2.4.7 0 1.4.3 1.8.9M51 55.1c-.4.7-1.1 1.1-1.9 1.1-1.3 0-2.3-1.1-2.3-2.4s1-2.4 2.3-2.4c.7 0 1.4.3 1.8.9M38.6 76.2c-.4.7-1.1 1.1-1.9 1.1-1.3 0-2.3-1.1-2.3-2.4s1-2.4 2.3-2.4c.7 0 1.4.3 1.8.9M54.8 89c-.4.7-1.1 1.1-1.9 1.1-1.3 0-2.3-1.1-2.3-2.4s1-2.4 2.3-2.4c.7 0 1.4.3 1.8.9M73.9 128c-.4.7-1.1 1.1-1.9 1.1-1.3 0-1.5-1.1-1.5-2.4s.2-2.4 1.5-2.4c.7 0 1.4.3 1.8.9M79.7 132.9c-.4.7-1.1 1.1-1.9 1.1-1.3 0-2.3-1.1-2.3-2.4 0-1.3 1-2.4 2.3-2.4.7 0 1.4.3 1.8.9M64.7 114.7c-.4.7-1.1 1.1-1.9 1.1-1.3 0-2.3-1.1-2.3-2.4s1-2.4 2.3-2.4c.7 0 1.4.3 1.8.9M88.6 103.3v7.4M90.5 114.7c-.4.7-1.1 1.1-1.9 1.1-1.3 0-2.3-1.1-2.3-2.4s1-2.4 2.3-2.4c.7 0 1.4.3 1.8.9M57.5 44.3c-.4.7-1.1 1.1-1.9 1.1-1.3 0-2.3-1.1-2.3-2.4 0-1.3 1-2.4 2.3-2.4.7 0 1.4.3 1.8.9M66.9 38.3c-.4.7-1.1 1.1-1.9 1.1-1.3 0-2.3-1.1-2.3-2.4 0-1.3 1-2.4 2.3-2.4.7 0 1.4.3 1.8.9M96 62.4c-.4.7-1.1 1.1-1.9 1.1-1.3 0-2.3-1.1-2.3-2.4 0-1.3 1-2.4 2.3-2.4.7 0 1.4.3 1.8.9M89.1 70.9c-.4.7-1.1 1.1-1.9 1.1-1.3 0-2.3-1.1-2.3-2.4s1-2.4 2.3-2.4c.7 0 1.4.3 1.8.9M85.3 41.3c-.4.7-1.1 1.1-1.9 1.1-1.3 0-2.3-1.1-2.3-2.4 0-1.3 1-2.4 2.3-2.4.7 0 1.4.3 1.8.9M86.8 54.1c-.4.7-1.1 1.1-1.9 1.1-1.3 0-2.3-1.1-2.3-2.4 0-1.3 1-2.4 2.3-2.4.7 0 1.4.3 1.8.9M83.2 62.6c-.4.7-1.1 1.1-1.9 1.1-1.3 0-2.3-1.1-2.3-2.4 0-1.3 1-2.4 2.3-2.4.7 0 1.4.3 1.8.9M100 73c-.4.7-1.1 1.1-1.9 1.1-1.3 0-2.3-1.1-2.3-2.4s1-2.4 2.3-2.4c.7 0 1.4.3 1.8.9M107.9 78.7c-.4.7-1.1 1.1-1.9 1.1-1.3 0-2.3-1.1-2.3-2.4s1-2.4 2.3-2.4c.7 0 1.4.3 1.8.9M28.3 55.1l.4 8.5M28.3 54.9l8-1.2M47.6 41.8c-.4.7-1.1 1.1-1.9 1.1-1.3 0-2.3-1.1-2.3-2.4 0-1.3 1-2.4 2.3-2.4.7 0 1.4.3 1.8.9M37.6 42l5.2-1" class="st0"/>
</svg>
