<?xml version="1.0" encoding="utf-8"?>
<!-- Generator: Adobe Illustrator 23.0.2, SVG Export Plug-In . SVG Version: 6.00 Build 0)  -->
<svg version="1.1" id="Camada_1" xmlns="http://www.w3.org/2000/svg" xmlns:xlink="http://www.w3.org/1999/xlink" x="0px" y="0px"
	 viewBox="0 0 270 270" style="enable-background:new 0 0 270 270;" xml:space="preserve">
<style type="text/css">
	.st0{fill:none;stroke:#000000;stroke-width:9;stroke-linecap:round;stroke-linejoin:round;stroke-miterlimit:10;}
	.st1{fill:none;stroke:#000000;stroke-width:6;stroke-linecap:round;stroke-linejoin:round;stroke-miterlimit:10;}
</style>
<path d="M245.1,94.5h-67.4c-1,0-1.8-0.6-1.8-1.3V22.6c0-5.1-4.4-9.3-9.8-9.3h-62.6c-5.4,0-9.8,4.2-9.8,9.3V45c0,2.2,1.8,4,4,4
	s4-1.8,4-4V22.6c0-0.7,0.8-1.3,1.8-1.3h62.6c1,0,1.8,0.6,1.8,1.3v70.6c0,5.1,4.4,9.3,9.8,9.3h67.4c1,0,1.8,0.6,1.8,1.3v65.7
	c0,0.7-0.8,1.3-1.8,1.3h-67.4c-5.4,0-9.8,4.2-9.8,9.3v70.6c0,0.7-0.8,1.3-1.8,1.3h-62.6c-1,0-1.8-0.6-1.8-1.3v-70.6
	c0-5.1-4.4-9.3-9.8-9.3H24.5c-1,0-1.8-0.6-1.8-1.3v-65.7c0-0.7,0.8-1.3,1.8-1.3h67.4c5.4,0,9.8-4.2,9.8-9.3v-12c0-2.2-1.8-4-4-4
	s-4,1.8-4,4v12c0,0.7-0.8,1.3-1.8,1.3H24.5c-5.4,0-9.8,4.2-9.8,9.3v65.7c0,5.1,4.4,9.3,9.8,9.3h67.4c1,0,1.8,0.6,1.8,1.3v70.6
	c0,5.1,4.4,9.3,9.8,9.3h62.6c5.4,0,9.8-4.2,9.8-9.3v-70.6c0-0.7,0.8-1.3,1.8-1.3h67.4c5.4,0,9.8-4.2,9.8-9.3v-65.7
	C254.9,98.7,250.5,94.5,245.1,94.5z"/>
</svg>
