<?xml version="1.0" encoding="utf-8"?>
<!-- Generator: Adobe Illustrator 23.0.2, SVG Export Plug-In . SVG Version: 6.00 Build 0)  -->
<svg version="1.1" id="Camada_1" xmlns="http://www.w3.org/2000/svg" xmlns:xlink="http://www.w3.org/1999/xlink" x="0px" y="0px"
	 viewBox="0 0 270 270" style="enable-background:new 0 0 270 270;" xml:space="preserve">
<style type="text/css">
	.st0{fill:none;stroke:#000000;stroke-width:9;stroke-linecap:round;stroke-linejoin:round;stroke-miterlimit:10;}
	.st1{fill:none;stroke:#000000;stroke-width:6;stroke-linecap:round;stroke-linejoin:round;stroke-miterlimit:10;}
</style>
<path d="M229.7,64.5c-3.3-3.5-8.7-4-12.6-1.3l-49.5,35.2c-16.8,11.9-39.3,11.9-56.1,0L61.9,63.2c-3.9-2.8-9.3-2.2-12.6,1.3
	L29.9,85.2c-1.8,1.9-2.7,4.5-2.6,7.2c0.2,2.6,1.4,5.1,3.5,6.8L84,143v119.9H19.1c-1.9,0-3.4,1.5-3.4,3.4s1.5,3.4,3.4,3.4h68.3
	c1.9,0,3.4-1.5,3.4-3.4V141.3c0-1-0.5-2-1.3-2.7L35.2,93.9c-0.6-0.5-0.9-1.2-1-1.9c0-0.7,0.2-1.5,0.7-2l19.4-20.7
	c0.9-1,2.5-1.1,3.6-0.4l49.5,35.3c19.2,13.6,44.9,13.6,64.1,0l49.5-35.2c1.1-0.8,2.6-0.6,3.6,0.4l19.4,20.7c0.5,0.5,0.8,1.3,0.7,2
	c-0.1,0.8-0.4,1.5-1,1.9l-54.4,44.8c-0.8,0.7-1.3,1.6-1.3,2.7v124.9c0,1.9,1.5,3.4,3.4,3.4s3.4-1.5,3.4-3.4V143l53.1-43.8
	c2-1.7,3.3-4.1,3.5-6.8c0.2-2.6-0.8-5.3-2.6-7.2L229.7,64.5z"/>
<path d="M156.9,134.4c-1.2,0-2.3,0.1-3.5,0.4c-1.1,0.2-3.8,0.9-6.1,2.3c-1.9,1.2-3.8,2.6-5.3,4.1c-0.2,0.2-0.5,0.5-0.8,0.7
	c-0.1,0.1-0.2,0.2-0.3,0.3c-0.1-0.1-0.2-0.2-0.3-0.3c-0.3-0.2-0.5-0.5-0.8-0.7c-1.5-1.5-3.3-2.9-5.3-4.1c-2.3-1.4-5-2.1-6.1-2.3
	c-1.2-0.3-2.3-0.4-3.5-0.4c-6.3,0-12.3,3.8-15.2,9.6c-2.3,4.7-2.4,10.5-0.3,16.3c0.8,2.2,1.9,4.2,3.1,6.1c1.8,2.6,4.2,5.2,7.4,7.9
	c1.6,1.3,3.3,2.6,4.9,3.8c4.4,3.3,8.5,6.5,10.9,10.4c1,1.7,2.9,2.8,5.1,2.8c2.1,0,4-1,5.1-2.8c2.4-4,6.5-7.1,10.9-10.4
	c1.6-1.2,3.3-2.5,4.9-3.9c2.3-1.9,4.1-3.7,5.7-5.6c0.6-0.8,1.2-1.5,1.7-2.3c3.8-5.5,6.8-14.6,2.9-22.4
	C169.1,138.2,163.2,134.4,156.9,134.4z M163.5,162.5c-0.4,0.6-0.9,1.2-1.4,1.8c-1.3,1.5-2.9,3.1-4.8,4.7c-1.5,1.2-3,2.4-4.7,3.7
	c-4.3,3.3-8.7,6.6-11.8,11.1c-3.1-4.5-7.5-7.8-11.8-11.1c-1.6-1.2-3.2-2.4-4.6-3.6c-2.7-2.3-4.7-4.4-6.2-6.5c0,0,0,0,0,0
	c-0.9-1.4-1.8-2.9-2.4-4.5c-0.9-2.4-2-6.9-0.1-10.9c1.5-2.9,4.8-5.8,9.1-5.8c0.7,0,1.4,0.1,2.1,0.2c1.5,0.3,3,0.9,3.9,1.4
	c1.5,0.9,2.9,2,4,3.1c0.3,0.3,0.6,0.5,0.8,0.8c0.7,0.7,1.5,1.4,2,2.1c0.7,0.9,1.8,1.4,3,1.4c1.2,0,2.2-0.5,3-1.4c0,0,0-0.1,0.1-0.1
	c0.5-0.6,1.2-1.4,2-2.1c0.3-0.3,0.6-0.6,0.9-0.8c1.1-1.1,2.6-2.2,4-3.1c0.9-0.6,2.5-1.1,4-1.5c0.7-0.1,1.4-0.2,2.1-0.2
	c4.3,0,7.6,2.9,9.1,5.8C168.3,151.8,166.4,158.2,163.5,162.5z"/>
<path d="M139.5,94.8c25.7,0,46.5-20.9,46.5-46.5c0-25.7-20.9-46.5-46.5-46.5C113.9,1.8,93,22.7,93,48.3C93,74,113.9,94.8,139.5,94.8
	z M139.5,8.7c21.9,0,39.7,17.8,39.7,39.6c0,21.9-17.8,39.6-39.7,39.6c-21.9,0-39.6-17.8-39.6-39.6C99.9,26.4,117.7,8.7,139.5,8.7z"
	/>
</svg>
