<?xml version="1.0" encoding="utf-8"?>
<!-- Generator: Adobe Illustrator 23.0.2, SVG Export Plug-In . SVG Version: 6.00 Build 0)  -->
<svg version="1.1" id="Camada_1" xmlns="http://www.w3.org/2000/svg" xmlns:xlink="http://www.w3.org/1999/xlink" x="0px" y="0px"
	 viewBox="0 0 270 270" style="enable-background:new 0 0 270 270;" xml:space="preserve">
<style type="text/css">
	.st0{fill:none;stroke:#000000;stroke-width:9;stroke-linecap:round;stroke-linejoin:round;stroke-miterlimit:10;}
	.st1{fill:none;stroke:#000000;stroke-width:6;stroke-linecap:round;stroke-linejoin:round;stroke-miterlimit:10;}
</style>
<g>
	<g>
		<path d="M135.2,137C111.5,137,90,110.1,90,80.5c0-28.8,19-49.7,45.2-49.7c26.2,0,45.2,20.9,45.2,49.7
			C180.4,110.1,158.9,137,135.2,137z M135.2,37.6c-22.3,0-38.5,18.1-38.5,43c0,25.6,18.7,49.7,38.5,49.7c19.8,0,38.5-24.2,38.5-49.7
			C173.7,55.7,157.5,37.6,135.2,37.6z"/>
	</g>
	<path d="M135.2,1.7C61.6,1.7,1.7,61.6,1.7,135.2s59.9,133.5,133.5,133.5c27.9,0,54.7-8.5,77.3-24.7c0.8-0.5,1.2-1.3,1.4-2.2
		c0.5-0.5,0.9-1.2,1-2l8.8-71.7c0-0.1,0-0.2,0-0.3c0.3-8-4.8-15-12.1-16.7c0,0-35.2-8.1-41.5-9.5c-5.9-1.4-12-2-15.1,5.9
		c-0.7,1.6-5.2,7.5-8.8,12.2c-4,5.2-8.1,10.5-10.9,14.8c-2.8-4.3-6.9-9.6-10.9-14.8c-3.7-4.7-8.2-10.6-8.9-12.3
		c-3.1-7.9-9.2-7.3-15.1-5.9c-6.3,1.4-41.5,9.5-41.5,9.5c-7.3,1.7-12.4,8.7-12.1,16.7c0,0.1,0,0.2,0,0.3l7.9,64.8
		c-28.2-23.3-46.3-58.5-46.3-97.8C8.4,65.3,65.3,8.4,135.2,8.4S262,65.3,262,135.2c0,23.1-6.3,45.7-18.2,65.4
		c-1,1.6-0.5,3.7,1.1,4.6c1.6,1,3.7,0.5,4.6-1.1c12.5-20.7,19.1-44.6,19.1-68.9C268.7,61.6,208.8,1.7,135.2,1.7z M53.5,167.5
		c-0.1-4.7,2.7-8.7,6.9-9.7c0,0,35.2-8.1,41.5-9.5c6.1-1.4,6.4-0.7,7.4,1.8c0.9,2.4,4.2,6.6,9.8,13.9c5.1,6.6,11.4,14.8,13.1,18.7
		c0.5,1.2,1.7,2,3.1,2h0c1.3,0,2.5-0.8,3.1-2c1.7-3.9,8.1-12.2,13.2-18.8c5.6-7.3,8.8-11.5,9.8-13.9c1-2.5,1.3-3.2,7.4-1.8
		c6.3,1.4,41.5,9.5,41.5,9.5c4.1,1,7,5,6.9,9.7l-8.7,71.3c-21.4,15.1-46.7,23.1-73,23.1c-27.2,0-52.4-8.6-73-23.2L53.5,167.5z"/>
</g>
</svg>
