<?xml version="1.0" encoding="utf-8"?>
<!-- Generator: Adobe Illustrator 23.0.2, SVG Export Plug-In . SVG Version: 6.00 Build 0)  -->
<svg version="1.1" id="Camada_1" xmlns="http://www.w3.org/2000/svg" xmlns:xlink="http://www.w3.org/1999/xlink" x="0px" y="0px"
	 viewBox="0 0 270 270" style="enable-background:new 0 0 270 270;" xml:space="preserve">
<style type="text/css">
	.st0{fill:none;stroke:#000000;stroke-width:9;stroke-linecap:round;stroke-linejoin:round;stroke-miterlimit:10;}
	.st1{fill:none;stroke:#000000;stroke-width:6;stroke-linecap:round;stroke-linejoin:round;stroke-miterlimit:10;}
</style>
<g>
	<path d="M179.5,269.7H47.1c-15.7,0-28.5-11.1-28.5-24.7V25c0-13.6,12.8-24.7,28.5-24.7h132.4C195.2,0.3,208,11.4,208,25v19.4
		c0,3.2-2.6,5.8-5.8,5.8s-5.8-2.6-5.8-5.8V25c0-7.2-7.6-13.1-16.8-13.1H47.1c-9.3,0-16.8,5.9-16.8,13.1v220
		c0,7.2,7.6,13.1,16.8,13.1h132.4c9.3,0,16.8-5.9,16.8-13.1v-23.7c0-3.2,2.6-5.8,5.8-5.8s5.8,2.6,5.8,5.8V245
		C208,258.6,195.2,269.7,179.5,269.7z"/>
</g>
<path d="M267.4,130.8L199.4,67c-2.3-2.2-6-2.1-8.2,0.3c-2.2,2.3-2.1,6,0.3,8.2l57.2,53.7H80.5c-3.2,0-5.8,2.6-5.8,5.8
	s2.6,5.8,5.8,5.8h168.2l-57.2,53.7c-2.3,2.2-2.5,5.9-0.3,8.2c1.1,1.2,2.7,1.8,4.2,1.8c1.4,0,2.9-0.5,4-1.6l67.9-63.7
	c1.2-1.1,1.8-2.6,1.8-4.2S268.5,131.9,267.4,130.8z"/>
</svg>
