<?xml version="1.0" encoding="utf-8"?>
<!-- Generator: Adobe Illustrator 23.0.2, SVG Export Plug-In . SVG Version: 6.00 Build 0)  -->
<svg version="1.1" id="Camada_1" xmlns="http://www.w3.org/2000/svg" xmlns:xlink="http://www.w3.org/1999/xlink" x="0px" y="0px"
	 viewBox="0 0 270 270" style="enable-background:new 0 0 270 270;" xml:space="preserve">
<style type="text/css">
	.st0{fill:none;stroke:#000000;stroke-width:9;stroke-linecap:round;stroke-linejoin:round;stroke-miterlimit:10;}
	.st1{fill:none;stroke:#000000;stroke-width:6;stroke-linecap:round;stroke-linejoin:round;stroke-miterlimit:10;}
</style>
<path d="M220.7,135.8c0.9-14,2.5-40-14-58.5c-11.5-12.8-29.8-20-54.6-21.2C65.9,51.8,60.9,97.3,58.7,132
	c-7.2,1.3-12.6,7.6-12.6,15.2v4.8c0,7.5,5.4,13.7,12.4,15.1c0.2,19.4,3.2,30.4,9.6,36.6c6,5.7,14.3,6.5,22.4,6.5
	c3.7,0,7.7-0.2,12-0.4l0.2,0c4.9-0.2,10.5-0.5,16.4-0.5c1.7,0,3-1.4,3-3s-1.4-3-3-3c-6.2,0-11.9,0.3-16.9,0.5
	c-14,0.6-24.1,1.1-29.9-4.4c-5.1-4.9-7.5-14.9-7.8-32.2c7.1-1.4,12.4-7.7,12.4-15.1v-4.8c0-7.4-5.3-13.6-12.2-15.1
	c1.3-18.7,3.6-36.4,14.2-49.3c12.8-15.7,36.7-22.4,72.8-20.6c23.1,1.2,40,7.6,50.4,19.2c14.8,16.6,13.4,40.1,12.5,54.1l0,0.1
	c-0.3,4.3-0.5,7.4-0.1,9.6c0.2,1.5,1.5,2.6,3,2.6c0.1,0,0.3,0,0.5,0c0.8-0.1,1.5-0.5,2-1.2c0.5-0.7,0.7-1.5,0.6-2.3
	c-0.2-1.5,0-4.7,0.2-8.3L220.7,135.8z M61.6,137.8c5.2,0,9.4,4.2,9.4,9.4v4.8c0,5.2-4.2,9.4-9.4,9.4c-5.2,0-9.4-4.2-9.4-9.4v-4.8
	C52.2,142,56.4,137.8,61.6,137.8z"/>
<path d="M265.5,217c-19.3-5.9-25.5-11.6-28.1-92.8c-2.5-79.9-51.5-93.4-99.1-96l-6.2,0c-47.5,2.6-96.4,16.1-98.9,96
	c-2.5,81.1-8.7,86.9-28.1,92.8c-1.4,0.4-2.3,1.8-2.1,3.2c0.2,1.4,1.3,2.6,2.7,2.7l67.8,6.2c1.7,0.1,3.1-1.1,3.3-2.7
	c0.1-1.7-1.1-3.1-2.7-3.3L18.3,218c15-9.2,19-27.7,21-93.5c2.3-74.8,46.1-87.5,93-90.2l5.9,0c47,2.6,90.9,15.4,93.2,90.2
	c2,65.9,6,84.4,21,93.5l-55.8,5.1c-1.7,0.2-2.9,1.6-2.7,3.3c0.1,1.6,1.4,2.8,3,2.8c0.1,0,0.2,0,0.3,0l67.8-6.2
	c1.4-0.1,2.6-1.3,2.7-2.7C267.8,218.8,266.9,217.4,265.5,217z"/>
<path d="M203.1,143.9c0,0,0-0.1,0-0.1c0-0.1-0.1-0.2-0.1-0.3c0-0.1-0.1-0.2-0.1-0.3c0-0.1-0.1-0.1-0.1-0.2c-0.1-0.1-0.1-0.2-0.2-0.3
	c0-0.1-0.1-0.1-0.1-0.2c-0.1-0.1-0.2-0.2-0.3-0.3c0,0-0.1-0.1-0.1-0.1c-0.1-0.1-0.2-0.2-0.4-0.2c0,0-0.1,0-0.1-0.1
	c-0.1-0.1-0.3-0.1-0.4-0.2c-0.1,0-0.1,0-0.2,0c-0.1,0-0.3-0.1-0.4-0.1c-0.1,0-0.1,0-0.2,0c-0.1,0-0.3,0-0.4,0c0,0-0.1,0-0.1,0
	C138,149.9,91.1,86,90.6,85.4c0,0,0,0,0,0c-0.1-0.1-0.2-0.2-0.2-0.3c-0.1-0.1-0.1-0.1-0.2-0.2c-0.1-0.1-0.2-0.1-0.3-0.2
	c-0.1-0.1-0.2-0.1-0.2-0.2c0,0,0,0-0.1,0c-0.1,0-0.1-0.1-0.2-0.1c-0.1,0-0.2-0.1-0.3-0.1c-0.1,0-0.2-0.1-0.3-0.1c-0.1,0-0.1,0-0.2,0
	c0,0,0,0-0.1,0c-0.1,0-0.2,0-0.3,0c-0.1,0-0.2,0-0.3,0c-0.1,0-0.2,0-0.3,0c-0.1,0-0.2,0-0.3,0.1c-0.1,0-0.2,0.1-0.2,0.1
	c-0.1,0-0.2,0.1-0.3,0.1c-0.1,0-0.2,0.1-0.2,0.1c-0.1,0-0.1,0.1-0.2,0.1c0,0,0,0,0,0c-0.1,0.1-0.1,0.1-0.2,0.2
	C86.1,85,86,85,85.9,85.1c-0.1,0.1-0.1,0.1-0.2,0.2c-0.1,0.1-0.1,0.2-0.2,0.3c0,0,0,0,0,0.1c-5.8,10.4-10.4,23.7-13.2,37.5
	c-0.3,1.6,0.7,3.2,2.4,3.6c0.2,0,0.4,0.1,0.6,0.1c1.4,0,2.7-1,3-2.4c2.3-11.4,5.9-22.5,10.4-31.6c10.7,13.1,49.6,55.8,100,55.8
	c3,0,6-0.2,9-0.5c0.7,4.1,2,12.7,1.5,22.9c-0.6,13-4.3,31.3-18,44.9c-12.2,12.9-21.9,19.9-38.6,19.9c-16.3,0-31.9-6.7-43.9-19
	c-1.2-1.2-3.1-1.2-4.3,0c-1.2,1.2-1.2,3.1,0,4.3c13.1,13.4,30.3,20.8,48.2,20.8c18.8,0,30-8,42.9-21.7
	C214.5,191.5,203.6,145.9,203.1,143.9z"/>
</svg>
