<?xml version="1.0" encoding="utf-8"?>
<!-- Generator: Adobe Illustrator 23.0.2, SVG Export Plug-In . SVG Version: 6.00 Build 0)  -->
<svg version="1.1" id="Camada_1" xmlns="http://www.w3.org/2000/svg" xmlns:xlink="http://www.w3.org/1999/xlink" x="0px" y="0px"
	 viewBox="0 0 270 270" style="enable-background:new 0 0 270 270;" xml:space="preserve">
<style type="text/css">
	.st0{fill:none;stroke:#000000;stroke-width:9;stroke-linecap:round;stroke-linejoin:round;stroke-miterlimit:10;}
	.st1{fill:none;stroke:#000000;stroke-width:6;stroke-linecap:round;stroke-linejoin:round;stroke-miterlimit:10;}
</style>
<g>
	<path d="M230.3,205.8c1.9,0,3.4-1.5,3.4-3.4V62.3c0-13.2-10.7-23.9-23.8-23.9h-29.9c-1.9,0-3.4,1.5-3.4,3.4V49h-81V34.7H119
		c1.9,0,3.4-1.5,3.4-3.4V9.5h27.2v21.7c0,1.9,1.5,3.4,3.4,3.4h10.6c1.9,0,3.4-1.5,3.4-3.4s-1.5-3.4-3.4-3.4h-7.2V6.1
		c0-1.9-1.5-3.4-3.4-3.4h-34c-1.9,0-3.4,1.5-3.4,3.4v21.7H92.1c-1.9,0-3.4,1.5-3.4,3.4v7.2H60.5c-13.2,0-23.9,10.7-23.9,23.9v183.2
		c0,13.2,10.7,23.9,23.9,23.9h149.3c13.1,0,23.8-10.7,23.8-23.9v-8.8c0-1.9-1.5-3.4-3.4-3.4s-3.4,1.5-3.4,3.4v8.8
		c0,9.4-7.6,17-17,17H60.5c-9.4,0-17-7.6-17-17V62.3c0-9.4,7.6-17,17-17h28.1v7.2c0,1.9,1.5,3.4,3.4,3.4h87.8c1.9,0,3.4-1.5,3.4-3.4
		v-7.2h26.5c9.4,0,17,7.6,17,17v140.1C226.9,204.3,228.4,205.8,230.3,205.8z"/>
	<g>
		<path d="M163.1,90.5H150V77.4c0-6.3-5.1-11.3-11.3-11.3h-6.9c-6.3,0-11.3,5.1-11.3,11.3v13.1h-13.1c-6.3,0-11.3,5.1-11.3,11.3v6.9
			c0,6.3,5.1,11.3,11.3,11.3h13.1v13.1c0,6.3,5.1,11.3,11.3,11.3h6.9c6.3,0,11.3-5.1,11.3-11.3v-15.9c0-1.5-1.2-2.8-2.8-2.8
			s-2.8,1.2-2.8,2.8v15.9c0,3.2-2.6,5.8-5.8,5.8h-6.9c-3.2,0-5.8-2.6-5.8-5.8v-15.9c0-1.5-1.2-2.8-2.8-2.8h-15.9
			c-3.2,0-5.8-2.6-5.8-5.8v-6.9c0-3.2,2.6-5.8,5.8-5.8h15.9c1.5,0,2.8-1.2,2.8-2.8V77.4c0-3.2,2.6-5.8,5.8-5.8h6.9
			c3.2,0,5.8,2.6,5.8,5.8v15.9c0,1.5,1.2,2.8,2.8,2.8h15.9c3.2,0,5.8,2.6,5.8,5.8v6.9c0,3.2-2.6,5.8-5.8,5.8h-8.5
			c-1.5,0-2.8,1.2-2.8,2.8c0,1.5,1.2,2.8,2.8,2.8h8.5c6.3,0,11.3-5.1,11.3-11.3v-6.9C174.5,95.6,169.4,90.5,163.1,90.5z"/>
	</g>
	<g>
		<g>
			<g>
				<path d="M79.4,178c-5.6,0-10.2-4.6-10.2-10.2c0-5.6,4.6-10.2,10.2-10.2c5.6,0,10.2,4.6,10.2,10.2C89.6,173.4,85.1,178,79.4,178z
					 M79.4,162c-3.2,0-5.9,2.6-5.9,5.8c0,3.2,2.6,5.8,5.9,5.8c3.2,0,5.8-2.6,5.8-5.8C85.3,164.6,82.7,162,79.4,162z"/>
			</g>
		</g>
		<g>
			<g>
				<path d="M79.4,240.8c-5.6,0-10.2-4.6-10.2-10.2c0-5.6,4.6-10.2,10.2-10.2c5.6,0,10.2,4.6,10.2,10.2
					C89.6,236.2,85.1,240.8,79.4,240.8z M79.4,224.7c-3.2,0-5.9,2.6-5.9,5.8c0,3.2,2.6,5.8,5.9,5.8c3.2,0,5.8-2.6,5.8-5.8
					C85.3,227.4,82.7,224.7,79.4,224.7z"/>
			</g>
		</g>
		<g>
			<g>
				<path d="M79.4,209.4c-5.6,0-10.2-4.6-10.2-10.2c0-5.6,4.6-10.2,10.2-10.2c5.6,0,10.2,4.6,10.2,10.2
					C89.6,204.8,85.1,209.4,79.4,209.4z M79.4,193.4c-3.2,0-5.9,2.6-5.9,5.8c0,3.2,2.6,5.8,5.9,5.8c3.2,0,5.8-2.6,5.8-5.8
					C85.3,196,82.7,193.4,79.4,193.4z"/>
			</g>
		</g>
		<g>
			<path d="M201.2,171.4H104c-1.9,0-3.4-1.5-3.4-3.4c0-1.9,1.5-3.4,3.4-3.4h97.1c1.9,0,3.4,1.5,3.4,3.4
				C204.6,169.9,203.1,171.4,201.2,171.4z"/>
		</g>
		<g>
			<path d="M201.2,202.5H104c-1.9,0-3.4-1.5-3.4-3.4c0-1.9,1.5-3.4,3.4-3.4h97.1c1.9,0,3.4,1.5,3.4,3.4
				C204.6,201,203.1,202.5,201.2,202.5z"/>
		</g>
		<g>
			<path d="M201.2,233.6H104c-1.9,0-3.4-1.5-3.4-3.4c0-1.9,1.5-3.4,3.4-3.4h97.1c1.9,0,3.4,1.5,3.4,3.4
				C204.6,232,203.1,233.6,201.2,233.6z"/>
		</g>
	</g>
</g>
</svg>
