<?xml version="1.0" encoding="utf-8"?>
<!-- Generator: Adobe Illustrator 23.0.2, SVG Export Plug-In . SVG Version: 6.00 Build 0)  -->
<svg version="1.1" id="Camada_1" xmlns="http://www.w3.org/2000/svg" xmlns:xlink="http://www.w3.org/1999/xlink" x="0px" y="0px"
	 viewBox="0 0 270 270" style="enable-background:new 0 0 270 270;" xml:space="preserve">
<style type="text/css">
	.st0{fill:none;stroke:#000000;stroke-width:9;stroke-linecap:round;stroke-linejoin:round;stroke-miterlimit:10;}
	.st1{fill:none;stroke:#000000;stroke-width:6;stroke-linecap:round;stroke-linejoin:round;stroke-miterlimit:10;}
</style>
<path d="M242.9,51.2H70.5c-5.7,0-10.3,4.6-10.3,10.3v154.1c0,1.8-1.5,3.3-3.3,3.3H24.5c-1.8,0-3.3-1.5-3.3-3.3V94.5
	c0-1.8,1.5-3.3,3.3-3.3h19.2c1.9,0,3.5-1.6,3.5-3.5s-1.6-3.5-3.5-3.5H24.5c-5.7,0-10.3,4.6-10.3,10.3v121.1
	c0,5.7,4.6,10.3,10.3,10.3h32.3c5.7,0,10.3-4.6,10.3-10.3V61.5c0-1.8,1.5-3.3,3.3-3.3h172.3c1.8,0,3.3,1.5,3.3,3.3v154.3
	c0,1.8-1.5,3.3-3.3,3.3H80.7c-1.9,0-3.5,1.6-3.5,3.5s1.6,3.5,3.5,3.5h162.2c5.7,0,10.3-4.6,10.3-10.3V61.5
	C253.2,55.8,248.6,51.2,242.9,51.2z"/>
<path d="M219.2,125.7H184c-1.9,0-3.5,1.6-3.5,3.5c0,1.9,1.6,3.5,3.5,3.5h35.2c5.8,0,10.5-4.7,10.5-10.5V86.2
	c0-5.8-4.7-10.5-10.5-10.5h-45.1c-5.8,0-10.5,4.7-10.5,10.5v36.1c0,1.9,1.6,3.5,3.5,3.5s3.5-1.6,3.5-3.5V86.2c0-1.9,1.6-3.5,3.5-3.5
	h45.1c1.9,0,3.5,1.6,3.5,3.5v36.1C222.7,124.1,221.1,125.7,219.2,125.7z"/>
<path d="M87.2,112.7h48c1.9,0,3.5-1.6,3.5-3.5s-1.6-3.5-3.5-3.5h-48c-1.9,0-3.5,1.6-3.5,3.5S85.3,112.7,87.2,112.7z"/>
<path d="M87.2,132.7h48c1.9,0,3.5-1.6,3.5-3.5c0-1.9-1.6-3.5-3.5-3.5h-48c-1.9,0-3.5,1.6-3.5,3.5C83.7,131.1,85.3,132.7,87.2,132.7z
	"/>
<path d="M87.2,157.7h139c1.9,0,3.5-1.6,3.5-3.5s-1.6-3.5-3.5-3.5h-139c-1.9,0-3.5,1.6-3.5,3.5S85.3,157.7,87.2,157.7z"/>
<path d="M87.2,179.7h139c1.9,0,3.5-1.6,3.5-3.5s-1.6-3.5-3.5-3.5h-139c-1.9,0-3.5,1.6-3.5,3.5S85.3,179.7,87.2,179.7z"/>
<path d="M87.2,201.7h139c1.9,0,3.5-1.6,3.5-3.5s-1.6-3.5-3.5-3.5h-139c-1.9,0-3.5,1.6-3.5,3.5S85.3,201.7,87.2,201.7z"/>
</svg>
