<?xml version="1.0" encoding="utf-8"?>
<!-- Generator: Adobe Illustrator 23.0.2, SVG Export Plug-In . SVG Version: 6.00 Build 0)  -->
<svg version="1.1" id="Camada_1" xmlns="http://www.w3.org/2000/svg" xmlns:xlink="http://www.w3.org/1999/xlink" x="0px" y="0px"
	 viewBox="0 0 270 270" style="enable-background:new 0 0 270 270;" xml:space="preserve">
<style type="text/css">
	.st0{fill:none;stroke:#000000;stroke-width:9;stroke-linecap:round;stroke-linejoin:round;stroke-miterlimit:10;}
	.st1{fill:none;stroke:#000000;stroke-width:6;stroke-linecap:round;stroke-linejoin:round;stroke-miterlimit:10;}
</style>
<path d="M237.6,157c0,0-45.9-10.6-54.1-12.5c-7.7-1.8-14.9-2.6-18.7,7.1c-0.9,2.2-6.6,9.7-11.7,16.2c-5.6,7.2-11.3,14.6-15,20.4
	c-3.7-5.8-9.4-13.2-14.9-20.3c-5.1-6.6-10.8-14-11.7-16.2c-3.8-9.7-11-8.9-18.7-7.1c-8.2,1.9-54.1,12.5-54.1,12.5
	c-9.1,2.1-15.5,10.9-15.1,20.8l3.6,89.2c0.1,1.9,1.6,3.4,3.5,3.4c0,0,0.1,0,0.1,0c1.9-0.1,3.4-1.7,3.4-3.6l-3.6-89.2
	c-0.3-6.6,3.8-12.4,9.6-13.7c0,0,45.9-10.6,54.1-12.5c6.7-1.6,8.8-1.8,10.6,2.9c1.2,3,5.6,8.8,12.6,17.9c6.7,8.6,15,19.4,17.3,24.6
	c0.6,1.3,1.8,2.1,3.2,2.1c0,0,0,0,0,0c1.4,0,2.6-0.8,3.2-2.1c2.3-5.2,10.6-16,17.3-24.7c7-9.1,11.4-14.9,12.6-17.9
	c1.9-4.7,3.9-4.5,10.6-2.9c8.2,1.9,54.1,12.5,54.1,12.5c5.9,1.4,9.9,7.1,9.7,13.7l-3.6,89.2c-0.1,1.9,1.4,3.6,3.4,3.6
	c1.9,0.1,3.6-1.4,3.6-3.4l3.6-89.2C253.1,167.8,246.7,159.1,237.6,157z"/>
<path d="M138.2,136.6c14.9,0,29.9-8.4,41.1-23.1c10.8-14.1,17-32.2,17-49.7c0-37-24.4-63.9-58.1-63.9c-33.6,0-58.1,26.9-58.1,63.9
	c0,17.5,6.2,35.6,17,49.7C108.3,128.2,123.3,136.6,138.2,136.6z M138.2,6.9c29.6,0,51.1,23.9,51.1,56.9c0,33.8-24.8,65.8-51.1,65.8
	c-26.3,0-51.1-32-51.1-65.8C87.1,30.8,108.6,6.9,138.2,6.9z"/>
</svg>
