<?xml version="1.0" encoding="utf-8"?>
<!-- Generator: Adobe Illustrator 23.0.2, SVG Export Plug-In . SVG Version: 6.00 Build 0)  -->
<svg version="1.1" id="Camada_1" xmlns="http://www.w3.org/2000/svg" xmlns:xlink="http://www.w3.org/1999/xlink" x="0px" y="0px"
	 viewBox="0 0 270 270" style="enable-background:new 0 0 270 270;" xml:space="preserve">
<style type="text/css">
	.st0{fill:none;stroke:#000000;stroke-width:9;stroke-linecap:round;stroke-linejoin:round;stroke-miterlimit:10;}
	.st1{fill:none;stroke:#000000;stroke-width:6;stroke-linecap:round;stroke-linejoin:round;stroke-miterlimit:10;}
</style>
<g>
	<path d="M244.2,234.7h-217c-12.4,0-22.5-10.1-22.5-22.5V77.8c0-12.4,10.1-22.5,22.5-22.5h217c12.4,0,22.5,10.1,22.5,22.5v99.1
		c0,2.2-1.8,4-4,4s-4-1.8-4-4V77.8c0-8-6.5-14.5-14.5-14.5h-217c-8,0-14.5,6.5-14.5,14.5v134.4c0,8,6.5,14.5,14.5,14.5h217
		c8,0,14.5-6.5,14.5-14.5c0-2.2,1.8-4,4-4s4,1.8,4,4C266.7,224.6,256.6,234.7,244.2,234.7z"/>
</g>
<g>
	<path d="M136,153.8c-4.2,0-8.4-1-12.1-3.1L22.1,95c-1.9-1.1-2.6-3.5-1.6-5.4C21.6,87.7,24,87,26,88l101.7,55.7
		c5.2,2.9,11.7,2.8,16.9-0.2l96.6-55.4c1.9-1.1,4.4-0.4,5.5,1.5c1.1,1.9,0.4,4.4-1.5,5.5l-96.6,55.4
		C144.7,152.7,140.3,153.8,136,153.8z"/>
</g>
</svg>
