<?xml version="1.0" encoding="utf-8"?>
<!-- Generator: Adobe Illustrator 23.0.2, SVG Export Plug-In . SVG Version: 6.00 Build 0)  -->
<svg version="1.1" id="Camada_1" xmlns="http://www.w3.org/2000/svg" xmlns:xlink="http://www.w3.org/1999/xlink" x="0px" y="0px"
	 viewBox="0 0 270 270" style="enable-background:new 0 0 270 270;" xml:space="preserve">
<style type="text/css">
	.st0{fill:none;stroke:#000000;stroke-width:9;stroke-linecap:round;stroke-linejoin:round;stroke-miterlimit:10;}
	.st1{fill:none;stroke:#000000;stroke-width:6;stroke-linecap:round;stroke-linejoin:round;stroke-miterlimit:10;}
</style>
<g>
	<g>
		<path d="M190.9,131.1h-51.5V79.6c0-2.5-2-4.5-4.5-4.5s-4.5,2-4.5,4.5v51.5H78.9c-2.5,0-4.5,2-4.5,4.5s2,4.5,4.5,4.5h51.5v51.5
			c0,2.5,2,4.5,4.5,4.5s4.5-2,4.5-4.5v-51.5h51.5c2.5,0,4.5-2,4.5-4.5S193.4,131.1,190.9,131.1z"/>
	</g>
	<g>
		<g>
			<path d="M134.9,269.2c-73.7,0-133.6-59.9-133.6-133.6S61.2,2,134.9,2s133.6,59.9,133.6,133.6c0,24.4-6.6,48.2-19.2,69
				c-1.3,2.1-4,2.8-6.1,1.5c-2.1-1.3-2.8-4-1.5-6.1c11.7-19.4,17.9-41.6,17.9-64.4c0-68.8-55.9-124.7-124.7-124.7
				S10.2,66.8,10.2,135.6s55.9,124.7,124.7,124.7c26.1,0,51-8,72.2-23c2-1.4,4.8-1,6.2,1.1c1.4,2,1,4.8-1.1,6.2
				C189.6,260.7,162.8,269.2,134.9,269.2z"/>
		</g>
	</g>
</g>
</svg>
