<?xml version="1.0" encoding="utf-8"?>
<!-- Generator: Adobe Illustrator 23.0.2, SVG Export Plug-In . SVG Version: 6.00 Build 0)  -->
<svg version="1.1" id="Camada_1" xmlns="http://www.w3.org/2000/svg" xmlns:xlink="http://www.w3.org/1999/xlink" x="0px" y="0px"
	 viewBox="0 0 270 270" style="enable-background:new 0 0 270 270;" xml:space="preserve">
<style type="text/css">
	.st0{fill:none;stroke:#000000;stroke-width:9;stroke-linecap:round;stroke-linejoin:round;stroke-miterlimit:10;}
	.st1{fill:none;stroke:#000000;stroke-width:6;stroke-linecap:round;stroke-linejoin:round;stroke-miterlimit:10;}
</style>
<path d="M104.4,170.2h19.9V190c0,1.9,1.6,3.5,3.5,3.5h25.9c1.9,0,3.5-1.6,3.5-3.5v-10.2c0-1.9-1.6-3.5-3.5-3.5s-3.5,1.6-3.5,3.5v6.7
	h-18.9v-19.8c0-1.9-1.6-3.5-3.5-3.5h-19.9v-18.9h19.9c1.9,0,3.5-1.6,3.5-3.5v-19.9h18.9v19.9c0,1.9,1.6,3.5,3.5,3.5h19.8v18.9h-19.8
	c-1.9,0-3.5,1.6-3.5,3.5s1.6,3.5,3.5,3.5H177c1.9,0,3.5-1.6,3.5-3.5v-25.9c0-1.9-1.6-3.5-3.5-3.5h-19.8v-19.9c0-1.9-1.6-3.5-3.5-3.5
	h-25.9c-1.9,0-3.5,1.6-3.5,3.5v19.9h-19.9c-1.9,0-3.5,1.6-3.5,3.5v25.9C100.9,168.6,102.4,170.2,104.4,170.2z"/>
<path d="M215.7,73.5h-27.5V49c0-5.7-4.6-10.3-10.3-10.3h-74.8c-5.7,0-10.3,4.6-10.3,10.3v24.5H54.5c-21.8,0-39.5,17.7-39.5,39.4
	v88.9c0,21.8,17.7,39.4,39.4,39.4h195.8c1.9,0,3.5-1.6,3.5-3.5s-1.6-3.5-3.5-3.5H54.5c-17.9,0-32.4-14.6-32.4-32.4V113
	c0-17.9,14.6-32.4,32.5-32.4h41.7c1.9,0,3.5-1.6,3.5-3.5V49c0-1.8,1.5-3.3,3.3-3.3h74.8c1.8,0,3.3,1.5,3.3,3.3v28
	c0,1.9,1.6,3.5,3.5,3.5h31c17.9,0,32.4,14.5,32.4,32.4v88.9c0,1.9,1.6,3.5,3.5,3.5s3.5-1.6,3.5-3.5V113
	C255.2,91.2,237.5,73.5,215.7,73.5z"/>
<path d="M164.9,80.5c1.9,0,3.5-1.6,3.5-3.5V59.4c0-1.9-1.6-3.5-3.5-3.5h-48.8c-1.9,0-3.5,1.6-3.5,3.5V77c0,1.9,1.6,3.5,3.5,3.5
	H164.9z M119.6,62.9h41.8v10.6h-41.8V62.9z"/>
<path d="M81.5,154.5c0,32.1,26.1,58.3,58.3,58.3c32.1,0,58.2-26.1,58.2-58.3c0-32.1-26.1-58.2-58.2-58.2
	C107.6,96.3,81.5,122.4,81.5,154.5z M139.8,103.3c28.3,0,51.2,23,51.2,51.2c0,28.3-23,51.3-51.2,51.3c-28.3,0-51.3-23-51.3-51.3
	C88.5,126.3,111.5,103.3,139.8,103.3z"/>
</svg>
