<?xml version="1.0" encoding="utf-8"?>
<!-- Generator: Adobe Illustrator 23.0.2, SVG Export Plug-In . SVG Version: 6.00 Build 0)  -->
<svg version="1.1" id="Camada_1" xmlns="http://www.w3.org/2000/svg" xmlns:xlink="http://www.w3.org/1999/xlink" x="0px" y="0px"
	 viewBox="0 0 270 270" style="enable-background:new 0 0 270 270;" xml:space="preserve">
<style type="text/css">
	.st0{fill:none;stroke:#000000;stroke-width:9;stroke-linecap:round;stroke-linejoin:round;stroke-miterlimit:10;}
	.st1{fill:none;stroke:#000000;stroke-width:6;stroke-linecap:round;stroke-linejoin:round;stroke-miterlimit:10;}
</style>
<rect x="13.7" y="44.7" width="23.4" height="115.5"/>
<rect x="13.7" y="170.7" width="17" height="14"/>
<rect x="46.8" y="170.7" width="16.9" height="14"/>
<rect x="73.3" y="170.7" width="11.7" height="14"/>
<rect x="46.8" y="44.7" width="16.9" height="115.5"/>
<rect x="184" y="44.7" width="11.7" height="70"/>
<rect x="73.3" y="44.7" width="11.7" height="115.5"/>
<rect x="108.4" y="44.7" width="11.7" height="92"/>
<rect x="129.4" y="44.7" width="11.7" height="92"/>
<rect x="150.1" y="44.7" width="11.7" height="92"/>
<rect x="93.7" y="44.7" width="6.8" height="115.5"/>
<rect x="167.7" y="44.7" width="5.8" height="70"/>
<path d="M263.9,116.6l-90.2,90.2c-0.3,0.3-0.5,0.6-0.6,0.9l-25.2,25.2l-47.3-47.5L124,162l21.4,21.4c1.4,1.4,3.6,1.4,4.9,0
	l69.9-69.8l15.1,15.7c1.3,1.4,3.6,1.4,4.9,0.1c1.4-1.3,1.4-3.6,0.1-4.9l-17.5-18.2c-0.7-0.7-1.5-1.1-2.5-1.1c0,0,0,0,0,0
	c-0.9,0-1.8,0.4-2.5,1L147.8,176l-21.4-21.4c-1.4-1.4-3.6-1.4-4.9,0l-28.4,28.4c-1.4,1.4-1.4,3.6,0,4.9l52.1,52.4
	c0.7,0.7,1.5,1,2.5,1c0,0,0.1,0,0.1,0c0,0,0.1,0,0.1,0c0.9,0,1.8-0.4,2.5-1l28.4-28.4c0.3-0.3,0.5-0.6,0.6-0.9l89.4-89.4
	c1.4-1.4,1.4-3.6,0-4.9C267.5,115.3,265.3,115.3,263.9,116.6z"/>
</svg>
