<?xml version="1.0" encoding="utf-8"?>
<!-- Generator: Adobe Illustrator 23.0.2, SVG Export Plug-In . SVG Version: 6.00 Build 0)  -->
<svg version="1.1" id="Camada_1" xmlns="http://www.w3.org/2000/svg" xmlns:xlink="http://www.w3.org/1999/xlink" x="0px" y="0px"
	 viewBox="0 0 270 270" style="enable-background:new 0 0 270 270;" xml:space="preserve">
<style type="text/css">
	.st0{fill:none;stroke:#000000;stroke-width:9;stroke-linecap:round;stroke-linejoin:round;stroke-miterlimit:10;}
	.st1{fill:none;stroke:#000000;stroke-width:6;stroke-linecap:round;stroke-linejoin:round;stroke-miterlimit:10;}
</style>
<path d="M157.5,171.1c1.2,1.5,3.4,1.8,4.9,0.6s1.8-3.4,0.6-4.9c-13.7-17.7-29.4-21.2-30.1-21.3l-14.7-3.1c-1.1-0.2-2.3,0.1-3.1,0.9
	L96.5,161l-19.1-17.8c-0.9-0.8-2.1-1.1-3.2-0.8l-14,3.5c-19.3,3.5-33.3,19.4-40.4,46c-5.2,19.6-5,37.9-4.9,38.6v16.3
	c0,1.9,1.6,3.5,3.5,3.5s3.5-1.6,3.5-3.5l0-16.4c0-0.7-0.8-70.5,39.7-77.6c0.1,0,0.2,0,0.2-0.1l12.2-3l20.1,18.7
	c1.4,1.3,3.5,1.2,4.8,0l19.6-18.8l12.9,2.7C131.6,152.4,145.4,155.6,157.5,171.1z"/>
<path d="M82.1,80.5c8.4,2.7,21.9,4,38.7-4.5c1.7-0.9,2.4-3,1.5-4.7c-0.9-1.7-3-2.4-4.7-1.5c-26.8,13.7-43.3-0.7-45-2.3
	c-0.2-0.2-0.4-0.4-0.7-0.6c-1.4-0.9-3.2-0.7-4.4,0.4c-3.9,3.8-5.9,9.3-6,9.6c-0.1,0.4-0.2,0.8-0.2,1.2c0,0.7,0.4,17.2,2,27.4
	c2.1,13.8,11.6,40.1,32.6,41.2c0.1,0,0.1,0,0.2,0c0.1,0,0.2,0,0.3,0c14.5-1.1,32.9-17.6,32.9-34.6c0-1.9-1.6-3.5-3.5-3.5
	s-3.5,1.6-3.5,3.5c0,12.9-15,26.6-26.2,27.6c-15.1-1-23.7-21.6-25.8-35.2c-1.3-8.6-1.8-22.5-1.9-25.8c0.3-0.8,1-2.4,2.1-3.9
	C72.9,76.5,76.8,78.9,82.1,80.5z"/>
<path d="M42.1,139.2c5.5,2.9,10,5,14.9,5c3.4,0,7.1-1,11.5-3.6c1.7-1,2.2-3.1,1.3-4.8s-3.1-2.2-4.8-1.3c-6.2,3.6-9.6,3.3-15.6,0.5
	C58.5,122.8,60,103.7,60,92.7c0-23.1,4.4-44.4,36.5-44.4c20.7,0,34.6,13.6,34.6,33.9c0,0.4,0.1,38.7,9.9,52.2
	c-7.1,3.4-14.3,2.4-16.5,1.2c-1.7-1-3.8-0.4-4.8,1.3c-1,1.7-0.4,3.8,1.3,4.8c5.3,3.1,17.9,3.4,27.8-3.8c1-0.7,1.5-1.9,1.4-3.1
	c-0.1-1.2-0.8-2.3-1.9-2.8c-6.7-3.4-10.2-34.1-10.2-49.6c0-24.1-17.1-40.9-41.6-40.9C58,41.3,53,68.8,53,92.7
	c0,19.1-4.2,33.6-11.7,40.9c-0.8,0.8-1.2,1.9-1,3C40.4,137.7,41.1,138.7,42.1,139.2z"/>
<path d="M254.4,245.3c-0.1-2.2-0.5-8-2.1-18c-1.5-9.3-4.2-18.1-8.3-26.9c-8.8-18.9-26.7-22.4-27.4-22.5l-10.4-2.2
	c-1.1-0.2-2.3,0.1-3.1,0.9l-12.4,11.9L178,176.6c-0.9-0.8-2.1-1.1-3.2-0.8l-9.8,2.4c-15.5,2.8-26.8,15.3-32.8,36.1
	c-4.4,15.2-4.5,29.3-4.5,29.9v2.3c0,1.9,1.6,3.5,3.5,3.5s3.5-1.6,3.5-3.5v-2.3c0-0.5,0.4-53.5,31.6-59.1c0.1,0,0.1,0,0.2,0l8.1-2
	l13.8,12.8c1.4,1.3,3.5,1.2,4.8,0l13.4-12.9l8.7,1.8c0.1,0,15.1,3,22.4,18.6c3.8,8.2,6.3,16.3,7.7,25c1.5,9.6,1.9,15.2,2,17.3
	c0.1,1.3,0.1,2.1,0.9,3c0.7,0.9,1.7,1.3,2.7,1.3c0.8,0,1.6-0.3,2.2-0.8c1-0.8,1.5-2.1,1.2-3.4C254.4,245.8,254.4,245.6,254.4,245.3z
	"/>
<path d="M165.4,155.1c0,0,0,0.1,0,0.1c1.6,7.3,5.4,13,6,13.9c4.5,7.3,13.7,10.4,18.4,11.1c0.2,0,0.3,0,0.5,0c0.1,0,0.2,0,0.3,0
	c11.5-0.9,23.1-12.3,24.9-24.6c0.5-2.6,3.9-22.6-3.3-31.8c-2.2-2.8-5.3-4.4-9-4.6c-0.8,0-1.6,0.2-2.2,0.7c-4.3,3.1-9.6,4.1-15.8,2.7
	c-4.9-1.1-8.5-3.2-8.5-3.2c-1.4-0.8-3.1-0.6-4.2,0.4c0.9-1.6,1.9-3.1,3.2-4.5c4-4.2,9.3-6.3,13.5-7.3c-1,2.2-1.2,4-0.7,5.4
	c0.5,1.5,1.7,2.6,3.2,3.1c0.6,0.2,1.3,0.2,1.9,0c7.4-2.2,13.4-1.8,17.2,1.2c4.6,3.4,5.5,9.6,5.5,14.1c0,1.9,1.6,3.5,3.5,3.5
	s3.5-1.6,3.5-3.5c0-8.8-2.9-15.6-8.3-19.7c-3.4-2.5-9.1-4.9-18.2-3.5c0.6-0.9,1.3-1.9,2-2.8c0.8-1,1-2.5,0.4-3.7
	c-0.6-1.2-1.8-2-3.1-2c-0.6,0-15.8-0.1-25.6,10.3c-6,6.4-8.6,15.1-7.8,26.1C163.3,144.1,165.3,154.7,165.4,155.1z M171.4,122.3
	c0,1.2,0.6,2.4,1.7,3.1c0.7,0.4,16.8,10.1,30.9,1c1.1,0.3,2,0.9,2.8,1.8c4,5.1,3.3,18.8,1.9,26.2c0,0.1,0,0.1,0,0.2
	c-1.4,9.8-10.6,17.9-18.1,18.6c-3.9-0.7-10.3-3.2-13.1-7.8c0-0.1-0.1-0.1-0.1-0.2c0,0-3.5-5-4.9-11.4c-0.2-0.8-2-10.8-2.5-17.7
	C169.4,130.8,169.9,126.2,171.4,122.3z"/>
</svg>
