<?xml version="1.0" encoding="utf-8"?>
<!-- Generator: Adobe Illustrator 23.0.2, SVG Export Plug-In . SVG Version: 6.00 Build 0)  -->
<svg version="1.1" id="Camada_1" xmlns="http://www.w3.org/2000/svg" xmlns:xlink="http://www.w3.org/1999/xlink" x="0px" y="0px"
	 viewBox="0 0 270 270" style="enable-background:new 0 0 270 270;" xml:space="preserve">
<style type="text/css">
	.st0{fill:none;stroke:#000000;stroke-width:9;stroke-linecap:round;stroke-linejoin:round;stroke-miterlimit:10;}
	.st1{fill:none;stroke:#000000;stroke-width:6;stroke-linecap:round;stroke-linejoin:round;stroke-miterlimit:10;}
</style>
<g>
	<g>
		<path d="M133.5,88.3c-8.4,0-17.1-3.4-22.8-11c-9.5-12.7-7-30.7,5.6-40.3c6.1-4.6,13.7-6.6,21.3-5.5c7.6,1.1,14.3,5,19,11.2
			c7.5,10,5.5,21.6,5.3,22.9c-0.5,2.7-3.2,4.5-5.9,3.9c-2.7-0.5-4.5-3.2-3.9-5.9c0-0.1,1.6-8.3-3.4-14.9c-3-4-7.4-6.6-12.4-7.3
			c-5-0.7-9.9,0.6-13.9,3.6c-8.3,6.2-9.9,18-3.7,26.3c7.2,9.5,19.9,8.2,26.4,3.6c2.2-1.6,5.4-1.1,7,1.2s1.1,5.4-1.2,7
			C146,86.4,139.8,88.3,133.5,88.3z"/>
	</g>
	<g>
		<path d="M133.6,166.8c-15.9,0-28.8-12.9-28.8-28.8s12.9-28.8,28.8-28.8s28.8,12.9,28.8,28.8S149.5,166.8,133.6,166.8z
			 M133.6,119.3c-10.3,0-18.8,8.4-18.8,18.8s8.4,18.8,18.8,18.8s18.8-8.4,18.8-18.8S144,119.3,133.6,119.3z"/>
	</g>
	<g>
		<path d="M133.6,245c-15.9,0-28.8-12.9-28.8-28.8s12.9-28.8,28.8-28.8s28.8,12.9,28.8,28.8S149.5,245,133.6,245z M133.6,197.5
			c-10.3,0-18.8,8.4-18.8,18.8s8.4,18.8,18.8,18.8s18.8-8.4,18.8-18.8S144,197.5,133.6,197.5z"/>
	</g>
</g>
</svg>
