<?xml version="1.0" encoding="utf-8"?>
<!-- Generator: Adobe Illustrator 23.0.2, SVG Export Plug-In . SVG Version: 6.00 Build 0)  -->
<svg version="1.1" id="Camada_1" xmlns="http://www.w3.org/2000/svg" xmlns:xlink="http://www.w3.org/1999/xlink" x="0px" y="0px"
	 viewBox="0 0 270 270" style="enable-background:new 0 0 270 270;" xml:space="preserve">
<style type="text/css">
	.st0{fill:none;stroke:#000000;stroke-width:9;stroke-linecap:round;stroke-linejoin:round;stroke-miterlimit:10;}
	.st1{fill:none;stroke:#000000;stroke-width:6;stroke-linecap:round;stroke-linejoin:round;stroke-miterlimit:10;}
</style>
<path d="M242.6,136.3c-0.7-1.2-2-1.8-3.3-1.6c-1-0.1-2.1,0.2-2.9,1l-19.8,21.2c-1.3,1.4-1.2,3.5,0.2,4.8c0.7,0.6,1.5,0.9,2.3,0.9
	c0.9,0,1.8-0.4,2.5-1.1l14.5-15.5c-4.1,52-47.7,93-100.8,93c-23,0-45.5-7.9-63.4-22.3c-17.6-14.2-30.1-34.1-35.1-56
	c-0.6-2.8-1.2-5.6-1.6-8.4c-0.3-1.9-2-3.2-3.9-2.9c-1.9,0.3-3.2,2-2.9,3.9c0.4,3,1,6,1.7,9c5.4,23.4,18.7,44.6,37.5,59.8
	c19.1,15.4,43.1,23.8,67.7,23.8c55.8,0,101.8-42.5,107.3-96.8l9.2,14.9c1,1.6,3.1,2.1,4.7,1.1c1.6-1,2.1-3.1,1.1-4.7L242.6,136.3z"
	/>
<path d="M32.2,124.1c0.1,0,0.2,0,0.3,0c0.1,0,0.2,0,0.4-0.1c0.2,0,0.4,0.1,0.7,0.1c0.7,0,1.4-0.2,2-0.7l23.7-17.3
	c1.5-1.1,1.8-3.2,0.7-4.8c-1.1-1.5-3.2-1.8-4.8-0.7l-18.1,13.2c5-20.4,16.4-38.9,32.5-52.7C87.9,45.6,111.2,37,135.2,37
	c42.3,0,80.5,26.7,95,66.5c0.6,1.8,2.6,2.7,4.4,2c1.8-0.6,2.7-2.6,2-4.4c-15.5-42.5-56.2-71-101.4-71c-25.7,0-50.6,9.2-70.1,25.8
	C49,69.9,37.3,88.2,31.5,108.4l-6.1-17.5c-0.6-1.8-2.6-2.7-4.3-2.1c-1.8,0.6-2.7,2.6-2.1,4.3L29,121.9
	C29.4,123.2,30.7,124.1,32.2,124.1z"/>
<path d="M103.4,126.7c9.7,0,17.6-7.9,17.6-17.6s-7.9-17.6-17.6-17.6s-17.6,7.9-17.6,17.6S93.7,126.7,103.4,126.7z M103.4,98.3
	c6,0,10.8,4.8,10.8,10.8s-4.8,10.8-10.8,10.8s-10.8-4.8-10.8-10.8S97.4,98.3,103.4,98.3z"/>
<path d="M70,154.6v8.7c0,1.9,1.5,3.4,3.4,3.4h23.9c1.7,0,3.2-1.3,3.4-3.1c1.1-10.8,6-20.9,13.8-28.2c1.2-1.2,1.4-3,0.5-4.4
	c-1-1.4-2.8-1.9-4.3-1.1c-2.3,1.1-4.8,1.7-7.4,1.7c-4.8,0-9.5-2.1-12.7-5.7c-1.1-1.2-2.9-1.5-4.3-0.6C76.3,131.3,70,142.6,70,154.6z
	 M87.7,132.5c4.2,3.7,9.7,5.8,15.3,5.9c-4.4,6.4-7.4,13.7-8.7,21.5H76.8v-5.3C76.8,145.8,80.9,137.6,87.7,132.5z"/>
<path d="M150.8,126.4c12.3,0,22.3-10,22.3-22.3s-10-22.3-22.3-22.3c-12.3,0-22.3,10-22.3,22.3S138.5,126.4,150.8,126.4z M150.8,88.5
	c8.6,0,15.5,7,15.5,15.5s-7,15.5-15.5,15.5s-15.5-7-15.5-15.5S142.3,88.5,150.8,88.5z"/>
<path d="M134.7,175.6c-1.9,0-3.4,1.5-3.4,3.4s1.5,3.4,3.4,3.4h55.5c1.9,0,3.4-1.5,3.4-3.4v-10.7c0-17.2-9.6-33.1-24.6-40.5
	c-1.2-0.6-2.7-0.4-3.8,0.5c-4,3.6-9.2,5.6-14.5,5.6c-5.3,0-10.5-2-14.5-5.6c-1-0.9-2.5-1.1-3.8-0.5c-14.9,7.4-24.6,23.2-24.6,40.5
	V179c0,1.9,1.5,3.4,3.4,3.4s3.4-1.5,3.4-3.4v-10.7c0-13.9,7.3-26.7,18.9-33.3c5,3.7,11,5.8,17.2,5.8c6.2,0,12.2-2,17.2-5.8
	c11.5,6.6,18.9,19.4,18.9,33.3v7.3H134.7z"/>
</svg>
