<?xml version="1.0" encoding="utf-8"?>
<!-- Generator: Adobe Illustrator 23.0.2, SVG Export Plug-In . SVG Version: 6.00 Build 0)  -->
<svg version="1.1" id="Camada_1" xmlns="http://www.w3.org/2000/svg" xmlns:xlink="http://www.w3.org/1999/xlink" x="0px" y="0px"
	 viewBox="0 0 270 270" style="enable-background:new 0 0 270 270;" xml:space="preserve">
<style type="text/css">
	.st0{fill:none;stroke:#000000;stroke-width:9;stroke-linecap:round;stroke-linejoin:round;stroke-miterlimit:10;}
	.st1{fill:none;stroke:#000000;stroke-width:6;stroke-linecap:round;stroke-linejoin:round;stroke-miterlimit:10;}
</style>
<path d="M140.6,13.2c-0.2,1.9,1.2,3.6,3.2,3.8c11.9,1.1,20.8,4,26.6,8.5c5.5,4.3,8.1,10.2,8.1,17.9c0,0.5,0,1.2-0.1,2.1h-34.3V44
	c0-7.9-1.1-10.7-1.9-12.1c-1.6-2.8-4.7-4.2-9.1-4.2c-3.5,0-6.3,1.1-8.2,3.3c-1.8,2.1-2.8,5-2.8,8.6c0,5.8,1.8,10.1,5.3,12.6
	c1.7,1.3,6,3.9,22.8,11.3c10.2,4.5,17.2,7.9,20.8,10.2c3.3,2.1,6.1,5.1,8.5,9.1c2.3,3.9,3.4,8.9,3.4,14.8c0,9.6-3,16.9-9.3,22.3
	c-6.5,5.5-16.5,9-29.7,10.4c-1.8,0.2-3.1,1.7-3.1,3.5V145l-0.3,5.9c-0.1,1.9,1.4,3.6,3.3,3.7c0.1,0,0.1,0,0.2,0
	c1.8,0,3.4-1.4,3.5-3.3l0.4-6c0-0.1,0-0.1,0-0.2V137c13.2-1.7,23.4-5.6,30.4-11.7c7.8-6.7,11.8-16,11.8-27.6
	c0-7.2-1.5-13.4-4.4-18.4c-2.9-4.9-6.5-8.8-10.7-11.5c-4-2.5-11.1-6.1-21.8-10.7c-4.2-1.9-7.6-3.4-10.4-4.7h39
	c1.8,0,3.3-1.3,3.5-3.1c0.3-2.7,0.4-4.6,0.4-6c0-9.9-3.6-17.7-10.8-23.4c-6.8-5.4-17-8.7-30.3-10C142.5,9.8,140.8,11.3,140.6,13.2z
	 M131.5,46.7c-1.6-1.2-2.4-3.5-2.4-7c0-1.9,0.3-3.2,1-4c0.5-0.6,1.6-0.9,3-0.9c1.9,0,2.9,0.4,3.1,0.7c0.2,0.3,0.9,2,0.9,8.5V49
	c0,0.3,0,0.6,0.1,0.9C133.9,48.2,132.3,47.2,131.5,46.7z"/>
<path d="M98.5,74.5c4.6,2.8,13,6.9,25.7,12.7H84.3c-1.9,0-3.5,1.6-3.5,3.5v5.8c0,14.4,4.7,24.8,13.9,30.8c8.7,5.6,18.9,8.9,30.4,9.7
	c0.1,0,0.2,0,0.3,0c1.8,0,3.4-1.4,3.5-3.3c0.1-1.9-1.3-3.6-3.2-3.7c-10.3-0.7-19.4-3.6-27-8.6c-7.2-4.7-10.7-12.8-10.7-24.9v-2.3h34
	V98c0,11.3,0.8,14.6,1.6,16.3c1,2.3,3.4,5,9.4,5c3.7,0,6.6-1,8.7-3c2-2,3.1-4.9,3.1-8.5c0-7.2-0.7-12.4-2.2-15.7
	c-1.7-3.8-6.4-7.3-14.9-11.1c-12.3-5.6-20.8-9.8-25.2-12.4c-4-2.4-7.6-5.8-10.5-10.3c-2.9-4.3-4.3-9.1-4.3-14.5
	c0-7.8,2.9-13.7,9-18.1c6.4-4.6,16.3-7.6,29.4-8.7c1.8-0.2,3.2-1.7,3.2-3.5v-6h15.4c1.9,0,3.5-1.6,3.5-3.5s-1.6-3.5-3.5-3.5h-18.9
	c-1.9,0-3.5,1.6-3.5,3.5v6.3C108.9,11.8,98.9,15,92,20c-7.9,5.7-11.8,13.7-11.8,23.7c0,6.8,1.9,13,5.5,18.4
	C89.3,67.5,93.6,71.6,98.5,74.5z M135.8,94.9c0.7,1.7,1.6,5.2,1.6,12.9c0,1.7-0.3,2.9-1,3.5c-0.8,0.8-2.5,1-3.7,1
	c-0.6,0-2.6-0.1-2.9-0.8c-0.2-0.5-1-3.1-1-13.5v-7.3c0-0.5-0.1-1-0.3-1.4C134,92.2,135.4,94.1,135.8,94.9z"/>
<path d="M228.7,191.1c-0.2,0-0.4,0.1-0.5,0.2c-19.1,8-31,13-51.9,21.6l-17.1,7.1l-3.8-1.1c-11.2-3.1-19.4-5.4-27.7-7.7
	c5.1-0.2,11-0.3,18.9-0.6c0.1,0,0.2,0,0.2,0c4.5-0.2,8.7-2.1,11.7-5.4c3.1-3.3,4.8-7.7,4.6-12.3c-0.1-4.6-2.1-8.8-5.4-11.9
	c-2.9-2.7-6.7-4.3-10.7-4.5c-0.2,0-0.3-0.1-0.5-0.1c-22.6-0.6-22.6-0.6-67.9-1.9c-0.2,0-0.3,0-0.4,0c-6.6-0.1-13.2,2-18.4,5.7
	c-9.2,6.6-14.8,8.8-20.7,11.2c-6,2.4-12.1,4.8-21.9,11.8c-1.7,1.2-3.3,2.6-4.8,4.2c-1.2,1.3-1.2,3.4,0.1,4.6
	c1.3,1.2,3.4,1.2,4.6-0.1c1.2-1.3,2.5-2.4,3.9-3.4c9.1-6.5,14.7-8.7,20.5-11c6-2.4,12.2-4.9,22.1-11.9c4.3-3.1,9.5-4.7,14.8-4.5
	c0.2,0,0.3,0,0.5,0c44.2,1.2,44.9,1.2,66.6,1.9l0.4,0c0.1,0,0.3,0,0.5,0c2.7,0.1,5.1,1,6.9,2.8c2.1,2,3.3,4.6,3.4,7.4
	c0.1,2.8-0.9,5.5-2.9,7.6c-1.9,2-4.5,3.2-7.4,3.3l-0.1,0c-12.2,0.4-19.7,0.6-26.7,0.8l-1.1,0c-4,0.1-7.8,0.3-12.4,0.4
	c-1.6,0.1-2.9,1.3-3.1,2.9c-0.2,1.6,0.8,3.1,2.4,3.5c18.5,5.1,28.7,7.9,48.4,13.4l4.9,1.4c0.7,0.2,1.4,0.2,2.1-0.1l15.6-6.5
	c22.3-9.3,34.4-14.3,54-22.5c0.1,0,0.3-0.1,0.4-0.1c3.9-1.6,8.3-0.8,11.3,2c2.1,1.9,3.3,4.6,3.3,7.4s-0.9,5.5-2.9,7.6
	c-0.6,0.6-1.2,1.1-2,1.6c-0.2,0.1-0.4,0.3-0.6,0.4c-19.4,12.2-30.7,19.3-54.4,34.2l-14.7,9.2c-0.2,0.1-0.5,0.2-0.7,0.3
	c-3.4,2.2-7.6,3.1-11.6,2.6c-0.2,0-0.4,0-0.6,0l-28.6-3.8l-0.2,0c-17.6-2.4-30.6-4.1-64-8.6c-0.5-0.1-1,0-1.5,0.1l-15.7,5.4
	c-0.1,0-0.2,0.1-0.3,0.1c-8.7,3-18.1,1-24.8-5.2c-0.6-0.6-1.4-0.9-2.3-0.9c-0.9,0-1.7,0.4-2.3,1c-0.6,0.6-0.9,1.5-0.9,2.3
	c0,0.9,0.4,1.7,1,2.3c8.3,7.8,20.1,10.4,31,6.8c0.1,0,0.3-0.1,0.4-0.1l15.3-5.3c33,4.4,45.8,6.1,63.4,8.5l29.3,3.9
	c0.2,0,0.5,0,0.7,0c0.8,0.1,1.6,0.1,2.4,0.1c4.3,0,8.4-1.1,12.1-3.3c0.3-0.1,0.5-0.2,0.7-0.3l6.9-4.4c29.9-18.8,41.5-26.1,63.3-39.8
	c0.2-0.1,0.3-0.2,0.4-0.3c1.1-0.7,2.1-1.5,2.9-2.4c6.5-6.9,6.1-17.8-0.8-24.2C241.8,190.2,234.8,188.8,228.7,191.1z"/>
</svg>
