<?xml version="1.0" encoding="utf-8"?>
<!-- Generator: Adobe Illustrator 23.0.2, SVG Export Plug-In . SVG Version: 6.00 Build 0)  -->
<svg version="1.1" id="Camada_1" xmlns="http://www.w3.org/2000/svg" xmlns:xlink="http://www.w3.org/1999/xlink" x="0px" y="0px"
	 viewBox="0 0 270 270" style="enable-background:new 0 0 270 270;" xml:space="preserve">
<style type="text/css">
	.st0{fill:none;stroke:#000000;stroke-width:9;stroke-linecap:round;stroke-linejoin:round;stroke-miterlimit:10;}
	.st1{fill:none;stroke:#000000;stroke-width:6;stroke-linecap:round;stroke-linejoin:round;stroke-miterlimit:10;}
</style>
<g>
	<path d="M210.2,20.9H55.8c-22.5,0-40.8,18.3-40.8,40.8V162c0,22.5,18.3,40.8,40.8,40.8h75.9l33.6,45.5c0.7,0.9,1.7,1.4,2.8,1.4
		c1.1,0,2.2-0.5,2.8-1.4l33.6-45.5h5.8c7.1,0,14.2-1.9,20.4-5.5c1.7-1,2.2-3.1,1.3-4.8c-1-1.7-3.1-2.2-4.8-1.3
		c-5.1,3-10.9,4.5-16.9,4.5h-7.5c-1.1,0-2.2,0.5-2.8,1.4l-31.8,43.1l-31.8-43.1c-0.7-0.9-1.7-1.4-2.8-1.4H55.8
		c-18.6,0-33.8-15.1-33.8-33.8V61.7c0-18.6,15.1-33.8,33.8-33.8h154.4c18.6,0,33.8,15.1,33.8,33.8V162c0,1.9,1.6,3.5,3.5,3.5
		s3.5-1.6,3.5-3.5V61.7C251,39.2,232.7,20.9,210.2,20.9z"/>
	<path d="M205,73c0-1.9-1.6-3.5-3.5-3.5h-20.3c-1.9,0-3.5,1.6-3.5,3.5s1.6,3.5,3.5,3.5H198v9.4H67.3v-9.4h100.9
		c1.9,0,3.5-1.6,3.5-3.5s-1.6-3.5-3.5-3.5H63.8c-1.9,0-3.5,1.6-3.5,3.5v16.4c0,1.9,1.6,3.5,3.5,3.5h137.8c1.9,0,3.5-1.6,3.5-3.5V73z
		"/>
	<path d="M205,120.4V104c0-1.9-1.6-3.5-3.5-3.5h-84.3c-1.9,0-3.5,1.6-3.5,3.5s1.6,3.5,3.5,3.5H198v9.4H67.3v-9.4h35.9
		c1.9,0,3.5-1.6,3.5-3.5s-1.6-3.5-3.5-3.5H63.8c-1.9,0-3.5,1.6-3.5,3.5v16.4c0,1.9,1.6,3.5,3.5,3.5h137.8
		C203.5,123.9,205,122.4,205,120.4z"/>
	<path d="M124.2,138.5c1.9,0,3.5-1.6,3.5-3.5s-1.6-3.5-3.5-3.5H63.8c-1.9,0-3.5,1.6-3.5,3.5v16.4c0,1.9,1.6,3.5,3.5,3.5h97
		c1.9,0,3.5-1.6,3.5-3.5V135c0-1.9-1.6-3.5-3.5-3.5h-25.6c-1.9,0-3.5,1.6-3.5,3.5s1.6,3.5,3.5,3.5h22.1v9.4h-90v-9.4H124.2z"/>
</g>
</svg>
