<?xml version="1.0" encoding="utf-8"?>
<!-- Generator: Adobe Illustrator 23.0.2, SVG Export Plug-In . SVG Version: 6.00 Build 0)  -->
<svg version="1.1" id="Camada_1" xmlns="http://www.w3.org/2000/svg" xmlns:xlink="http://www.w3.org/1999/xlink" x="0px" y="0px"
	 viewBox="0 0 270 270" style="enable-background:new 0 0 270 270;" xml:space="preserve">
<style type="text/css">
	.st0{fill:none;stroke:#000000;stroke-width:9;stroke-linecap:round;stroke-linejoin:round;stroke-miterlimit:10;}
	.st1{fill:none;stroke:#000000;stroke-width:6;stroke-linecap:round;stroke-linejoin:round;stroke-miterlimit:10;}
</style>
<path d="M130.8,74.1h-23.7c-1.9,0-3.5,1.6-3.5,3.5s1.6,3.5,3.5,3.5h23.7c1.9,0,3.5-1.6,3.5-3.5S132.7,74.1,130.8,74.1z"/>
<path d="M130.8,123.5c1.9,0,3.5-1.6,3.5-3.5s-1.6-3.5-3.5-3.5h-23.7c-1.9,0-3.5,1.6-3.5,3.5s1.6,3.5,3.5,3.5H130.8z"/>
<path d="M107.1,166h23.7c1.9,0,3.5-1.6,3.5-3.5s-1.6-3.5-3.5-3.5h-23.7c-1.9,0-3.5,1.6-3.5,3.5S105.2,166,107.1,166z"/>
<path d="M107.1,208.5h23.7c1.9,0,3.5-1.6,3.5-3.5s-1.6-3.5-3.5-3.5h-23.7c-1.9,0-3.5,1.6-3.5,3.5S105.2,208.5,107.1,208.5z"/>
<path d="M51.5,229.1l25.4-71.5c0.6-1.8-0.3-3.8-2.1-4.5c-1.8-0.6-3.8,0.3-4.5,2.1l-25.3,71.3c-5.1,11.9-2.6,19.7,0.4,24
	c5.1,7.4,14.4,9.6,20.8,9.3c2.5,0.1,18.5,0.2,132.5,0.2c14.8,0,21.8-5.6,25-10.2c4.1-5.9,4.7-14.1,1.7-22
	c-2.9-7.6-33.5-85-33.8-85.8c-0.5-1.3-1.8-2.2-3.3-2.2l-109.8-0.1c0,0,0,0,0,0c-1.9,0-3.5,1.6-3.5,3.5c0,1.9,1.6,3.5,3.5,3.5
	l107.4,0.1c5,12.8,30.3,76.7,32.9,83.5c2.2,5.7,1.9,11.6-0.9,15.6c-3.2,4.7-9.9,7.2-19.2,7.2c-62.1,0-129.3,0-132.3-0.2
	c-0.1,0-0.3,0-0.4,0c-5,0.3-11.5-1.6-14.8-6.3c-2.9-4.2-2.8-10.2,0.3-17.4C51.4,229.3,51.4,229.2,51.5,229.1z"/>
<path d="M238.2,231.7L167.1,60.2V39.8c0-1.9-1.6-3.5-3.5-3.5s-3.5,1.6-3.5,3.5v21.1c0,0.5,0.1,0.9,0.3,1.3l71.3,172
	c1.7,6.7,0.4,13.5-3.9,19.1c-4.8,6.2-12.6,10-21,10H60.1c-8.2,0-15.7-3.7-20-9.9c-4.2-6.1-4.8-13.7-1.8-21.4L100.1,63
	c0.1-0.4,0.2-0.8,0.2-1.2v-37c0-1.9-1.6-3.5-3.5-3.5h-6.4c-3.8,0-6.9-3.1-6.9-6.8c0-3.8,3.1-6.8,6.9-6.8h80.7c3.8,0,6.9,3.1,6.9,6.8
	c0,3.8-3.1,6.8-6.9,6.8c-1.9,0-3.5,1.6-3.5,3.5s1.6,3.5,3.5,3.5c7.7,0,13.9-6.2,13.9-13.8c0-7.6-6.2-13.8-13.9-13.8H90.5
	c-7.7,0-13.9,6.2-13.9,13.8c0,7.6,6.2,13.8,13.9,13.8h2.9v32.9L31.9,229.3c-3.8,9.8-2.9,19.9,2.5,27.8c5.6,8.1,15.2,13,25.7,13
	h146.7c10.5,0,20.4-4.7,26.5-12.7c5.6-7.3,7.4-16.5,5-25.3C238.3,232,238.3,231.8,238.2,231.7z"/>
</svg>
