<?xml version="1.0" encoding="utf-8"?>
<!-- Generator: Adobe Illustrator 23.0.2, SVG Export Plug-In . SVG Version: 6.00 Build 0)  -->
<svg version="1.1" id="Camada_1" xmlns="http://www.w3.org/2000/svg" xmlns:xlink="http://www.w3.org/1999/xlink" x="0px" y="0px"
	 viewBox="0 0 270 270" style="enable-background:new 0 0 270 270;" xml:space="preserve">
<style type="text/css">
	.st0{fill:none;stroke:#000000;stroke-width:9;stroke-linecap:round;stroke-linejoin:round;stroke-miterlimit:10;}
	.st1{fill:none;stroke:#000000;stroke-width:6;stroke-linecap:round;stroke-linejoin:round;stroke-miterlimit:10;}
</style>
<path d="M87.4,132.8H27c-1.9,0-3.5,1.6-3.5,3.5s1.6,3.5,3.5,3.5h60.5c1.9,0,3.5-1.6,3.5-3.5S89.4,132.8,87.4,132.8z"/>
<path d="M27,166.3c-1.9,0-3.5,1.6-3.5,3.5c0,1.9,1.6,3.5,3.5,3.5h60.5c1.9,0,3.5-1.6,3.5-3.5c0-1.9-1.6-3.5-3.5-3.5H27z"/>
<path d="M141.4,64.3c0-1.9-1.6-3.5-3.5-3.5H27.1c-1.9,0-3.5,1.6-3.5,3.5s1.6,3.5,3.5,3.5h110.8C139.8,67.8,141.4,66.3,141.4,64.3z"
	/>
<path d="M107.1,100.3c0-1.9-1.6-3.5-3.5-3.5H27.1c-1.9,0-3.5,1.6-3.5,3.5c0,1.9,1.6,3.5,3.5,3.5h76.4
	C105.5,103.8,107.1,102.2,107.1,100.3z"/>
<path d="M27,209.2h62.3c1.9,0,3.5-1.6,3.5-3.5s-1.6-3.5-3.5-3.5H27c-1.9,0-3.5,1.6-3.5,3.5S25.1,209.2,27,209.2z"/>
<path d="M183.8,73.1v9.1c-16.9,1.8-30,6-38.9,12.4c-9.9,7.2-14.9,17.2-14.9,29.8c0,8.6,2.3,16.4,7,23.3c4.5,6.7,10,12,16.2,15.7
	c6,3.6,16.9,8.9,33.3,16.4c11.6,5.2,14.6,8.8,15.3,10.4c1,2.2,2.2,7,2.2,17.1c0,2.5-0.5,4.2-1.6,5.3c-1.1,1.1-2.9,1.6-5.5,1.6
	c-2.7,0-4.3-0.6-4.8-1.7c-0.4-0.9-1.3-4.5-1.3-17.9v-9.4c0-1.9-1.6-3.5-3.5-3.5h-53c-1.9,0-3.5,1.6-3.5,3.5v7.5
	c0,18.3,5.9,31.4,17.4,38.9c11,7.2,24.1,11.4,38.8,12.4c0.1,0,0.2,0,0.3,0c1.8,0,3.3-1.4,3.5-3.2c0.1-1.9-1.3-3.6-3.2-3.7
	c-13.5-1-25.4-4.8-35.5-11.3c-9.6-6.3-14.3-17.1-14.3-33.1v-4.1h46.1v6c0,14.5,1.1,18.7,1.9,20.7c1.2,2.7,4.1,5.8,11.1,5.8
	c4.5,0,8-1.2,10.4-3.6c2.4-2.4,3.6-5.8,3.6-10.2c0-9.2-0.9-15.7-2.8-19.9c-2.1-4.6-8-9-18.8-13.9c-16-7.3-27-12.7-32.6-16
	c-5.3-3.2-10-7.7-14-13.6c-3.8-5.7-5.8-12.2-5.8-19.4c0-10.4,3.9-18.3,12-24.2c8.4-6.1,21.4-10,38.6-11.4c1.8-0.2,3.2-1.7,3.2-3.5
	v-8.8h20.9c1.9,0,3.5-1.6,3.5-3.5c0-1.9-1.6-3.5-3.5-3.5h-24.4C185.4,69.6,183.8,71.2,183.8,73.1z"/>
<path d="M264.2,171.1c-3.6-6.2-8.2-11.1-13.5-14.5c-5.1-3.2-14.2-7.8-28-13.8c-19.3-8.5-25.9-12.2-28-13.7c-2.4-1.7-3.6-5-3.6-9.8
	c0-2.7,0.5-4.7,1.6-5.8c0.9-1,2.5-1.5,4.7-1.5c2.6,0,4.3,0.5,4.9,1.4c0.3,0.6,1.4,3,1.4,11.6v6.4c0,1.9,1.6,3.5,3.5,3.5h53
	c1.8,0,3.3-1.3,3.4-3.1c0.4-3.4,0.5-5.9,0.5-7.6c0-12.4-4.5-22.3-13.5-29.4c-8.6-6.8-21.6-11.1-38.6-12.7c-1.9-0.2-3.6,1.2-3.8,3.1
	c-0.2,1.9,1.2,3.6,3.1,3.8c15.6,1.5,27.3,5.2,34.9,11.2c7.3,5.8,10.9,13.6,10.9,24c0,0.9-0.1,2.2-0.2,3.8h-46.4v-2.9
	c0-10-1.3-13.4-2.3-15.1c-1.9-3.2-5.5-4.9-10.9-4.9c-4.3,0-7.6,1.3-9.9,3.9c-2.2,2.5-3.3,6-3.3,10.5c0,7.2,2.2,12.4,6.4,15.4
	c3.5,2.6,13,7.3,29.3,14.5c13.3,5.8,22.4,10.3,27.1,13.3c4.4,2.8,8.2,6.9,11.3,12.2c3,5.2,4.6,11.8,4.6,19.7
	c0,12.8-4.1,22.4-12.4,29.6c-8.5,7.3-21.6,11.9-39,13.7c-1.8,0.2-3.1,1.7-3.1,3.5v14.4l-0.4,6.3H26.2c-10.1,0-18.4-8.2-18.4-18.3
	V26.1c0-10.1,8.2-18.4,18.4-18.4h135.2c10.1,0,18.4,8.2,18.4,18.4v19.1c0,1.9,1.6,3.5,3.5,3.5s3.5-1.6,3.5-3.5V26.1
	c0-14-11.4-25.3-25.3-25.3H26.2c-14,0-25.3,11.4-25.3,25.3v217.3c0,13.9,11.4,25.3,25.3,25.3h185c1.9,0,3.5-1.6,3.5-3.5
	c0-0.3-0.1-0.7-0.2-1c0.1-0.3,0.1-0.5,0.2-0.8l0.5-7.7c0-0.1,0-0.1,0-0.2v-11.4c17.3-2.1,30.6-7.2,39.7-14.9
	c9.9-8.5,14.8-20.2,14.8-34.9C269.7,185.2,267.8,177.4,264.2,171.1z"/>
</svg>
