<?xml version="1.0" encoding="utf-8"?>
<!-- Generator: Adobe Illustrator 23.0.2, SVG Export Plug-In . SVG Version: 6.00 Build 0)  -->
<svg version="1.1" id="Camada_1" xmlns="http://www.w3.org/2000/svg" xmlns:xlink="http://www.w3.org/1999/xlink" x="0px" y="0px"
	 viewBox="0 0 270 270" style="enable-background:new 0 0 270 270;" xml:space="preserve">
<style type="text/css">
	.st0{fill:none;stroke:#000000;stroke-width:9;stroke-linecap:round;stroke-linejoin:round;stroke-miterlimit:10;}
	.st1{fill:none;stroke:#000000;stroke-width:6;stroke-linecap:round;stroke-linejoin:round;stroke-miterlimit:10;}
</style>
<path d="M188.1,51h-28.6c-2.1,0-3.9,1.7-3.9,3.9v21.9h-21.9c-2.1,0-3.9,1.7-3.9,3.9v28.6c0,2.1,1.7,3.9,3.9,3.9h21.9v21.9
	c0,2.1,1.7,3.9,3.9,3.9h28.6c2.1,0,3.9-1.7,3.9-3.9v-11.3c0-2.1-1.7-3.9-3.9-3.9s-3.9,1.7-3.9,3.9v7.4h-20.9v-21.9
	c0-2.1-1.7-3.9-3.9-3.9h-21.9V84.5h21.9c2.1,0,3.9-1.7,3.9-3.9V58.7h20.9v21.9c0,2.1,1.7,3.9,3.9,3.9H210v20.8h-21.9
	c-2.1,0-3.9,1.7-3.9,3.9s1.7,3.9,3.9,3.9h25.7c2.1,0,3.9-1.7,3.9-3.9V80.6c0-2.1-1.7-3.9-3.9-3.9H192V54.8
	C192,52.7,190.3,51,188.1,51z"/>
<path d="M265.1,229.2h-18.3l0-195.9c0-1-0.4-1.9-1.1-2.6c-0.7-0.7-1.6-1.1-2.6-1.1H81.9c-2,0-3.6,1.6-3.6,3.6v46.2
	c0,2,1.6,3.6,3.6,3.6c2,0,3.6-1.6,3.6-3.6V36.9h154.1l0,195.9c0,1,0.4,1.9,1.1,2.6c0.7,0.7,1.6,1.1,2.6,1.1h18.3v24.7h-55.6v-89.5
	c0-2-1.6-3.6-3.6-3.6h-64.1c-2,0-3.6,1.6-3.6,3.6c0,2,1.6,3.6,3.6,3.6h60.5v89.5c0,2,1.6,3.6,3.6,3.6h62.9c2,0,3.6-1.6,3.6-3.6
	v-31.9C268.7,230.9,267.1,229.2,265.1,229.2z"/>
<path d="M84.3,172.2c23.8,0,43.1-19.3,43.1-43.1c0-23.8-19.3-43.1-43.1-43.1c-23.8,0-43.1,19.3-43.1,43.1
	C41.2,152.8,60.5,172.2,84.3,172.2z M48.4,129c0-19.8,16.1-35.9,35.9-35.9c19.8,0,35.9,16.1,35.9,35.9c0,19.8-16.1,35.9-35.9,35.9
	C64.5,164.9,48.4,148.8,48.4,129z"/>
<path d="M53.6,170.7c-0.7-2-2.1-3.5-3.9-4.1c-1.7-0.5-3.5-0.2-5,0.8c-26.4,18.9-42.8,56.3-42.8,97.6c0,2,1.6,3.6,3.6,3.6h36.8
	c2,0,3.6-1.6,3.6-3.6c0-2-1.6-3.6-3.6-3.6H9.2c0.9-36.6,15.4-69.6,38.1-86.9l22.9,65.6c0.7,1.9,2.7,2.9,4.6,2.2
	c1.9-0.7,2.9-2.7,2.2-4.6L53.6,170.7z"/>
<path d="M185.4,261.5h-18.8c-0.9-39.8-17.3-75.7-42.8-94c-1.5-1.1-3.3-1.4-5-0.8c-1.8,0.6-3.2,2.1-3.9,4.1l-29.8,90.1
	c-0.3,0.9-0.2,1.9,0.2,2.8c0.4,0.9,1.2,1.5,2.1,1.8c1.9,0.6,3.9-0.4,4.6-2.3l29.3-88.6c23.6,17.9,38.2,52.4,38.2,90.5
	c0,2,1.6,3.6,3.6,3.6h22.4c2,0,3.6-1.6,3.6-3.6C189.1,263.1,187.4,261.5,185.4,261.5z"/>
<path d="M87.7,240.5l15.9-48.1c0.5-1.4,0.1-2.9-1-3.8l-15.9-14.4c-1.4-1.3-3.5-1.3-4.9,0l-15.9,14.4c-1.1,1-1.5,2.5-1,3.8l15.9,48.1
	c0.5,1.5,1.9,2.5,3.4,2.5C85.8,243,87.2,242,87.7,240.5z M96,192.4l-11.7,35.5l-11.7-35.5l11.7-10.6L96,192.4z"/>
</svg>
