<?xml version="1.0" encoding="utf-8"?>
<!-- Generator: Adobe Illustrator 23.0.2, SVG Export Plug-In . SVG Version: 6.00 Build 0)  -->
<svg version="1.1" id="Camada_1" xmlns="http://www.w3.org/2000/svg" xmlns:xlink="http://www.w3.org/1999/xlink" x="0px" y="0px"
	 viewBox="0 0 270 270" style="enable-background:new 0 0 270 270;" xml:space="preserve">
<style type="text/css">
	.st0{fill:none;stroke:#000000;stroke-width:9;stroke-linecap:round;stroke-linejoin:round;stroke-miterlimit:10;}
	.st1{fill:none;stroke:#000000;stroke-width:6;stroke-linecap:round;stroke-linejoin:round;stroke-miterlimit:10;}
</style>
<path d="M268.7,104.7c-1.3-1.4-3.5-1.4-4.9,0l-89.1,89.1c-0.3,0.3-0.5,0.6-0.6,0.9l-24.9,24.9l-46.7-46.9l23.1-23.1l21.1,21.1
	c1.3,1.4,3.5,1.4,4.9,0l69-69l14.9,15.5c1.3,1.4,3.5,1.4,4.9,0.1c1.4-1.3,1.4-3.5,0.1-4.9l-17.3-18c-0.6-0.7-1.5-1.1-2.5-1.1
	c0,0,0,0,0,0c-0.9,0-1.8,0.4-2.4,1l-69,69L128,142.1c-1.3-1.4-3.5-1.4-4.9,0l-28,28c-1.3,1.3-1.4,3.5,0,4.9l51.5,51.7
	c0.6,0.7,1.5,1,2.5,1c0,0,0.1,0,0.1,0c0,0,0.1,0,0.1,0c0.9,0,1.8-0.4,2.4-1l28-28c0.3-0.3,0.5-0.6,0.6-0.9l88.3-88.3
	C270,108.2,270,106,268.7,104.7z"/>
<path d="M238.1,165.9c-1.9,0-3.5,1.5-3.5,3.5v57.4c0,20.8-21.8,35.3-41.4,35.3H62.4c-23.1,0-41.9-18.8-41.9-41.9V49.4
	c0-23.1,18.8-41.9,41.9-41.9h130.9c20.5,0,38.3,15.3,41.4,35.5v22.6c0,1.9,1.5,3.5,3.5,3.5c1.9,0,3.5-1.5,3.5-3.5V42.8
	c0-0.2,0-0.3,0-0.5c-3.5-23.8-24.2-41.7-48.3-41.7H62.4c-26.9,0-48.8,21.9-48.8,48.8v170.8c0,26.9,21.9,48.8,48.8,48.8h130.9
	c11.9,0,24-4.4,33.2-11.9c9.8-8.1,15.1-18.8,15.1-30.3v-57.4C241.6,167.4,240,165.9,238.1,165.9z"/>
<path d="M214.7,57.3c1.9,0,3.5-1.5,3.5-3.5v-4.4c0-13.4-10.9-24.4-24.4-24.4H62.4C49,25,38,35.9,38,49.4v170.8
	c0,13.4,10.9,24.4,24.4,24.4h125.7c1.9,0,3.5-1.5,3.5-3.5c0-1.9-1.5-3.5-3.5-3.5H62.4c-9.6,0-17.5-7.8-17.5-17.5V49.4
	c0-9.6,7.8-17.5,17.5-17.5h131.4c9.6,0,17.5,7.8,17.5,17.5v4.4C211.2,55.7,212.8,57.3,214.7,57.3z"/>
<path d="M108.8,70C96.2,70,86,80.2,86,92.8s10.2,22.8,22.8,22.8s22.8-10.2,22.8-22.8S121.4,70,108.8,70z M124.7,92.8
	c0,8.8-7.1,15.9-15.9,15.9c-8.8,0-15.9-7.1-15.9-15.9s7.1-15.9,15.9-15.9C117.6,76.9,124.7,84,124.7,92.8z"/>
<path d="M151.4,65.4c0,1.9,1.6,3.5,3.5,3.5c1.9,0,3.5-1.6,3.5-3.5c0-5.6-4.5-10.1-10.1-10.1h-14.4l-1.4-4.3c-1.8-5.9-6-6.4-9.9-6.4
	H95.1c-3.8,0-8.1,0.5-9.8,6.3l-1.4,4.3H69.4c-5.6,0-10.1,4.5-10.1,10.1v52.3c0,5.6,4.5,10.1,10.1,10.1h78.8
	c5.6,0,10.1-4.5,10.1-10.1v-44c0-1.9-1.6-3.5-3.5-3.5c-1.9,0-3.5,1.6-3.5,3.5v44c0,1.8-1.4,3.2-3.2,3.2H69.4c-1.8,0-3.2-1.4-3.2-3.2
	V65.5c0-1.8,1.4-3.2,3.2-3.2h17c1.5,0,2.8-1,3.3-2.4l2.2-6.8c0.4-1.4,0.5-1.5,3.2-1.5h27.5c2.8,0,2.8,0.1,3.3,1.5l2.2,6.7
	c0.5,1.4,1.8,2.4,3.3,2.4h17C150,62.2,151.4,63.7,151.4,65.4z"/>
</svg>
