<?xml version="1.0" encoding="utf-8"?>
<!-- Generator: Adobe Illustrator 23.0.2, SVG Export Plug-In . SVG Version: 6.00 Build 0)  -->
<svg version="1.1" id="Camada_1" xmlns="http://www.w3.org/2000/svg" xmlns:xlink="http://www.w3.org/1999/xlink" x="0px" y="0px"
	 viewBox="0 0 270 270" style="enable-background:new 0 0 270 270;" xml:space="preserve">
<style type="text/css">
	.st0{fill:none;stroke:#000000;stroke-width:9;stroke-linecap:round;stroke-linejoin:round;stroke-miterlimit:10;}
	.st1{fill:none;stroke:#000000;stroke-width:6;stroke-linecap:round;stroke-linejoin:round;stroke-miterlimit:10;}
</style>
<path d="M234,64.7c-0.8-4.6-3.3-8.6-7.1-11.3c-3.8-2.7-8.4-3.8-13-3L27.8,81.7c-9.5,1.6-15.9,10.6-14.3,20.1l17,101.3
	c1.4,8.5,8.8,14.6,17.2,14.6c1,0,1.9-0.1,2.9-0.2l154.7-26c1.9-0.3,3.2-2.1,2.9-4c-0.3-1.9-2.1-3.2-4-2.9l-154.7,26
	c-5.7,1-11.1-2.9-12.1-8.6l-17-101.3c-1-5.7,2.9-11.1,8.6-12.1L215,57.3c2.7-0.5,5.5,0.2,7.8,1.8c2.3,1.6,3.8,4,4.3,6.8l17,101.3
	c0.5,2.7-0.2,5.5-1.8,7.8c-1.6,2.3-4,3.8-6.8,4.3c-1.9,0.3-3.2,2.1-2.9,4c0.3,1.9,2.1,3.2,4,2.9c4.6-0.8,8.6-3.3,11.3-7.1
	c2.7-3.8,3.8-8.4,3-13L234,64.7z"/>
<path d="M225,92.6L29.8,125.4c-1.9,0.3-3.2,2.1-2.9,4c0.3,1.7,1.8,2.9,3.4,2.9c0.2,0,0.4,0,0.6,0l195.2-32.8c1.9-0.3,3.2-2.1,2.9-4
	C228.7,93.5,226.9,92.2,225,92.6z"/>
<path d="M36.9,163.8l53-8.9c1.9-0.3,3.2-2.1,2.9-4c-0.3-1.9-2.1-3.2-4-2.9l-53,8.9c-1.9,0.3-3.2,2.1-2.9,4c0.3,1.7,1.8,2.9,3.4,2.9
	C36.5,163.8,36.7,163.8,36.9,163.8z"/>
<path d="M38.4,176.3c0.2,0,0.4,0,0.6,0l53-8.9c1.9-0.3,3.2-2.1,2.9-4s-2.1-3.2-4-2.9l-53,8.9c-1.9,0.3-3.2,2.1-2.9,4
	C35.2,175.1,36.7,176.3,38.4,176.3z"/>
<path d="M151.9,98.4c0.6,0.4,1.3,0.6,2,0.6c0.2,0,0.4,0,0.6,0l53.3-9c1.9-0.3,3.2-2.1,2.9-4L208,70.3c-0.2-0.9-0.7-1.7-1.4-2.3
	c-0.8-0.5-1.7-0.8-2.6-0.6l-53.3,9c-1.9,0.3-3.2,2.1-2.9,4l2.7,15.8C150.6,97.1,151.1,97.9,151.9,98.4z M201.6,74.9l1.5,8.9
	l-46.3,7.8l-1.5-8.9L201.6,74.9z"/>
</svg>
