<?xml version="1.0" encoding="utf-8"?>
<!-- Generator: Adobe Illustrator 23.0.2, SVG Export Plug-In . SVG Version: 6.00 Build 0)  -->
<svg version="1.1" id="Camada_1" xmlns="http://www.w3.org/2000/svg" xmlns:xlink="http://www.w3.org/1999/xlink" x="0px" y="0px"
	 viewBox="0 0 270 270" style="enable-background:new 0 0 270 270;" xml:space="preserve">
<style type="text/css">
	.st0{fill:none;stroke:#000000;stroke-width:9;stroke-linecap:round;stroke-linejoin:round;stroke-miterlimit:10;}
	.st1{fill:none;stroke:#000000;stroke-width:6;stroke-linecap:round;stroke-linejoin:round;stroke-miterlimit:10;}
</style>
<path d="M152.1,60.4c0-1.9-1.6-3.5-3.5-3.5H33c-1.9,0-3.5,1.6-3.5,3.5s1.6,3.5,3.5,3.5h115.5C150.5,63.9,152.1,62.3,152.1,60.4z"/>
<path d="M33,94.4c-1.9,0-3.5,1.6-3.5,3.5s1.6,3.5,3.5,3.5h79.7c1.9,0,3.5-1.6,3.5-3.5s-1.6-3.5-3.5-3.5H33z"/>
<path d="M11.3,189.7c1.9,0,3.5-1.6,3.5-3.5V27c0-10.6,8.6-19.3,19.3-19.3h141c10.6,0,19.3,8.7,19.3,19.3c0,1.9,1.6,3.5,3.5,3.5
	s3.5-1.6,3.5-3.5c0-14.5-11.8-26.3-26.3-26.3h-141C19.6,0.7,7.8,12.5,7.8,27v159.2C7.8,188.1,9.4,189.7,11.3,189.7z"/>
<path d="M202.2,261.8h-155c-1.9,0-3.5,1.6-3.5,3.5s1.6,3.5,3.5,3.5h155c1.9,0,3.5-1.6,3.5-3.5S204.1,261.8,202.2,261.8z"/>
<path d="M187.9,60.5v7.8c-15,1.6-26.6,5.3-34.5,11.1c-8.9,6.5-13.4,15.5-13.4,26.9c0,7.7,2.1,14.8,6.3,20.9c4,6,8.9,10.7,14.5,14.1
	c5.3,3.2,15.1,8,29.7,14.6c10.6,4.8,12.9,7.9,13.4,9c0.9,2,1.9,6.2,1.9,15.1c0,2.1-0.4,3.6-1.3,4.4c-0.9,0.9-2.4,1.3-4.7,1.3
	c-1.5,0-3.4-0.2-3.9-1.2c-0.4-0.8-1.2-4-1.2-15.8v-8.4c0-1.9-1.6-3.5-3.5-3.5h-47.2c-1.9,0-3.5,1.6-3.5,3.5v6.7
	c0,16.4,5.3,28.2,15.7,35c9.9,6.4,21.6,10.2,34.7,11.1c0.1,0,0.2,0,0.3,0c1.8,0,3.4-1.4,3.5-3.3c0.1-1.9-1.3-3.6-3.2-3.7
	c-12-0.9-22.5-4.2-31.4-10c-8.4-5.5-12.5-15-12.5-29.2v-3.2h40.2v4.9c0,12.9,0.9,16.7,1.7,18.6c1.1,2.5,3.8,5.4,10.3,5.4
	c4.1,0,7.4-1.1,9.6-3.4c2.2-2.2,3.4-5.4,3.4-9.4c0-8.2-0.8-14.1-2.5-17.9c-1.9-4.2-7.3-8.2-16.9-12.6c-14.2-6.5-24-11.3-29-14.3
	c-4.7-2.8-8.8-6.8-12.3-12c-3.4-5-5.1-10.6-5.1-17c0-9.1,3.4-16.1,10.5-21.2c7.4-5.4,18.9-8.8,34.2-10.1c1.8-0.2,3.2-1.7,3.2-3.5V64
	h18.2c1.9,0,3.5-1.6,3.5-3.5S215,57,213.1,57h-21.7C189.4,57,187.9,58.5,187.9,60.5z"/>
<path d="M260.2,147.6c-3.3-5.6-7.4-10-12.2-13c-4.5-2.9-12.7-6.9-25-12.3c-6-2.6-10.6-4.7-14.1-6.4c0,0,0.1,0,0.1,0h47.2
	c1.8,0,3.3-1.3,3.5-3.1c0.3-3.1,0.5-5.3,0.5-6.8c0-11.2-4.1-20.1-12.2-26.5c-7.7-6.1-19.4-10-34.6-11.4c-1.9-0.2-3.6,1.2-3.8,3.2
	c-0.2,1.9,1.2,3.6,3.2,3.8c13.8,1.3,24.2,4.6,30.9,9.9c6.4,5.1,9.5,12,9.5,21c0,0.7,0,1.7-0.1,2.9h-40.5v-2.2c0-9-1.2-12.1-2.1-13.6
	c-1.8-3-5.1-4.5-10-4.5c-3.9,0-7,1.2-9.1,3.6c-2,2.3-3.1,5.5-3.1,9.6c0,6.5,2,11.3,5.8,14.1c2,1.5,6.9,4.4,26.2,12.9
	c11.8,5.2,19.9,9.1,24,11.8c3.9,2.5,7.2,6.1,9.9,10.7c2.7,4.6,4,10.4,4,17.3c0,11.2-3.6,19.8-10.9,26.1
	c-7.5,6.4-19.1,10.5-34.5,12.1c-1.8,0.2-3.1,1.7-3.1,3.5v12.8l-0.4,6.8c-0.1,1.9,1.4,3.6,3.3,3.7c0.1,0,0.1,0,0.2,0
	c1.8,0,3.4-1.4,3.5-3.3l0.4-6.9c0-0.1,0-0.1,0-0.2v-9.8c15.3-1.9,27.2-6.4,35.2-13.4c8.9-7.6,13.4-18.2,13.4-31.4
	C265.2,160.2,263.5,153.2,260.2,147.6z M198.2,110c-2-1.5-3-4.3-3-8.4c0-2.3,0.4-4,1.3-4.9c0.7-0.8,2-1.2,3.9-1.2
	c2.1,0,3.6,0.4,4,1.1c0.3,0.5,1.2,2.6,1.2,10.1v5.7c0,0.9,0.3,1.6,0.8,2.2C201.5,112.1,199.3,110.8,198.2,110z"/>
<path d="M121,199.1c16.9-21.4,13.2-52.6-8.2-69.5c-10.4-8.2-23.3-11.9-36.5-10.3c-13.1,1.5-24.9,8.1-33.1,18.5
	c-12.2,15.5-14.1,36.7-4.8,54.1c0.9,1.7,3,2.3,4.7,1.4c1.7-0.9,2.3-3,1.4-4.7c-8-14.9-6.4-33.1,4.1-46.4c7-8.9,17.1-14.6,28.4-15.9
	c11.3-1.3,22.4,1.8,31.3,8.9c18.4,14.5,21.6,41.3,7,59.7c-12.7,16.1-35.1,20.9-53.2,11.3l-0.5-0.3c-1.5-0.8-3.4-0.4-4.4,0.9
	l-34.6,43.6c-0.5,0.7-3.3,0.6-5.9-1.5c-2.7-2.1-3.4-4.8-2.9-5.4l31-38.2c1.2-1.5,1-3.7-0.5-4.9c-1.5-1.2-3.7-1-4.9,0.5L8.5,239
	c-3.3,4.2-1.5,10.9,4,15.3c2.9,2.2,6.1,3.4,9,3.4c2.7,0,5.2-1,6.8-3l32.8-41.3C81.8,223,106.7,217.3,121,199.1z"/>
</svg>
