<?xml version="1.0" encoding="utf-8"?>
<!-- Generator: Adobe Illustrator 23.0.2, SVG Export Plug-In . SVG Version: 6.00 Build 0)  -->
<svg version="1.1" id="Camada_1" xmlns="http://www.w3.org/2000/svg" xmlns:xlink="http://www.w3.org/1999/xlink" x="0px" y="0px"
	 viewBox="0 0 270 270" style="enable-background:new 0 0 270 270;" xml:space="preserve">
<style type="text/css">
	.st0{fill:none;stroke:#000000;stroke-width:9;stroke-linecap:round;stroke-linejoin:round;stroke-miterlimit:10;}
	.st1{fill:none;stroke:#000000;stroke-width:6;stroke-linecap:round;stroke-linejoin:round;stroke-miterlimit:10;}
</style>
<path d="M248.6,129.3c-2.3,0-4.1,2-4.1,4.4v126h-69.9v-80.5c0-2.4-1.9-4.4-4.1-4.4H100c-2.3,0-4.1,2-4.1,4.4v57.2
	c0,2.4,1.9,4.4,4.1,4.4c2.3,0,4.1-2,4.1-4.4v-52.8h62v76.1H26V90.9L135.2,11l111,81.1c1.9,1.4,4.5,0.9,5.8-1.1c1.3-2,0.8-4.7-1-6.1
	L137.6,2.1c-1.4-1-3.3-1-4.7,0L19.5,85c-1.1,0.8-1.8,2.2-1.8,3.6V264c0,2.4,1.9,4.4,4.1,4.4h226.7c2.3,0,4.1-2,4.1-4.4V133.6
	C252.7,131.2,250.8,129.3,248.6,129.3z"/>
</svg>
