<?xml version="1.0" encoding="utf-8"?>
<!-- Generator: Adobe Illustrator 23.0.2, SVG Export Plug-In . SVG Version: 6.00 Build 0)  -->
<svg version="1.1" id="Camada_1" xmlns="http://www.w3.org/2000/svg" xmlns:xlink="http://www.w3.org/1999/xlink" x="0px" y="0px"
	 viewBox="0 0 270 270" style="enable-background:new 0 0 270 270;" xml:space="preserve">
<style type="text/css">
	.st0{fill:none;stroke:#000000;stroke-width:9;stroke-linecap:round;stroke-linejoin:round;stroke-miterlimit:10;}
	.st1{fill:none;stroke:#000000;stroke-width:6;stroke-linecap:round;stroke-linejoin:round;stroke-miterlimit:10;}
</style>
<g>
	<path d="M213,0.1H57.1c-15.8,0-28.6,12.9-28.6,28.7v212.9c0,15.8,12.8,28.6,28.6,28.6H213c15.8,0,28.6-12.8,28.6-28.6
		c0-1.9-1.5-3.4-3.4-3.4s-3.4,1.5-3.4,3.4c0,12-9.8,21.7-21.7,21.7H57.1c-12,0-21.8-9.8-21.8-21.7V28.7c0-12,9.8-21.8,21.8-21.8H213
		c12,0,21.7,9.8,21.7,21.8v175.1c0,1.9,1.5,3.4,3.4,3.4s3.4-1.5,3.4-3.4V28.7C241.6,12.9,228.7,0.1,213,0.1z"/>
	<path d="M100.9,48.4h68.3c4.4,0,8,2.5,8,5.4c0,1.7,1.3,3,3,3s3-1.3,3-3c0-6.3-6.3-11.4-14-11.4h-68.3c-7.7,0-14,5.1-14,11.4v14.9
		c0,6.3,6.3,11.4,14,11.4h68.3c7.7,0,14-5.1,14-11.4c0-1.7-1.3-3-3-3s-3,1.3-3,3c0,2.9-3.7,5.4-8,5.4h-68.3c-4.3,0-8-2.5-8-5.4V53.8
		C92.8,50.8,96.5,48.4,100.9,48.4z"/>
	<path d="M177.4,123.1H92.6c-1.9,0-3.5,1.6-3.5,3.5v9.4c0,1.9,1.6,3.5,3.5,3.5h66.8c1.9,0,3.5-1.6,3.5-3.5s-1.6-3.5-3.5-3.5H96.1
		v-2.4h81.4c1.9,0,3.5-1.6,3.5-3.5C180.9,124.7,179.4,123.1,177.4,123.1z"/>
	<path d="M169.2,174.4c1.9,0,3.5-1.6,3.5-3.5s-1.6-3.5-3.5-3.5h-68.5c-1.9,0-3.5,1.6-3.5,3.5v9.4c0,1.9,1.6,3.5,3.5,3.5h50.4
		c1.9,0,3.5-1.6,3.5-3.5s-1.6-3.5-3.5-3.5h-46.9v-2.4H169.2z"/>
	<path d="M177.4,218.7c1.9,0,3.5-1.6,3.5-3.5s-1.6-3.5-3.5-3.5H92.6c-1.9,0-3.5,1.6-3.5,3.5v9.4c0,1.9,1.6,3.5,3.5,3.5h66.8
		c1.9,0,3.5-1.6,3.5-3.5s-1.6-3.5-3.5-3.5H96.1v-2.4H177.4z"/>
</g>
</svg>
