<?xml version="1.0" encoding="utf-8"?>
<!-- Generator: Adobe Illustrator 23.0.2, SVG Export Plug-In . SVG Version: 6.00 Build 0)  -->
<svg version="1.1" id="Camada_1" xmlns="http://www.w3.org/2000/svg" xmlns:xlink="http://www.w3.org/1999/xlink" x="0px" y="0px"
	 viewBox="0 0 270 270" style="enable-background:new 0 0 270 270;" xml:space="preserve">
<style type="text/css">
	.st0{fill:none;stroke:#000000;stroke-width:9;stroke-linecap:round;stroke-linejoin:round;stroke-miterlimit:10;}
	.st1{fill:none;stroke:#000000;stroke-width:6;stroke-linecap:round;stroke-linejoin:round;stroke-miterlimit:10;}
</style>
<path d="M101.6,115.3c-7.7,0-13.9,6.2-13.9,13.8c0,7.6,6.2,13.9,13.9,13.9c7.6,0,13.9-6.2,13.9-13.9
	C115.5,121.5,109.2,115.3,101.6,115.3z M101.6,137.1c-4.4,0-8-3.6-8-7.9c0-4.4,3.6-7.9,8-7.9c4.4,0,7.9,3.6,7.9,7.9
	C109.5,133.5,106,137.1,101.6,137.1z"/>
<path d="M138.9,115.3c-7.6,0-13.9,6.2-13.9,13.8c0,7.6,6.2,13.9,13.9,13.9c7.7,0,13.9-6.2,13.9-13.9
	C152.7,121.5,146.5,115.3,138.9,115.3z M138.9,137.1c-4.4,0-7.9-3.6-7.9-7.9c0-4.4,3.6-7.9,7.9-7.9c4.4,0,7.9,3.6,7.9,7.9
	C146.8,133.5,143.2,137.1,138.9,137.1z"/>
<path d="M162.3,129.2c0,7.6,6.2,13.9,13.9,13.9c7.7,0,13.9-6.2,13.9-13.9c0-7.6-6.2-13.8-13.9-13.8
	C168.5,115.3,162.3,121.5,162.3,129.2z M184.1,129.2c0,4.4-3.6,7.9-7.9,7.9c-4.4,0-7.9-3.6-7.9-7.9c0-4.4,3.6-7.9,7.9-7.9
	C180.5,121.2,184.1,124.8,184.1,129.2z"/>
<path d="M101.6,179c-7.7,0-13.9,6.2-13.9,13.8c0,7.6,6.2,13.9,13.9,13.9c7.6,0,13.9-6.2,13.9-13.9C115.5,185.2,109.2,179,101.6,179z
	 M101.6,200.8c-4.4,0-8-3.6-8-7.9c0-4.4,3.6-7.9,8-7.9c4.4,0,7.9,3.6,7.9,7.9C109.5,197.2,106,200.8,101.6,200.8z"/>
<path d="M101.6,147.2c-7.7,0-13.9,6.2-13.9,13.8c0,7.6,6.2,13.9,13.9,13.9c7.6,0,13.9-6.2,13.9-13.9
	C115.5,153.4,109.2,147.2,101.6,147.2z M101.6,168.9c-4.4,0-8-3.6-8-7.9c0-4.4,3.6-7.9,8-7.9c4.4,0,7.9,3.6,7.9,7.9
	C109.5,165.4,106,168.9,101.6,168.9z"/>
<path d="M138.9,147.2c-7.6,0-13.9,6.2-13.9,13.8c0,7.6,6.2,13.9,13.9,13.9c7.7,0,13.9-6.2,13.9-13.9
	C152.7,153.4,146.5,147.2,138.9,147.2z M138.9,168.9c-4.4,0-7.9-3.6-7.9-7.9c0-4.4,3.6-7.9,7.9-7.9c4.4,0,7.9,3.6,7.9,7.9
	C146.8,165.4,143.2,168.9,138.9,168.9z"/>
<path d="M64.3,115.3c-7.7,0-13.9,6.2-13.9,13.8c0,7.6,6.2,13.9,13.9,13.9c7.6,0,13.9-6.2,13.9-13.9C78.2,121.5,72,115.3,64.3,115.3z
	 M64.3,137.1c-4.4,0-8-3.6-8-7.9c0-4.4,3.6-7.9,8-7.9c4.4,0,7.9,3.6,7.9,7.9C72.3,133.5,68.7,137.1,64.3,137.1z"/>
<path d="M64.3,179c-7.7,0-13.9,6.2-13.9,13.8c0,7.6,6.2,13.9,13.9,13.9c7.6,0,13.9-6.2,13.9-13.9C78.2,185.2,72,179,64.3,179z
	 M64.3,200.8c-4.4,0-8-3.6-8-7.9c0-4.4,3.6-7.9,8-7.9c4.4,0,7.9,3.6,7.9,7.9C72.3,197.2,68.7,200.8,64.3,200.8z"/>
<path d="M64.3,147.2c-7.7,0-13.9,6.2-13.9,13.8c0,7.6,6.2,13.9,13.9,13.9c7.6,0,13.9-6.2,13.9-13.9C78.2,153.4,72,147.2,64.3,147.2z
	 M64.3,168.9c-4.4,0-8-3.6-8-7.9c0-4.4,3.6-7.9,8-7.9c4.4,0,7.9,3.6,7.9,7.9C72.3,165.4,68.7,168.9,64.3,168.9z"/>
<path d="M248.9,153.6l-67.1,67.1c-0.2,0.2-0.4,0.4-0.5,0.7l-18.6,18.6L127.7,205l17.1-17.1l15.8,15.8c1.1,1.1,2.9,1.1,4,0l51.8-51.8
	l11,11.5c1.1,1.1,2.9,1.2,4,0.1c1.1-1.1,1.2-2.9,0.1-4l-13-13.6c-0.5-0.6-1.3-0.9-2-0.9c-0.8,0-1.5,0.3-2,0.8l-51.9,51.9l-15.8-15.8
	c-1.1-1.1-2.9-1.1-4,0L121.7,203c-1.1,1.1-1.1,2.9,0,4l38.8,39c0.4,0.4,0.9,0.6,1.4,0.7c0.2,0.1,0.4,0.1,0.8,0.1
	c0.8,0,1.5-0.3,2-0.8l21.1-21.1c0.2-0.2,0.4-0.4,0.5-0.7l66.6-66.6c1.1-1.1,1.1-2.9,0-4C251.8,152.5,250,152.5,248.9,153.6z"/>
<path d="M196.3,146.3c0,1.6,1.3,3,3,3c1.6,0,3-1.3,3-3l0-38.6c0-1.6-1.3-3-3-3l-158,0c-1.6,0-3,1.3-3,3l0,101.7
	c0,4.1,3.3,7.4,7.4,7.4l69.3,0c1.6,0,3-1.3,3-3c0-1.6-1.3-3-3-3l-69.3,0c-0.8,0-1.5-0.7-1.5-1.5l0-98.7l152.1,0L196.3,146.3z"/>
<path d="M137,234.2H38.5c-9.7,0-17.5-7.9-17.5-17.5V74.8c0-9.6,7.8-17.5,17.5-17.5c1.6,0,3-1.3,3-3v-10c0-4.8,3.9-8.7,8.7-8.7
	c4.8,0,8.7,3.9,8.7,8.7V60c0,10.4-8.5,19-18.9,19.1c-1.4,0-2.5,0.9-2.9,2.3c-0.3,1.3,0.3,2.7,1.5,3.3c3.6,1.9,7.5,2.8,11.5,2.8
	c13.8,0,25-11.2,25-25v-5.2h86.4c1.6,0,3-1.3,3-3v-10c0-4.8,3.9-8.7,8.7-8.7c4.8,0,8.7,3.9,8.7,8.7V60c0,10.4-8.5,19-18.9,19.1
	c-1.4,0-2.5,0.9-2.9,2.3s0.3,2.7,1.5,3.3c3.6,1.9,7.6,2.8,11.5,2.8c13.8,0,25-11.2,25-25v-5.2c1.9,0,4,0,4.3,0
	c9.4,0.3,17.1,8.1,17.1,17.5v54.3c0,1.6,1.3,3,3,3c1.6,0,3-1.3,3-3V74.8c0-12.6-10.2-23.1-22.8-23.4c-0.2,0-7.4,0-7.4,0c0,0,0,0,0,0
	c-0.8,0-1.5,0.3-2.1,0.9c-0.6,0.6-0.9,1.3-0.9,2.1v8.1c0,9.7-7.2,17.7-16.6,18.9C183,77,187.8,69,187.8,60V44.3
	c0-8.1-6.6-14.7-14.7-14.7c-8.1,0-14.7,6.6-14.7,14.7v7H72.1c-1.6,0-3,1.3-3,3v8.1c0,9.7-7.2,17.7-16.6,18.9
	C59.9,77,64.7,69,64.7,60V44.3c0-8.1-6.6-14.7-14.7-14.7c-8.1,0-14.7,6.6-14.7,14.7v7.2C23.9,53.1,15,62.9,15,74.8v141.8
	c0,12.9,10.5,23.5,23.5,23.5H137c1.6,0,3-1.3,3-3C140,235.5,138.7,234.2,137,234.2z"/>
</svg>
