<?xml version="1.0" encoding="utf-8"?>
<!-- Generator: Adobe Illustrator 23.0.2, SVG Export Plug-In . SVG Version: 6.00 Build 0)  -->
<svg version="1.1" id="Camada_1" xmlns="http://www.w3.org/2000/svg" xmlns:xlink="http://www.w3.org/1999/xlink" x="0px" y="0px"
	 viewBox="0 0 270 270" style="enable-background:new 0 0 270 270;" xml:space="preserve">
<style type="text/css">
	.st0{fill:none;stroke:#000000;stroke-width:9;stroke-linecap:round;stroke-linejoin:round;stroke-miterlimit:10;}
	.st1{fill:none;stroke:#000000;stroke-width:6;stroke-linecap:round;stroke-linejoin:round;stroke-miterlimit:10;}
</style>
<g>
	<path d="M216.9,161.8l-27.8-27.8c-0.7-0.7-1.5-1-2.5-1s-1.8,0.4-2.5,1L158,160.1l-26.6-26.6c-1.3-1.3-3.6-1.3-5,0l-26.2,26.2
		c-1.4,1.4-1.4,3.6,0,4.9c1.4,1.4,3.6,1.4,4.9,0l23.7-23.7l26.6,26.6c1.3,1.3,3.6,1.3,5,0l26.2-26.2l22.9,22.9l-26.9,26.9
		c-1.4,1.4-1.4,3.6,0,4.9l25.1,25.1l-22.4,22.4l-25.1-25.1c-1.3-1.3-3.6-1.3-5,0L132.7,241l-22.2-22.2l22.6-22.6
		c0.7-0.7,1-1.5,1-2.5s-0.4-1.8-1-2.5l-13.9-13.9c-1.4-1.4-3.6-1.4-4.9,0c-1.4,1.4-1.4,3.6,0,4.9l11.4,11.4l-22.6,22.6
		c-1.4,1.4-1.4,3.6,0,4.9l27.1,27.1c1.3,1.3,3.6,1.3,5,0l22.6-22.6l25.1,25.1c0.7,0.7,1.5,1,2.5,1s1.8-0.4,2.5-1l27.3-27.3
		c1.4-1.4,1.4-3.6,0-4.9L190,193.6l26.9-26.9C218.3,165.3,218.3,163.1,216.9,161.8z"/>
	<path d="M207.7,0.1H51.7C36,0.1,23.1,12.9,23.1,28.7v212.9c0,15.8,12.8,28.6,28.6,28.6h155.9c15.8,0,28.6-12.8,28.6-28.6
		c0-1.9-1.5-3.4-3.4-3.4s-3.4,1.5-3.4,3.4c0,12-9.8,21.7-21.7,21.7H51.7c-12,0-21.8-9.8-21.8-21.7V28.7C30,16.7,39.7,7,51.7,7h155.9
		c12,0,21.7,9.8,21.7,21.8v175.1c0,1.9,1.5,3.4,3.4,3.4s3.4-1.5,3.4-3.4V28.7C236.3,12.9,223.4,0.1,207.7,0.1z"/>
	<path d="M83.7,95c0,1.9,1.6,3.5,3.5,3.5h66.8c1.9,0,3.5-1.6,3.5-3.5s-1.6-3.5-3.5-3.5H90.7v-2.4h81.4c1.9,0,3.5-1.6,3.5-3.5
		s-1.6-3.5-3.5-3.5H87.2c-1.9,0-3.5,1.6-3.5,3.5V95z"/>
	<path d="M172.1,45.1c1.9,0,3.5-1.6,3.5-3.5s-1.6-3.5-3.5-3.5H87.2c-1.9,0-3.5,1.6-3.5,3.5V51c0,1.9,1.6,3.5,3.5,3.5h66.8
		c1.9,0,3.5-1.6,3.5-3.5s-1.6-3.5-3.5-3.5H90.7v-2.4H172.1z"/>
</g>
</svg>
