<?xml version="1.0" encoding="utf-8"?>
<!-- Generator: Adobe Illustrator 23.0.2, SVG Export Plug-In . SVG Version: 6.00 Build 0)  -->
<svg version="1.1" id="Camada_1" xmlns="http://www.w3.org/2000/svg" xmlns:xlink="http://www.w3.org/1999/xlink" x="0px" y="0px"
	 viewBox="0 0 270 270" style="enable-background:new 0 0 270 270;" xml:space="preserve">
<style type="text/css">
	.st0{fill:none;stroke:#000000;stroke-width:9;stroke-linecap:round;stroke-linejoin:round;stroke-miterlimit:10;}
	.st1{fill:none;stroke:#000000;stroke-width:6;stroke-linecap:round;stroke-linejoin:round;stroke-miterlimit:10;}
</style>
<path d="M240,57c-0.8-4.6-3.3-8.6-7.1-11.3c-3.8-2.7-8.4-3.8-13-3L33.8,73.9c-9.5,1.6-15.9,10.6-14.3,20.1l17,101.3
	c0.8,4.6,3.3,8.6,7.1,11.3c3,2.1,6.5,3.3,10.1,3.3c1,0,2-0.1,3-0.2l76.2-13.8c1.9-0.3,3.2-2.2,2.8-4.1c-0.3-1.9-2.2-3.2-4.1-2.8
	l-76.1,13.8c-2.7,0.5-5.5-0.2-7.8-1.8c-2.3-1.6-3.8-4-4.3-6.8l-17-101.3c-0.5-2.7,0.2-5.5,1.8-7.8s4-3.8,6.8-4.3L221,49.6
	c2.7-0.5,5.5,0.2,7.8,1.8c2.3,1.6,3.8,4,4.3,6.8l17,101.3c0.5,2.7-0.2,5.5-1.8,7.8s-4,3.8-6.8,4.3c-1.9,0.3-3.2,2.1-2.9,4
	c0.3,1.9,2.1,3.2,4,2.9c4.6-0.8,8.6-3.3,11.3-7.1c2.7-3.8,3.8-8.4,3-13L240,57z"/>
<path d="M231,84.8L35.8,117.6c-1.9,0.3-3.2,2.1-2.9,4c0.3,1.7,1.8,2.9,3.4,2.9c0.2,0,0.4,0,0.6,0l195.2-32.8c1.9-0.3,3.2-2.1,2.9-4
	C234.7,85.8,232.9,84.5,231,84.8z"/>
<path d="M42.9,156.1l53-8.9c1.9-0.3,3.2-2.1,2.9-4c-0.3-1.9-2.1-3.2-4-2.9l-53,8.9c-1.9,0.3-3.2,2.1-2.9,4c0.3,1.7,1.8,2.9,3.4,2.9
	C42.5,156.1,42.7,156.1,42.9,156.1z"/>
<path d="M44.4,168.6c0.2,0,0.4,0,0.6,0l53-8.9c1.9-0.3,3.2-2.1,2.9-4c-0.3-1.9-2.1-3.2-4-2.9l-53,8.9c-1.9,0.3-3.2,2.1-2.9,4
	C41.2,167.3,42.7,168.6,44.4,168.6z"/>
<path d="M229.8,200h-21.6c15.2-13,23.8-25.8,23.8-44.9c0-30.2-24.6-36.6-45.2-36.6c-15.3,0-29.1,2.7-41.3,5l-3.2,0.6
	c-1.6,0.3-2.8,1.8-2.8,3.4V170c0,1.9,1.6,3.5,3.5,3.5h24.8c1.7,0,3.2-1.3,3.5-3l3-20.9c0.8-0.1,1.7-0.1,2.5-0.1
	c11.8,0,13.1,6.5,13.1,11.4c0,12.4-24.2,30.7-41.8,44c-2.9,2.2-5.7,4.3-8.3,6.3c-1.5,1.2-1.8,3.4-0.6,4.9c1.2,1.5,3.4,1.8,4.9,0.6
	c2.5-2,5.3-4.1,8.2-6.2c19.9-15,44.6-33.7,44.6-49.6c0-11.7-7.3-18.4-20.1-18.4c-2.1,0-4,0.2-5.9,0.3c-1.6,0.1-2.9,1.4-3.2,3
	l-2.9,20.7h-18.2v-36l0.3-0.1c12.4-2.4,25.3-4.9,39.9-4.9c38.2,0,38.2,22.3,38.2,29.6c0,23.2-14.2,35.7-44.2,56.7
	c-1.3,0.9-1.8,2.5-1.3,3.9c0.5,1.5,1.8,2.4,3.3,2.4h21.1c1.6,0,3-1.1,3.4-2.7l2.1-8.5h16.9v25.8h-86.9c-1.9,0-3.5,1.6-3.5,3.5
	s1.6,3.5,3.5,3.5h90.4c1.9,0,3.5-1.6,3.5-3.5v-32.8C233.3,201.6,231.7,200,229.8,200z M201.1,211.2h-7.4c3.2-2.3,6.2-4.6,9-6.8
	L201.1,211.2z"/>
<path d="M163.9,91.4c0.6,0.4,1.3,0.6,2,0.6c0.2,0,0.4,0,0.6,0l53.3-9c1.9-0.3,3.2-2.1,2.9-4L220,63.3c-0.2-0.9-0.7-1.7-1.4-2.3
	c-0.8-0.5-1.7-0.8-2.6-0.6l-53.3,9c-1.9,0.3-3.2,2.1-2.9,4l2.7,15.8C162.6,90.1,163.1,90.9,163.9,91.4z M213.6,67.9l1.5,8.9
	l-46.3,7.8l-1.5-8.9L213.6,67.9z"/>
</svg>
