<?xml version="1.0" encoding="utf-8"?>
<!-- Generator: Adobe Illustrator 23.0.2, SVG Export Plug-In . SVG Version: 6.00 Build 0)  -->
<svg version="1.1" id="Camada_1" xmlns="http://www.w3.org/2000/svg" xmlns:xlink="http://www.w3.org/1999/xlink" x="0px" y="0px"
	 viewBox="0 0 270 270" style="enable-background:new 0 0 270 270;" xml:space="preserve">
<style type="text/css">
	.st0{fill:none;stroke:#000000;stroke-width:9;stroke-linecap:round;stroke-linejoin:round;stroke-miterlimit:10;}
	.st1{fill:none;stroke:#000000;stroke-width:6;stroke-linecap:round;stroke-linejoin:round;stroke-miterlimit:10;}
</style>
<path d="M112.9,133H43.4c-1.9,0-3.5,1.6-3.5,3.5s1.6,3.5,3.5,3.5h69.5c1.9,0,3.5-1.6,3.5-3.5S114.8,133,112.9,133z"/>
<path d="M43.4,171.5c-1.9,0-3.5,1.6-3.5,3.5s1.6,3.5,3.5,3.5h69.5c1.9,0,3.5-1.6,3.5-3.5s-1.6-3.5-3.5-3.5H43.4z"/>
<path d="M196.8,50.4H43.6c-1.9,0-3.5,1.6-3.5,3.5s1.6,3.5,3.5,3.5h153.2c1.9,0,3.5-1.6,3.5-3.5S198.7,50.4,196.8,50.4z"/>
<path d="M200.3,95.2c0-1.9-1.6-3.5-3.5-3.5H43.6c-1.9,0-3.5,1.6-3.5,3.5s1.6,3.5,3.5,3.5h153.2C198.7,98.7,200.3,97.1,200.3,95.2z"
	/>
<path d="M43.4,219.8H115c1.9,0,3.5-1.6,3.5-3.5s-1.6-3.5-3.5-3.5H43.4c-1.9,0-3.5,1.6-3.5,3.5S41.5,219.8,43.4,219.8z"/>
<path d="M255.1,220.2h-30.2c-0.4,0-0.8,0.1-1.1,0.2c21.1-17.4,33.1-34.3,33.1-59.8c0-15.4-5-27.2-14.9-35.1
	c-9.6-7.6-24.1-11.5-42.9-11.5c-19.9,0-37,3.3-53.6,6.5l-4.1,0.8c-1.6,0.3-2.8,1.8-2.8,3.4V180c0,1.9,1.6,3.5,3.5,3.5h32.3
	c1.7,0,3.2-1.3,3.5-3l4-28.1c1.4-0.1,2.8-0.2,4.2-0.2c4.5,0,18.2,0,18.2,15.9c0,16.7-31.7,40.6-54.9,58.2c-3.8,2.9-7.4,5.6-10.7,8.2
	c-1.5,1.2-1.8,3.4-0.6,4.9c1.2,1.5,3.4,1.8,4.9,0.6c3.3-2.6,6.9-5.3,10.7-8.1c25.7-19.4,57.7-43.6,57.7-63.7
	c0-14.7-8.9-22.9-25.2-22.9c-2.6,0-5.2,0.2-7.6,0.4c-1.6,0.1-2.9,1.4-3.2,3l-4,27.8h-25.7v-48.8l1.3-0.2c16.2-3.2,33-6.4,52.3-6.4
	c34.2,0,50.8,12.9,50.8,39.6c0,30.8-18.6,47.2-58,74.8c-1.3,0.9-1.8,2.5-1.3,3.9c0.5,1.5,1.8,2.4,3.3,2.4h27.5c1.6,0,3-1.1,3.4-2.7
	l2.9-11.9h23.9v35.7h-209c-11.9,0-21.6-9.7-21.6-21.6V29.3c0-11.9,9.7-21.6,21.6-21.6h155.3c11.9,0,21.6,9.7,21.6,21.6l-0.2,69.2
	c0,1.9,1.6,3.5,3.5,3.5c0,0,0,0,0,0c1.9,0,3.5-1.6,3.5-3.5l0.2-69.2c0-15.8-12.8-28.6-28.6-28.6H42.5c-15.8,0-28.6,12.8-28.6,28.6
	v212.1c0,15.8,12.8,28.6,28.6,28.6h212.5c1.9,0,3.5-1.6,3.5-3.5v-42.7C258.6,221.8,257,220.2,255.1,220.2z M221.5,222.9l-2.9,11.9
	h-13.7c6.1-4.4,11.8-8.6,17-12.8C221.7,222.3,221.6,222.6,221.5,222.9z"/>
</svg>
