<?xml version="1.0" encoding="utf-8"?>
<!-- Generator: Adobe Illustrator 23.0.2, SVG Export Plug-In . SVG Version: 6.00 Build 0)  -->
<svg version="1.1" id="Camada_1" xmlns="http://www.w3.org/2000/svg" xmlns:xlink="http://www.w3.org/1999/xlink" x="0px" y="0px"
	 viewBox="0 0 270 270" style="enable-background:new 0 0 270 270;" xml:space="preserve">
<style type="text/css">
	.st0{fill:none;stroke:#000000;stroke-width:9;stroke-linecap:round;stroke-linejoin:round;stroke-miterlimit:10;}
	.st1{fill:none;stroke:#000000;stroke-width:6;stroke-linecap:round;stroke-linejoin:round;stroke-miterlimit:10;}
</style>
<path d="M108.1,155.2c16-20.2,12.5-49.6-7.7-65.6c-9.8-7.7-22-11.2-34.4-9.7c-12.4,1.5-23.5,7.7-31.2,17.4
	c-11.5,14.6-13.3,34.6-4.5,51c0.9,1.7,3,2.3,4.7,1.4c1.7-0.9,2.3-3,1.4-4.7c-7.5-13.9-5.9-30.9,3.8-43.3c6.6-8.3,16-13.6,26.5-14.8
	c10.5-1.2,20.9,1.7,29.2,8.3c17.2,13.6,20.1,38.6,6.6,55.7c-11.9,15.1-32.8,19.5-49.7,10.5l-0.5-0.3c-1.5-0.8-3.3-0.4-4.4,0.9
	L15.6,203c-0.3,0.4-2.7,0.6-5.3-1.4c-2.6-2-3-4.4-2.7-4.8l29.1-35.8c1.2-1.5,1-3.7-0.5-4.9c-1.5-1.2-3.7-1-4.9,0.5L2.2,192.4
	c-3.2,4-1.5,10.4,3.8,14.6c2.7,2.1,5.8,3.2,8.5,3.2c2.6,0,5-1,6.5-2.9l30.7-38.7C71.3,177.8,94.6,172.3,108.1,155.2z"/>
<path d="M265.8,226.3h-21.4l0-222.8c0-0.9-0.4-1.8-1-2.5c-0.7-0.7-1.5-1-2.5-1h-183c-1.9,0-3.5,1.6-3.5,3.5v52.4
	c0,1.9,1.6,3.5,3.5,3.5s3.5-1.6,3.5-3.5V6.9h176l0,222.8c0,0.9,0.4,1.8,1,2.5c0.7,0.7,1.5,1,2.5,1h21.4v29.2h-64.3V160.3
	c0-1.9-1.6-3.5-3.5-3.5h-72.7c-0.9,0-1.8,0.4-2.5,1c-0.7,0.7-1,1.6-1,2.5l0.5,102.1H61.4v-62c0-1.9-1.6-3.5-3.5-3.5
	s-3.5,1.6-3.5,3.5V266c0,1.9,1.6,3.5,3.5,3.5h64.3c0.9,0,1.8-0.4,2.5-1c0.7-0.7,1-1.6,1-2.5l-0.5-102.1h65.7V266
	c0,1.9,1.6,3.5,3.5,3.5h71.3c1.9,0,3.5-1.6,3.5-3.5v-36.2C269.3,227.8,267.7,226.3,265.8,226.3z"/>
<path d="M164.6,30.8h-25.9c-1.9,0-3.5,1.6-3.5,3.5v19.9h-19.9c-1.9,0-3.5,1.6-3.5,3.5v25.9c0,1.9,1.6,3.5,3.5,3.5h19.9v19.8
	c0,1.9,1.6,3.5,3.5,3.5h25.9c1.9,0,3.5-1.6,3.5-3.5V96.7c0-1.9-1.6-3.5-3.5-3.5s-3.5,1.6-3.5,3.5v6.7h-18.9V83.6
	c0-1.9-1.6-3.5-3.5-3.5h-19.9V61.2h19.9c1.9,0,3.5-1.6,3.5-3.5V37.8h18.9v19.9c0,1.9,1.6,3.5,3.5,3.5h19.8v18.9h-19.8
	c-1.9,0-3.5,1.6-3.5,3.5s1.6,3.5,3.5,3.5H188c1.9,0,3.5-1.6,3.5-3.5V57.7c0-1.9-1.6-3.5-3.5-3.5h-19.8V34.3
	C168.1,32.4,166.6,30.8,164.6,30.8z"/>
</svg>
