<?xml version="1.0" encoding="utf-8"?>
<!-- Generator: Adobe Illustrator 23.0.2, SVG Export Plug-In . SVG Version: 6.00 Build 0)  -->
<svg version="1.1" id="Camada_1" xmlns="http://www.w3.org/2000/svg" xmlns:xlink="http://www.w3.org/1999/xlink" x="0px" y="0px"
	 viewBox="0 0 270 270" style="enable-background:new 0 0 270 270;" xml:space="preserve">
<style type="text/css">
	.st0{fill:none;stroke:#000000;stroke-width:9;stroke-linecap:round;stroke-linejoin:round;stroke-miterlimit:10;}
	.st1{fill:none;stroke:#000000;stroke-width:6;stroke-linecap:round;stroke-linejoin:round;stroke-miterlimit:10;}
</style>
<path d="M244.6,217.3L180,171.2c-4-2.9-9.5-2.5-13.1,0.9l-17.3,16.5c-1,1-2.6,1.2-3.9,0.5c-26-13.8-47.5-39.1-64.1-75.2
	c-0.7-1.4-0.2-3.2,1-4.1l23.2-17.2c3.9-2.9,5.3-8,3.3-12.5L77.4,8.5C76.3,6,74.2,4,71.7,3c-2.6-1-5.4-0.9-7.9,0.2L24.4,21
	c-3.8,1.7-6.3,5.7-6.1,9.9c2.7,50.9,15.4,95,37.8,131c22.2,35.7,54.6,64.4,96.1,85.2c11.8,5.9,24.6,11.3,38,16.1
	c1.8,0.6,3.8-0.3,4.5-2.1s-0.3-3.8-2.1-4.5c-13.1-4.6-25.6-9.9-37.2-15.7c-40.4-20.2-71.8-48-93.3-82.6
	C40.3,123.3,28,80.3,25.4,30.6c-0.1-1.3,0.7-2.6,2-3.2L66.6,9.6c0.8-0.4,1.7-0.4,2.6-0.1c0.8,0.3,1.5,0.9,1.9,1.8L102.8,83
	c0.6,1.4,0.2,3.1-1.1,4l-23.2,17.2c-3.9,2.9-5.3,8.2-3.2,12.6c17.2,37.5,39.8,63.9,67.2,78.5c3.9,2.1,8.7,1.4,12-1.7l17.3-16.5
	c1.2-1.1,2.9-1.2,4.2-0.3l64.6,46.1c1.5,1.1,1.8,3.1,0.8,4.6L217.1,262c-1.1,1.6-0.7,3.8,0.9,4.9c0.6,0.4,1.3,0.6,2,0.6
	c1.1,0,2.2-0.5,2.9-1.5l24.1-34.3C250.3,227,249.2,220.6,244.6,217.3z"/>
</svg>
