<?xml version="1.0" encoding="utf-8"?>
<!-- Generator: Adobe Illustrator 23.0.2, SVG Export Plug-In . SVG Version: 6.00 Build 0)  -->
<svg version="1.1" id="Camada_1" xmlns="http://www.w3.org/2000/svg" xmlns:xlink="http://www.w3.org/1999/xlink" x="0px" y="0px"
	 viewBox="0 0 270 270" style="enable-background:new 0 0 270 270;" xml:space="preserve">
<style type="text/css">
	.st0{fill:none;stroke:#000000;stroke-width:9;stroke-linecap:round;stroke-linejoin:round;stroke-miterlimit:10;}
	.st1{fill:none;stroke:#000000;stroke-width:6;stroke-linecap:round;stroke-linejoin:round;stroke-miterlimit:10;}
</style>
<path d="M119.3,145.1c30,0,54.5-24.4,54.5-54.5c0-30-24.4-54.5-54.5-54.5c-30,0-54.5,24.4-54.5,54.5
	C64.8,120.6,89.2,145.1,119.3,145.1z M119.3,43.1c26.2,0,47.5,21.3,47.5,47.5c0,26.2-21.3,47.5-47.5,47.5
	c-26.2,0-47.5-21.3-47.5-47.5C71.8,64.4,93.1,43.1,119.3,43.1z"/>
<path d="M78.6,144.8c-0.7-2.2-2.3-3.9-4.3-4.5c-1.8-0.6-3.8-0.3-5.4,0.9c-33.8,24.2-54.8,72.1-54.8,125c0,1.9,1.6,3.5,3.5,3.5h47.5
	c1.9,0,3.5-1.6,3.5-3.5s-1.6-3.5-3.5-3.5h-44c0.9-48.9,20.2-92.7,51-115.2l30.1,86.3c0.6,1.8,2.6,2.8,4.5,2.2
	c1.8-0.6,2.8-2.6,2.2-4.5L78.6,144.8z"/>
<path d="M249.9,262.7h-25.4c-0.9-51.5-21.7-97.9-54.8-121.5c-1.6-1.2-3.6-1.5-5.4-0.9c-2,0.6-3.6,2.3-4.3,4.5l-38.5,116.4
	c-0.6,1.8,0.4,3.8,2.2,4.4c1.8,0.6,3.8-0.4,4.4-2.2l38.3-115.9c31.5,23.1,51,68.5,51,118.7c0,1.9,1.6,3.5,3.5,3.5h28.9
	c1.9,0,3.5-1.6,3.5-3.5S251.8,262.7,249.9,262.7z"/>
<path d="M122.6,234.1l20.6-62.1c0.4-1.3,0.1-2.8-1-3.7l-20.6-18.6c-1.3-1.2-3.4-1.2-4.7,0l-20.6,18.6c-1,0.9-1.4,2.4-1,3.7
	l20.6,62.1c0.5,1.4,1.8,2.4,3.3,2.4C120.8,236.5,122.1,235.5,122.6,234.1z M102.8,172l16.5-14.9l16.5,14.9l-16.5,49.9L102.8,172z"/>
</svg>
