<?xml version="1.0" encoding="utf-8"?>
<!-- Generator: Adobe Illustrator 23.0.2, SVG Export Plug-In . SVG Version: 6.00 Build 0)  -->
<svg version="1.1" id="Camada_1" xmlns="http://www.w3.org/2000/svg" xmlns:xlink="http://www.w3.org/1999/xlink" x="0px" y="0px"
	 viewBox="0 0 270 270" style="enable-background:new 0 0 270 270;" xml:space="preserve">
<style type="text/css">
	.st0{fill:none;stroke:#000000;stroke-width:9;stroke-linecap:round;stroke-linejoin:round;stroke-miterlimit:10;}
	.st1{fill:none;stroke:#000000;stroke-width:6;stroke-linecap:round;stroke-linejoin:round;stroke-miterlimit:10;}
</style>
<g>
	<path d="M213.5,0.7H56.5c-15.9,0-28.8,12.8-28.8,28.5v211.6c0,15.7,12.9,28.5,28.8,28.5h157.1c15.9,0,28.8-12.8,28.8-28.5
		c0-1.9-1.5-3.4-3.4-3.4s-3.4,1.5-3.4,3.4c0,11.9-9.8,21.6-21.9,21.6H56.5c-12.1,0-21.9-9.7-21.9-21.6V29.2
		c0-11.9,9.8-21.6,21.9-21.6h157.1c12.1,0,21.9,9.7,21.9,21.6v174.1c0,1.9,1.5,3.4,3.4,3.4s3.4-1.5,3.4-3.4V29.2
		C242.3,13.5,229.4,0.7,213.5,0.7z"/>
	<path d="M64.4,63.3h116.4c1.9,0,3.5-1.6,3.5-3.5s-1.6-3.5-3.5-3.5H64.4c-1.9,0-3.5,1.6-3.5,3.5S62.5,63.3,64.4,63.3z"/>
	<path d="M148.3,99.1c0-1.9-1.6-3.5-3.5-3.5H64.4c-1.9,0-3.5,1.6-3.5,3.5s1.6,3.5,3.5,3.5h80.3C146.7,102.6,148.3,101,148.3,99.1z"
		/>
	<path d="M163.6,214.8c0.8,1.9,2.8,4.1,7.7,4.1c3,0,5.4-0.8,7.1-2.5c1.7-1.7,2.5-4,2.5-6.9c0-5.8-0.6-10-1.8-12.7
		c-1.4-3.1-5.2-5.9-12.1-9c-9.9-4.5-16.7-7.8-20.2-9.9c-3.2-1.9-6-4.6-8.4-8.2c-2.3-3.4-3.4-7.2-3.4-11.5c0-6.2,2.3-10.8,7.1-14.3
		c5.1-3.7,13-6,23.5-6.9c1.6-0.1,2.8-1.4,2.8-3v-4.6h12.1c1.7,0,3-1.4,3-3c0-1.7-1.4-3-3-3h-15.1c-1.7,0-3,1.4-3,3v4.9
		c-10.4,1.2-18.2,3.7-23.8,7.8c-6.4,4.6-9.6,11.1-9.6,19.2c0,5.5,1.5,10.5,4.5,14.9c2.9,4.3,6.3,7.6,10.3,10
		c3.6,2.1,10.1,5.3,19.7,9.7h-31c-1.7,0-3,1.4-3,3v4.7c0,11.6,3.8,20,11.2,24.9c7,4.5,15.2,7.2,24.4,7.8c0.1,0,0.1,0,0.2,0
		c1.6,0,2.9-1.2,3-2.8c0.1-1.7-1.1-3.1-2.8-3.2c-8.2-0.6-15.5-2.9-21.6-6.9c-5.7-3.7-8.5-10.2-8.5-19.8v-1.6h26.8v2.8
		C162.3,210.7,163,213.5,163.6,214.8z M173.5,199.3c0.6,1.3,1.3,4.2,1.3,10.2c0,1.3-0.2,2.2-0.7,2.7c-0.6,0.6-1.9,0.7-2.8,0.7
		c-1.2,0-2-0.2-2.2-0.5c-0.1-0.3-0.8-2.2-0.8-10.7v-5.8c0-0.2,0-0.5-0.1-0.7C172.4,197.4,173.3,198.8,173.5,199.3z"/>
	<path d="M180,247.2c0.1,0,0.1,0,0.2,0c1.6,0,2.9-1.2,3-2.8l0.3-4.8c0-0.1,0-0.1,0-0.2v-6.3c10.5-1.4,18.7-4.5,24.3-9.4
		c6.3-5.4,9.5-12.9,9.5-22.3c0-5.8-1.2-10.8-3.5-14.8c-2.3-4-5.2-7.1-8.7-9.3c-3.2-2-8.9-4.9-17.5-8.6c-2.9-1.3-5.4-2.4-7.4-3.4
		h30.3c1.5,0,2.8-1.2,3-2.7c0.2-2.2,0.3-3.7,0.3-4.8c0-8-2.9-14.3-8.7-18.9c-5.5-4.3-13.7-7-24.4-8c-1.7-0.2-3.1,1.1-3.3,2.7
		c-0.2,1.7,1.1,3.1,2.7,3.3c9.5,0.9,16.6,3.2,21.2,6.8c4.3,3.4,6.4,8.1,6.4,14.2c0,0.4,0,0.9-0.1,1.5h-27.1v-0.9
		c0-4.9-0.5-7.9-1.6-9.8c-1.3-2.3-3.9-3.4-7.5-3.4c-2.9,0-5.2,0.9-6.8,2.7c-1.5,1.7-2.3,4.1-2.3,7.1c0,4.7,1.5,8.2,4.3,10.3
		c1.4,1,4.8,3.1,18.3,9.1c8.2,3.6,13.8,6.3,16.7,8.2c2.7,1.7,4.8,4.1,6.7,7.2c1.8,3.1,2.7,7,2.7,11.8c0,7.6-2.4,13.4-7.4,17.7
		c-5.1,4.4-13.1,7.2-23.7,8.3c-1.5,0.2-2.7,1.5-2.7,3v8.9l-0.3,4.7C177,245.7,178.3,247.1,180,247.2z M170.4,160.4
		c-1.2-0.9-1.8-2.7-1.8-5.4c0-1.4,0.3-2.5,0.7-3c0.4-0.4,1.2-0.7,2.3-0.7c1.6,0,2.2,0.4,2.3,0.4c0.1,0.1,0.7,1.4,0.7,6.7v4
		c0,0.1,0,0.2,0,0.3C172.2,161.5,171,160.8,170.4,160.4z"/>
	<path d="M110.7,134.8H64.1c-1.9,0-3.5,1.6-3.5,3.5c0,1.9,1.6,3.5,3.5,3.5h46.6c1.9,0,3.5-1.6,3.5-3.5
		C114.2,136.4,112.6,134.8,110.7,134.8z"/>
	<path d="M64.1,174.1c-1.9,0-3.5,1.6-3.5,3.5c0,1.9,1.6,3.5,3.5,3.5h46.6c1.9,0,3.5-1.6,3.5-3.5c0-1.9-1.6-3.5-3.5-3.5H64.1z"/>
	<path d="M64.1,220.4h48c1.9,0,3.5-1.6,3.5-3.5c0-1.9-1.6-3.5-3.5-3.5h-48c-1.9,0-3.5,1.6-3.5,3.5C60.6,218.8,62.1,220.4,64.1,220.4
		z"/>
</g>
</svg>
