<?xml version="1.0" encoding="utf-8"?>
<!-- Generator: Adobe Illustrator 23.0.2, SVG Export Plug-In . SVG Version: 6.00 Build 0)  -->
<svg version="1.1" id="Camada_1" xmlns="http://www.w3.org/2000/svg" xmlns:xlink="http://www.w3.org/1999/xlink" x="0px" y="0px"
	 viewBox="0 0 270 270" style="enable-background:new 0 0 270 270;" xml:space="preserve">
<style type="text/css">
	.st0{fill:none;stroke:#000000;stroke-width:9;stroke-linecap:round;stroke-linejoin:round;stroke-miterlimit:10;}
	.st1{fill:none;stroke:#000000;stroke-width:6;stroke-linecap:round;stroke-linejoin:round;stroke-miterlimit:10;}
</style>
<path d="M254.9,226.1c-23.1-13.4-27.3-49.5-31.8-87.6l-0.1-0.4c-2.1-18.4-4.3-37.3-8.8-54.5c-1-4-2.2-7.8-3.4-11.3
	c-0.7-2.1-2.9-3.2-5-2.5c-2.1,0.7-3.2,2.9-2.5,5c1.1,3.3,2.2,7,3.2,10.8c4.3,16.6,6.5,35.3,8.6,53.4l0.1,0.4
	c4.6,39.3,9,76.5,34,92.5c-75.5,11.7-152,11.7-227.5,0c24.9-16,29.3-53.1,33.9-92.4l0.1-0.9c2.9-25.1,5.9-51,14.6-71.4
	c9.6-22.6,24.5-35.2,46.9-39.6c1.8-0.3,3.1-1.8,3.2-3.6c0.5-8.1,5.7-11.3,8.8-12.5c4-1.6,8.4-1.6,12.5,0c5.2,2.1,8.5,6.6,8.8,12.5
	c0.1,1.8,1.4,3.3,3.2,3.6c14.1,2.8,25.2,8.8,33.9,18.5c1.5,1.6,3.9,1.8,5.6,0.3c1.6-1.5,1.8-3.9,0.3-5.6
	c-9.3-10.3-20.9-17-35.4-20.4c-1.4-7.5-6.2-13.5-13.4-16.3c-2.9-1.2-6-1.8-9.2-1.8c-3.1,0-6.2,0.6-9.1,1.8
	c-7.3,2.8-12.1,8.7-13.4,16.3c-23.4,5.4-39.7,19.7-49.8,43.7C54.1,85.5,51,112,48,137.7l-0.1,0.9c-4.5,38.2-8.8,74.4-32,87.6
	c-3.4,2-4.6,6.2-2.7,9.6c0,0.1,0.1,0.1,0.1,0.2c1.2,2,3.4,3.2,5.7,3.3c28.4,4.5,57,7.3,85.6,8.4c4,12.2,15.9,20.2,30.5,20.4
	c0.2,0,0.3,0,0.5,0c14.6,0,26.7-7.8,30.8-20c0-0.1,0.1-0.2,0.1-0.4c28.6-1.2,57.1-4,85.5-8.4c3.7-0.2,6.7-3.3,6.7-7
	C258.7,229.7,257.2,227.3,254.9,226.1z M135.6,260.4c-0.1,0-0.2,0-0.4,0c-7.7-0.1-17.6-3.4-22-12.2c7.4,0.2,14.9,0.3,22.3,0.3
	c7.5,0,15-0.1,22.5-0.3C153.6,257.1,143.5,260.4,135.6,260.4z"/>
</svg>
