<?xml version="1.0" encoding="utf-8"?>
<!-- Generator: Adobe Illustrator 23.0.2, SVG Export Plug-In . SVG Version: 6.00 Build 0)  -->
<svg version="1.1" id="Camada_1" xmlns="http://www.w3.org/2000/svg" xmlns:xlink="http://www.w3.org/1999/xlink" x="0px" y="0px"
	 viewBox="0 0 270 270" style="enable-background:new 0 0 270 270;" xml:space="preserve">
<style type="text/css">
	.st0{fill:none;stroke:#000000;stroke-width:9;stroke-linecap:round;stroke-linejoin:round;stroke-miterlimit:10;}
	.st1{fill:none;stroke:#000000;stroke-width:6;stroke-linecap:round;stroke-linejoin:round;stroke-miterlimit:10;}
</style>
<path d="M120.3,145.1c30,0,54.5-24.4,54.5-54.5c0-30-24.4-54.5-54.5-54.5c-30,0-54.5,24.4-54.5,54.5
	C65.8,120.6,90.2,145.1,120.3,145.1z M120.3,43.1c26.2,0,47.5,21.3,47.5,47.5c0,26.2-21.3,47.5-47.5,47.5
	c-26.2,0-47.5-21.3-47.5-47.5C72.8,64.4,94.1,43.1,120.3,43.1z"/>
<path d="M79.6,144.8c-0.7-2.2-2.3-3.9-4.3-4.5c-1.8-0.6-3.8-0.3-5.4,0.9c-33.8,24.2-54.8,72.1-54.8,125c0,1.9,1.6,3.5,3.5,3.5h47.5
	c1.9,0,3.5-1.6,3.5-3.5s-1.6-3.5-3.5-3.5h-44c0.9-48.9,20.2-92.7,51-115.2l30.1,86.3c0.6,1.8,2.6,2.8,4.5,2.2
	c1.8-0.6,2.8-2.6,2.2-4.5L79.6,144.8z"/>
<path d="M250.9,262.7h-25.4c-0.9-51.5-21.7-97.9-54.8-121.5c-1.6-1.2-3.6-1.5-5.4-0.9c-2,0.6-3.6,2.3-4.3,4.5l-38.5,116.4
	c-0.6,1.8,0.4,3.8,2.2,4.4c1.8,0.6,3.8-0.4,4.4-2.2l38.3-115.9c31.5,23.1,51,68.5,51,118.7c0,1.9,1.6,3.5,3.5,3.5h28.9
	c1.9,0,3.5-1.6,3.5-3.5S252.8,262.7,250.9,262.7z"/>
<path d="M123.6,234.1l20.6-62.1c0.4-1.3,0.1-2.8-1-3.7l-20.6-18.6c-1.3-1.2-3.4-1.2-4.7,0l-20.6,18.6c-1,0.9-1.4,2.4-1,3.7
	l20.6,62.1c0.5,1.4,1.8,2.4,3.3,2.4C121.8,236.5,123.1,235.6,123.6,234.1z M103.8,172l16.5-14.9l16.5,14.9l-16.5,49.9L103.8,172z"/>
<path d="M252,31.6l-27.8-4L211.7,2.3c-0.6-1.2-1.8-2-3.1-2s-2.5,0.8-3.1,2L193,27.6l-27.8,4c-1.3,0.2-2.4,1.1-2.8,2.4
	c-0.4,1.3-0.1,2.7,0.9,3.6l20.1,19.6l-4.8,27.7c-0.2,1.3,0.3,2.6,1.4,3.4c0.6,0.4,1.3,0.7,2.1,0.7c0.6,0,1.1-0.1,1.6-0.4l24.9-13.1
	l24.9,13.1c1.2,0.6,2.6,0.5,3.7-0.3c1.1-0.8,1.6-2.1,1.4-3.4l-4.8-27.7L254,37.6c1-0.9,1.3-2.3,0.9-3.6
	C254.4,32.7,253.3,31.8,252,31.6z M227.6,53.5c-0.8,0.8-1.2,2-1,3.1l3.9,22.5l-20.2-10.6c-0.5-0.3-1.1-0.4-1.6-0.4s-1.1,0.1-1.6,0.4
	l-20.2,10.6l3.9-22.5c0.2-1.1-0.2-2.3-1-3.1l-16.4-16l22.6-3.3c1.1-0.2,2.1-0.9,2.6-1.9l10.1-20.5l10.1,20.5c0.5,1,1.5,1.7,2.6,1.9
	l22.6,3.3L227.6,53.5z"/>
</svg>
