<?xml version="1.0" encoding="utf-8"?>
<!-- Generator: Adobe Illustrator 23.0.2, SVG Export Plug-In . SVG Version: 6.00 Build 0)  -->
<svg version="1.1" id="Camada_1" xmlns="http://www.w3.org/2000/svg" xmlns:xlink="http://www.w3.org/1999/xlink" x="0px" y="0px"
	 viewBox="0 0 270 270" style="enable-background:new 0 0 270 270;" xml:space="preserve">
<style type="text/css">
	.st0{fill:none;stroke:#000000;stroke-width:9;stroke-linecap:round;stroke-linejoin:round;stroke-miterlimit:10;}
	.st1{fill:none;stroke:#000000;stroke-width:6;stroke-linecap:round;stroke-linejoin:round;stroke-miterlimit:10;}
</style>
<path d="M158.7,4c-24.4,0-45.6,12.4-58.8,30.8c-3.6-1-7.3-1.6-11.2-1.6c-19.7,0-35.8,13.4-41.2,31.4C22.4,71.2,4,93.8,4,120.7
	c0,32.1,26.2,58.4,58.4,58.4h38c4.8,0.1,8.8-3.8,8.9-8.6c0.1-4.8-3.8-8.8-8.6-8.9c-0.1,0-0.2,0-0.2,0h-38
	c-22.7,0-40.9-18.2-40.9-40.9c0-20.3,14.7-37,34-40.2c3.8-0.6,6.7-3.6,7.2-7.4c1.9-12.7,12.6-22.4,25.9-22.4c3.8,0,7.4,0.9,10.8,2.4
	c4.1,1.8,8.9,0.2,11.1-3.6c9.6-16.7,27.5-27.9,48.2-27.9c29.6,0,53.7,23.1,55.4,52.3c0.2,3.7,2.7,6.8,6.2,7.8
	c16.7,5.1,28.9,20.6,28.9,39.1c0,22.7-18.2,40.9-40.9,40.9h-38c-4.8-0.1-8.8,3.8-8.9,8.6c-0.1,4.8,3.8,8.8,8.6,8.9
	c0.1,0,0.2,0,0.2,0h38c32.1,0,58.4-26.2,58.4-58.4c0-24.2-14.9-45-36-53.8C225.7,31.4,195.5,4,158.7,4z M143.9,149.7
	c-3.2-0.1-6.2,1.5-7.8,4.3l-28.6,46.7c-2.6,4.1-1.3,9.5,2.8,12.1c1.4,0.9,3,1.3,4.7,1.3h25.3l-24,39.2c-2.5,4.1-1.2,9.5,2.9,12
	c4.1,2.5,9.5,1.2,12-2.9l0,0l32.1-52.5c2.5-4.1,1.2-9.5-2.9-12c-1.4-0.8-3-1.3-4.6-1.3h-25.3l20.4-33.4c2.6-4.1,1.5-9.5-2.6-12.1
	C147,150.3,145.5,149.8,143.9,149.7z"/>
</svg>
