<?xml version="1.0" encoding="utf-8"?>
<!-- Generator: Adobe Illustrator 23.0.2, SVG Export Plug-In . SVG Version: 6.00 Build 0)  -->
<svg version="1.1" id="Camada_1" xmlns="http://www.w3.org/2000/svg" xmlns:xlink="http://www.w3.org/1999/xlink" x="0px" y="0px"
	 viewBox="0 0 270 270" style="enable-background:new 0 0 270 270;" xml:space="preserve">
<style type="text/css">
	.st0{fill:none;stroke:#000000;stroke-width:9;stroke-linecap:round;stroke-linejoin:round;stroke-miterlimit:10;}
	.st1{fill:none;stroke:#000000;stroke-width:6;stroke-linecap:round;stroke-linejoin:round;stroke-miterlimit:10;}
</style>
<rect x="15.7" y="45.7" width="30.8" height="152.3"/>
<rect x="15.7" y="211.9" width="22.4" height="18.5"/>
<rect x="59.3" y="211.9" width="22.3" height="18.5"/>
<rect x="94.3" y="211.9" width="15.4" height="18.5"/>
<rect x="59.3" y="45.7" width="22.3" height="152.3"/>
<rect x="240.3" y="45.7" width="15.4" height="151.6"/>
<rect x="94.3" y="45.7" width="15.4" height="152.3"/>
<rect x="140.5" y="45.7" width="15.4" height="151.6"/>
<rect x="168.2" y="45.7" width="15.4" height="151.6"/>
<rect x="195.6" y="45.7" width="15.4" height="151.6"/>
<rect x="121.2" y="45.7" width="9" height="152.3"/>
<rect x="218.7" y="45.7" width="7.7" height="151.6"/>
<rect x="240.3" y="211.9" width="15.4" height="18.4"/>
<rect x="140.5" y="211.9" width="15.4" height="18.4"/>
<rect x="168.2" y="211.9" width="15.4" height="18.4"/>
<rect x="195.6" y="211.9" width="15.4" height="18.4"/>
<rect x="121.2" y="211.9" width="9" height="18.5"/>
<rect x="218.7" y="211.9" width="7.7" height="18.4"/>
</svg>
