<?xml version="1.0" encoding="utf-8"?>
<!-- Generator: Adobe Illustrator 23.0.2, SVG Export Plug-In . SVG Version: 6.00 Build 0)  -->
<svg version="1.1" id="Camada_1" xmlns="http://www.w3.org/2000/svg" xmlns:xlink="http://www.w3.org/1999/xlink" x="0px" y="0px"
	 viewBox="0 0 270 270" style="enable-background:new 0 0 270 270;" xml:space="preserve">
<style type="text/css">
	.st0{fill:none;stroke:#000000;stroke-width:9;stroke-linecap:round;stroke-linejoin:round;stroke-miterlimit:10;}
	.st1{fill:none;stroke:#000000;stroke-width:6;stroke-linecap:round;stroke-linejoin:round;stroke-miterlimit:10;}
</style>
<g>
	<g>
		<g>
			<path d="M264.7,209.1c-1.2,0-2.4-0.8-2.8-2c-11.7-31.8-34.7-37-34.9-37.1l-12.2-2.6l-18.4,17.6c-1.1,1.1-3,1.1-4.1,0l-18.9-17.6
				l-11.5,2.9c-0.1,0-0.1,0-0.2,0c-5.4,1-10.4,3.2-14.7,6.6c-1.3,1-3.2,0.8-4.2-0.5c-1-1.3-0.8-3.2,0.5-4.2c5.1-4,10.9-6.6,17.3-7.8
				l13-3.2c1-0.2,2,0,2.8,0.7l18,16.7l17.5-16.7c0.7-0.7,1.7-1,2.7-0.8l13.7,2.9c1.1,0.2,26.5,6,39.3,40.9c0.6,1.6-0.2,3.3-1.8,3.9
				C265.4,209.1,265,209.1,264.7,209.1z"/>
		</g>
	</g>
	<g>
		<g>
			<path d="M193.9,164.8c-0.1,0-0.1,0-0.2,0c-19.4-1-28.2-25.4-30.1-38.2c-1.4-9.5-1.8-24.8-1.8-25.5c0-0.4,0-0.7,0.2-1.1
				c0.1-0.2,1.9-5.3,5.5-8.8c1-0.9,2.4-1.1,3.6-0.4c0.3,0.2,0.5,0.4,0.7,0.6c1.6,1.5,17.1,15,42.2,2.2c1.5-0.8,3.3-0.2,4,1.3
				c0.8,1.5,0.2,3.3-1.3,4C193,111,176.1,102,170,97.6c-1.1,1.6-1.8,3.2-2.1,4c0.1,2.9,0.5,16,1.8,24.1c2,12.8,10,32.2,24.3,33.1
				c10.6-0.9,24.7-13.9,24.7-26c0-1.7,1.3-3,3-3s3,1.3,3,3c0,15.7-17,31-30.5,32C194.1,164.8,194,164.8,193.9,164.8z"/>
		</g>
	</g>
	<g>
		<g>
			<path d="M157.5,162.4c-4.5,0-8.6-1.9-13.7-4.6c-0.9-0.4-1.5-1.3-1.6-2.2c-0.1-1,0.2-1.9,0.9-2.6c9.6-9.2,11-27.9,11-38.3
				c0-22.2,4.6-47.7,40.3-47.7c22.7,0,38.5,15.6,38.5,37.9c0,12.3,2.8,43.1,9.7,46.5c0.9,0.5,1.6,1.4,1.6,2.4c0.1,1-0.4,2.1-1.2,2.7
				c-9.1,6.7-20.7,6.3-25.6,3.5c-1.4-0.8-1.9-2.7-1.1-4.1c0.8-1.4,2.7-1.9,4.1-1.1c2.1,1.2,9.1,2.2,15.9-1.2
				c-9.3-12.1-9.4-48.3-9.4-48.7c0-19.1-13.1-31.9-32.5-31.9c-30.1,0-34.3,20-34.3,41.7c0,10.3-1.4,28.2-10.1,39.5
				c5.9,2.8,9.1,3.2,15.1-0.3c1.4-0.8,3.3-0.3,4.1,1.1c0.8,1.4,0.3,3.3-1.1,4.1C164,161.5,160.6,162.4,157.5,162.4z"/>
		</g>
	</g>
</g>
<g>
	<g>
		<g>
			<path d="M9.7,141.4c-0.3,0-0.6-0.1-1-0.2c-1.6-0.5-2.4-2.2-1.9-3.8c7.2-21.2,22.2-34.9,42.4-38.6l14.1-3.5c1-0.2,2,0,2.8,0.7
				l19.6,18.2L104.8,96c0.7-0.7,1.7-1,2.7-0.8l14.8,3.1c0.1,0,0.2,0.1,0.3,0.1c0.7,0.2,17.9,6.2,31.4,23.3c1,1.3,0.8,3.2-0.5,4.2
				c-1.3,1-3.2,0.8-4.2-0.5c-11.7-14.9-26.8-20.7-28.5-21.3l-13.1-2.8l-20,19.1c-1.1,1.1-3,1.1-4.1,0l-20.5-19.1l-12.6,3.1
				c-0.1,0-0.1,0-0.2,0C32.2,108,19.1,120,12.5,139.3C12.1,140.6,11,141.4,9.7,141.4z"/>
		</g>
	</g>
	<g>
		<g>
			<path d="M86.4,101.7c-0.3,0-0.5,0-0.8,0c-15.1-0.1-28.8-21.8-31.7-30.5c-3.4-10.2-4.6-19.8-3.6-29.2C51.5,29.7,54.1,4,88.3,4
				c0,0,0.1,0,0.1,0c23,0,33,15.1,34.6,29.3c0.2,1.6-1,3.1-2.6,3.3c-1,0.1-2-0.3-2.6-1c3.3,9.1,3.3,22.1-0.4,33.9
				C114,80.2,102.2,101.7,86.4,101.7z M88.3,10c-26.5,0-30.5,16.8-32.1,32.6c-0.9,8.5,0.2,17.3,3.4,26.7c3,9.1,15.5,26.4,26.1,26.4
				c0,0,0.1,0,0.1,0c12.8,0.6,23.4-20.2,25.8-27.9c4.2-13.3,3.1-28.8-2.5-35.5c-2.1-2.5-4.6-3.5-7.6-3.2c-2.1,0.5-3.4,0.9-4.1,1.3
				c0.3,0.2,0.6,0.4,0.9,0.5c1.1,0.5,1.8,1.7,1.7,3c-0.1,1.3-1,2.3-2.2,2.7c-0.4,0.1-10.1,2.7-21.3-6.4c-3.1-2.5-4.9-2-5.5-1.8
				c-3.5,1-6.2,6.5-6.8,8.4c-0.5,1.6-2.3,2.4-3.8,1.8c-1.6-0.5-2.4-2.3-1.8-3.8c0.4-1,3.7-10.2,10.8-12.2c2.5-0.7,6.4-0.8,10.9,2.9
				c4,3.2,7.6,4.6,10.3,5.2c0-0.3,0-0.6,0-0.9c0.4-4,5.4-5.6,9.7-6.5c0.1,0,0.2,0,0.3,0c5.2-0.6,9.7,1.2,13.1,5.3
				c1.2,1.5,2.3,3.3,3.2,5.3C116.2,27.8,111.9,10,88.3,10C88.3,10,88.3,10,88.3,10z"/>
		</g>
	</g>
</g>
<g>
	<g>
		<g>
			<path d="M165,268.6c-1,0-2-0.5-2.6-1.5c-6.6-11.2-12.9-18.6-27.2-25.9l-6.6-1.6c-3.6-0.9-7.3,0.1-10,2.6l-7.9,7.4
				c-5.8,5.4-14.8,5.3-20.5-0.1l-8.4-8.1c-2.1-2-5-2.8-7.9-2.2l-8.5,1.8c-1.6,0.6-16.7,6.4-28.5,21.3c-1,1.3-2.9,1.5-4.2,0.5
				c-1.3-1-1.5-2.9-0.5-4.2c13.5-17.1,30.7-23.1,31.4-23.3c0.1,0,0.2-0.1,0.3-0.1l8.7-1.9c4.8-1,9.7,0.4,13.3,3.8l8.4,8.1
				c3.4,3.3,8.8,3.3,12.3,0.1l7.9-7.4c4.2-3.9,10-5.4,15.5-4l6.9,1.7c0.2,0.1,0.4,0.1,0.6,0.2c15.7,7.9,22.9,16.4,29.9,28.3
				c0.8,1.4,0.4,3.3-1.1,4.1C166.1,268.5,165.6,268.6,165,268.6z"/>
		</g>
	</g>
	<g>
		<g>
			<path d="M99.9,238.4c-15.8,0-27.7-21.5-31-32.1c-3.7-11.9-3.7-24.8-0.4-33.9c-0.6,0.7-1.6,1.1-2.6,1c-1.6-0.2-2.8-1.7-2.6-3.3
				c1.7-14.2,11.6-29.3,34.6-29.3c0,0,0,0,0.1,0c4.8,0,6.8,0.7,8,1.4c0.3-0.1,0.7-0.3,1.3-0.5c5.8-2.5,24.5,5.1,28.2,7.8
				c1.5,1.1,2.1,2.4,1.9,3.8c-0.2,1.2-1,2.2-2.2,2.7c-3.1,1.2-3.9,2-4.1,2.3c0.1,0.3,0.4,1,0.6,1.5c0.2,0.4,0.3,0.7,0.5,1.1
				c3.1,7.7,3.3,9.7,3.6,13.8c0.1,1.1,0.1,2.4,0.3,4c1,9.4-0.2,19-3.6,29.2c-2.9,8.7-16.6,30.4-31.7,30.5
				C100.4,238.4,100.1,238.4,99.9,238.4z M83.6,165.7c-2.6,0-4.7,1.1-6.5,3.3c-5.5,6.6-6.6,22.2-2.5,35.5
				c2.4,7.7,13.1,28.5,25.8,27.9c0,0,0.1,0,0.1,0c10.5,0,23.1-17.4,26.1-26.4c3.1-9.4,4.2-18.1,3.4-26.7c-0.2-1.8-0.3-3.2-0.3-4.3
				c-0.2-3.5-0.3-4.8-3.1-12c-0.1-0.3-0.3-0.6-0.4-0.9c-0.7-1.7-1.6-3.7-0.7-6.1c0.5-1.3,1.5-2.4,3.2-3.5c-5.7-2.6-16.6-6-19.1-5.3
				c-2.7,1.2-4.4,1.8-6.5,0.3c-0.3-0.2-1.1-0.7-5.2-0.7c0,0,0,0-0.1,0c-23.6,0-27.9,17.7-28.6,23.7c0.9-2,2-3.8,3.2-5.3
				c3.4-4.1,7.9-5.9,13-5.3c3.4,0.3,5.5,1.7,7.1,2.8c1.6,1.1,1.7,1.1,2.3,0.7c13.1-7.5,25.5,3.5,30.2,10.3c0.9,1.4,0.6,3.2-0.8,4.2
				c-1.4,0.9-3.2,0.6-4.2-0.8c-0.4-0.6-10.7-15.1-22.3-8.5c-3.8,2.2-6.7,0.3-8.5-0.9c-1.3-0.9-2.5-1.7-4.3-1.8c0,0-0.1,0-0.1,0
				C84.4,165.8,84,165.7,83.6,165.7z"/>
		</g>
	</g>
</g>
</svg>
