<?xml version="1.0" encoding="utf-8"?>
<!-- Generator: Adobe Illustrator 23.0.2, SVG Export Plug-In . SVG Version: 6.00 Build 0)  -->
<svg version="1.1" id="Camada_1" xmlns="http://www.w3.org/2000/svg" xmlns:xlink="http://www.w3.org/1999/xlink" x="0px" y="0px"
	 viewBox="0 0 270 270" style="enable-background:new 0 0 270 270;" xml:space="preserve">
<style type="text/css">
	.st0{fill:none;stroke:#000000;stroke-width:9;stroke-linecap:round;stroke-linejoin:round;stroke-miterlimit:10;}
	.st1{fill:none;stroke:#000000;stroke-width:6;stroke-linecap:round;stroke-linejoin:round;stroke-miterlimit:10;}
</style>
<g>
	<path d="M213,1.2H57.1C41.3,1.2,28.4,14,28.4,29.7v211.6c0,15.7,12.8,28.5,28.6,28.5H213c15.8,0,28.6-12.8,28.6-28.5
		c0-1.9-1.5-3.4-3.4-3.4s-3.4,1.5-3.4,3.4c0,11.9-9.8,21.6-21.8,21.6H57.1c-12,0-21.8-9.7-21.8-21.6V29.7C35.3,17.8,45,8,57.1,8H213
		c12,0,21.8,9.7,21.8,21.6v174.1c0,1.9,1.5,3.4,3.4,3.4s3.4-1.5,3.4-3.4V29.7C241.6,14,228.7,1.2,213,1.2z"/>
	<path d="M184,61.9c0-1.9-1.6-3.5-3.5-3.5H64.9c-1.9,0-3.5,1.6-3.5,3.5s1.6,3.5,3.5,3.5h115.5C182.4,65.4,184,63.8,184,61.9z"/>
	<path d="M64.9,104.3h79.7c1.9,0,3.5-1.6,3.5-3.5s-1.6-3.5-3.5-3.5H64.9c-1.9,0-3.5,1.6-3.5,3.5S63,104.3,64.9,104.3z"/>
	<path d="M185.7,229.2c1.1,2.5,2.6,4.7,4.5,6.6c1.9,1.9,4.1,3.4,6.6,4.5c2.5,1.1,5.3,1.6,8.2,1.6c2.9,0,5.7-0.6,8.2-1.7
		c2.5-1.1,4.7-2.6,6.6-4.5c1.9-1.9,3.4-4.1,4.5-6.6c1.1-2.5,1.7-5.3,1.7-8.2c0-2.9-0.6-5.7-1.7-8.2c-1.1-2.5-2.6-4.7-4.5-6.7
		c-1.9-1.9-4.1-3.4-6.6-4.5c-2.5-1.1-5.3-1.6-8.2-1.6c-2.9,0-5.7,0.6-8.2,1.7c-2.5,1.1-4.7,2.6-6.6,4.5c-0.7,0.7-1.4,1.5-2,2.3
		l20.8-36.9c0.4-0.7,0.5-1.6,0.2-2.5c-0.3-0.8-0.9-1.5-1.6-1.8l-8-3.7c-1.4-0.7-3.2-0.1-4,1.3l-36.9,65.3c-0.4,0.7-0.5,1.5-0.3,2.3
		c0.2,0.8,0.7,1.5,1.4,1.9c0.7,0.4,1.5,0.5,2.3,0.3c0.8-0.2,1.5-0.7,1.9-1.4l35.5-62.8l2.4,1.1l-39.6,70.2H81.2
		c-1.7,0-3.1,1.4-3.1,3.1c0,1.7,1.4,3.1,3.1,3.1h83c1.1,0,2.1-0.6,2.7-1.6l18.7-33.2c-1,2.4-1.5,5.1-1.5,7.8
		C184.1,223.9,184.6,226.7,185.7,229.2z M190.2,221c0-2.1,0.4-4,1.1-5.8c0.8-1.8,1.9-3.4,3.2-4.7c1.3-1.3,2.9-2.4,4.7-3.2
		c1.8-0.8,3.7-1.1,5.8-1.1c2.1,0,4,0.4,5.8,1.1c1.8,0.8,3.4,1.9,4.7,3.2c1.4,1.4,2.4,3,3.2,4.7c0.8,1.8,1.2,3.7,1.2,5.8
		c0,2.1-0.4,4-1.2,5.8c-0.8,1.8-1.8,3.4-3.2,4.7c-1.4,1.4-3,2.4-4.7,3.2c-1.8,0.8-3.7,1.1-5.8,1.1c-2.1,0-4-0.4-5.8-1.1
		c-1.8-0.8-3.4-1.9-4.7-3.2c-1.4-1.3-2.4-2.9-3.2-4.7C190.6,225,190.2,223.1,190.2,221z"/>
	<path d="M205.1,232.7c3.3,0,6.1-1.1,8.3-3.4c2.3-2.3,3.4-5.1,3.4-8.3c0-3.3-1.1-6.1-3.4-8.3c-2.3-2.3-5.1-3.4-8.3-3.4
		c-3.3,0-6.1,1.1-8.3,3.4c-2.3,2.3-3.4,5.1-3.4,8.3c0,3.3,1.1,6.1,3.4,8.3C199,231.6,201.8,232.7,205.1,232.7z M199.5,221
		c0-1.6,0.5-2.9,1.6-4c1.1-1.1,2.4-1.6,4-1.6c1.6,0,2.9,0.5,4,1.6c1.1,1.1,1.6,2.4,1.6,4c0,1.6-0.5,2.9-1.6,4
		c-1.1,1.1-2.4,1.6-4,1.6c-1.6,0-2.9-0.5-4-1.6C200,223.9,199.5,222.6,199.5,221z"/>
	<path d="M159.3,174.5c-3.3,0-6.1,1.1-8.3,3.4c-2.3,2.3-3.4,5.1-3.4,8.3c0,3.3,1.1,6.1,3.4,8.3c2.3,2.3,5.1,3.4,8.3,3.4
		c3.3,0,6.1-1.1,8.3-3.4c2.3-2.3,3.4-5.1,3.4-8.3c0-3.3-1.1-6.1-3.4-8.3C165.4,175.7,162.6,174.5,159.3,174.5z M164.9,186.3
		c0,1.6-0.5,2.9-1.6,4c-1.1,1.1-2.4,1.6-4,1.6c-1.6,0-2.9-0.5-4-1.6c-1.1-1.1-1.6-2.4-1.6-4c0-1.6,0.5-2.9,1.6-4
		c1.1-1.1,2.4-1.6,4-1.6c1.6,0,2.9,0.5,4,1.6C164.4,183.4,164.9,184.7,164.9,186.3z"/>
	<path d="M167.5,166.9c-2.5-1.1-5.3-1.6-8.2-1.6c-2.9,0-5.7,0.6-8.2,1.6c-2.5,1.1-4.7,2.6-6.6,4.5c-1.9,1.9-3.4,4.1-4.5,6.6
		c-1.1,2.5-1.7,5.3-1.7,8.2c0,2.9,0.6,5.7,1.6,8.2c1.1,2.5,2.6,4.7,4.5,6.6c1.9,1.9,4.1,3.4,6.6,4.5c2.5,1.1,5.3,1.6,8.2,1.6
		c2.9,0,5.7-0.6,8.2-1.6c2.5-1.1,4.7-2.6,6.6-4.5c1.9-1.9,3.4-4.1,4.5-6.6c1.1-2.5,1.6-5.3,1.6-8.2c0-2.9-0.6-5.7-1.6-8.2
		c-1.1-2.5-2.6-4.7-4.5-6.6C172.3,169.5,170,168,167.5,166.9z M174.2,186.3c0,2.1-0.4,4-1.1,5.8c-0.8,1.8-1.9,3.4-3.2,4.7
		c-1.4,1.4-2.9,2.4-4.7,3.2c-1.8,0.8-3.7,1.1-5.8,1.1s-4-0.4-5.8-1.1c-1.8-0.8-3.4-1.8-4.7-3.2c-1.4-1.4-2.4-2.9-3.2-4.7
		c-0.8-1.8-1.1-3.7-1.1-5.8c0-2.1,0.4-4,1.1-5.8c0.8-1.8,1.8-3.4,3.2-4.7c1.4-1.4,2.9-2.4,4.7-3.2c1.8-0.8,3.7-1.1,5.8-1.1
		s4,0.4,5.8,1.1c1.8,0.8,3.4,1.9,4.7,3.2c1.4,1.4,2.4,2.9,3.2,4.7C173.8,182.3,174.2,184.2,174.2,186.3z"/>
	<path d="M54.1,196.3v4.4c0,11.1,3.6,19.1,10.7,23.8c6.6,4.3,14.5,6.8,23.3,7.5c0.1,0,0.1,0,0.2,0c1.6,0,3-1.3,3.1-2.9
		c0.1-1.7-1.2-3.2-2.8-3.3c-7.8-0.6-14.6-2.7-20.4-6.5c-5.3-3.5-7.9-9.6-7.9-18.6v-1.3h25v2.5c0,8.6,0.7,11.3,1.2,12.6
		c0.8,1.8,2.8,4,7.5,4c2.9,0,5.2-0.8,6.9-2.4c1.6-1.6,2.4-3.9,2.4-6.7c0-5.6-0.6-9.5-1.7-12.1c-1.3-3-4.9-5.7-11.6-8.7
		c-9.4-4.3-15.8-7.4-19.1-9.4c-3-1.8-5.7-4.4-7.9-7.7c-2.1-3.2-3.2-6.8-3.2-10.8c0-5.8,2.2-10.1,6.6-13.4c4.8-3.5,12.2-5.7,22.2-6.5
		c1.6-0.1,2.8-1.5,2.8-3.1v-4.1h11.3c1.7,0,3.1-1.4,3.1-3.1c0-1.7-1.4-3.1-3.1-3.1H88.3c-1.7,0-3.1,1.4-3.1,3.1v4.4
		c-9.7,1.1-17.2,3.6-22.4,7.4c-6.1,4.4-9.2,10.6-9.2,18.4c0,5.3,1.4,10.1,4.3,14.2c2.7,4.1,6,7.3,9.8,9.5c3.3,1.9,9.3,4.9,17.8,8.9
		H57.2C55.5,193.2,54.1,194.6,54.1,196.3z M96.5,211.6c-0.4,0.4-1.3,0.6-2.5,0.6c-1.5,0-1.8-0.3-1.9-0.4c-0.1-0.3-0.7-2-0.7-10.1
		v-5.5c0-0.1,0-0.2,0-0.3c3.7,2.1,4.4,3.3,4.5,3.6c0.5,1.2,1.2,3.9,1.2,9.6C97.1,210.4,96.9,211.2,96.5,211.6z"/>
	<path d="M124.7,218.3c-4.8,4.2-12.4,6.8-22.4,7.8c-1.6,0.2-2.8,1.5-2.8,3.1v8.5c0,1.7,1.4,3.1,3.1,3.1s3.1-1.4,3.1-3.1v-5.8
		c9.9-1.3,17.7-4.3,23-8.9c6-5.2,9.1-12.3,9.1-21.3c0-5.6-1.1-10.3-3.4-14.2c-2.2-3.8-5-6.8-8.3-8.9c-3-1.9-8.5-4.6-16.6-8.2
		c-2.4-1.1-4.4-2-6.2-2.8h27.8c1.6,0,2.9-1.2,3.1-2.7c0.2-2,0.3-3.5,0.3-4.6c0-7.6-2.8-13.7-8.3-18.1c-5.2-4.1-13-6.7-23.2-7.7
		c-0.8-0.1-1.6,0.2-2.2,0.7c-0.6,0.5-1,1.3-1.1,2.1c-0.2,1.7,1.1,3.2,2.8,3.3c9,0.8,15.7,3,20,6.4c4,3.2,6,7.5,6,13.3
		c0,0.3,0,0.7,0,1.2h-25.3v-0.7c0-4.7-0.5-7.6-1.5-9.4c-1.3-2.2-3.8-3.4-7.3-3.4c-2.8,0-5,0.9-6.6,2.6c-1.5,1.6-2.2,3.9-2.2,6.8
		c0,4.6,1.4,7.9,4.2,9.9c2.1,1.6,7.7,4.3,17.4,8.6c7.7,3.4,13,6,15.8,7.7c2.5,1.6,4.6,3.9,6.3,6.8c1.7,2.9,2.5,6.6,2.5,11.1
		C131.7,208.8,129.4,214.3,124.7,218.3z M91.6,157.5c0-1.3,0.2-2.3,0.7-2.7c0.3-0.4,1-0.6,2-0.6c1.3,0,1.9,0.3,2,0.3
		c0,0,0.7,1.2,0.7,6.3v3.7c-2-1-3.1-1.7-3.6-2.1C92.2,161.7,91.6,160,91.6,157.5z M101.1,137.5L101.1,137.5L101.1,137.5L101.1,137.5
		z"/>
</g>
</svg>
