<?xml version="1.0" standalone="no"?>
<!DOCTYPE svg PUBLIC "-//W3C//DTD SVG 1.1//EN" "http://www.w3.org/Graphics/SVG/1.1/DTD/svg11.dtd" >
<svg xmlns="http://www.w3.org/2000/svg" xmlns:xlink="http://www.w3.org/1999/xlink" version="1.1">
<metadata></metadata>
<defs>
<font id="unimed_sansregular" horiz-adv-x="1294" >
<font-face units-per-em="2048" ascent="1536" descent="-512" />
<missing-glyph horiz-adv-x="473" />
<glyph unicode="&#xfb01;" horiz-adv-x="1236" d="M68 913v111h159v197q0 163 84 251.5t238 88.5q123 0 223 -35l-16 -127q-94 24 -152 24q-96 0 -142 -56t-46 -169v-174h655v-1024h-184v899h-471v-899h-189v899zM840 1405q0 57 36 92t95 35t95 -35t36 -92q0 -58 -36 -92.5t-95 -34.5t-95 34.5t-36 92.5z" />
<glyph unicode="&#xfb02;" horiz-adv-x="1353" d="M68 913v111h159v135q0 191 117 296.5t330 105.5q178 0 411 -50v-1257q0 -79 32.5 -111t101.5 -32q49 0 94 18l14 -113q-93 -41 -184 -41q-118 0 -180 62.5t-62 189.5v1170q-101 26 -217 26q-129 0 -198.5 -69t-69.5 -195v-135h246v-125h-246v-899h-189v899z" />
<glyph horiz-adv-x="0" />
<glyph horiz-adv-x="682" />
<glyph unicode=" "  horiz-adv-x="473" />
<glyph unicode="&#x09;" horiz-adv-x="473" />
<glyph unicode="&#xa0;" horiz-adv-x="473" />
<glyph unicode="!" horiz-adv-x="399" d="M76 100q0 54 35 88.5t90 34.5q54 0 88.5 -34.5t34.5 -88.5q0 -55 -34.5 -90t-88.5 -35q-55 0 -90 34.5t-35 90.5zM106 1126v308h187v-308l-27 -686h-135z" />
<glyph unicode="&#x22;" horiz-adv-x="901" d="M141 1409v125h185v-125l-17 -332h-149zM573 1409v125h187v-125l-19 -332h-149z" />
<glyph unicode="#" horiz-adv-x="1484" d="M39 416l41 131h266l107 368h-283l41 132h281l112 389h187l-115 -389h307l113 389h186l-113 -389h277l-37 -132h-279l-106 -368h297l-39 -131h-297l-121 -416h-184l119 416h-305l-121 -416h-185l119 416h-268zM532 547h306l106 368h-305z" />
<glyph unicode="$" horiz-adv-x="1116" d="M98 113l15 383h133l10 -295q119 -45 262 -45q141 0 222 62t81 181q0 39 -17.5 71t-38 52.5t-72 45t-81 35.5t-104.5 36q-15 5 -23 8q-47 16 -79 28t-74 32t-70.5 39t-58.5 47.5t-47.5 59.5t-29 73t-11.5 90q0 164 106 268t281 119l-6 203h143l-4 -205q197 -15 350 -86 l-12 -385h-137l-15 303q-121 43 -250 43q-123 0 -195.5 -62.5t-72.5 -166.5q0 -48 18.5 -86.5t43.5 -62t72.5 -46t82 -33.5t96.5 -28q57 -17 92.5 -29t83 -31t76.5 -38t60.5 -47t49 -60t29 -75t11.5 -95q0 -166 -101.5 -268t-283.5 -125l6 -222h-143l6 215q-105 3 -214.5 30 t-189.5 67z" />
<glyph unicode="%" horiz-adv-x="1617" d="M57 1141q0 148 85 232.5t227 84.5q141 0 225 -84.5t84 -232.5q0 -147 -84 -231.5t-225 -84.5q-142 0 -227 84.5t-85 231.5zM164 0v27l1114 1407h178v-25l-1106 -1409h-186zM209 1143q0 -107 42.5 -165t117.5 -58q73 0 115 58.5t42 164.5q0 105 -42 163t-115 58 q-75 0 -117.5 -58t-42.5 -163zM940 291q0 148 85 232.5t226 84.5q142 0 227 -84.5t85 -232.5q0 -147 -85 -231.5t-227 -84.5q-141 0 -226 85t-85 231zM1094 293q0 -105 41.5 -164t115.5 -59t116 59t42 164t-42 163t-116 58t-115.5 -58t-41.5 -163z" />
<glyph unicode="&#x26;" horiz-adv-x="1515" d="M102 381q-1 75 20.5 137.5t62.5 110.5t88 83.5t110 69.5q-41 134 -41 262q0 190 105 302t286 112q141 0 232.5 -82t91.5 -211q0 -35 -8 -67.5t-19 -59t-33 -53.5t-40.5 -46.5t-51 -42.5t-55 -37.5t-62.5 -35.5t-62.5 -32t-67 -32.5t-64.5 -31.5q58 -131 153 -248.5 t211 -204.5q134 165 134 437h151q0 -146 -41.5 -279t-120.5 -233q158 -85 316 -88l-17 -136q-215 0 -422 109q-154 -109 -364 -109q-139 0 -249 46.5t-176 139.5t-67 220zM285 389q0 -125 90.5 -201.5t226.5 -76.5q119 0 225 53q-124 91 -223.5 213.5t-165.5 261.5 q-153 -107 -153 -250zM518 1057q0 -89 29 -199l27 12q165 72 226 116q109 78 109 183q0 71 -48.5 115.5t-119.5 44.5q-105 0 -164 -71.5t-59 -200.5z" />
<glyph unicode="'" horiz-adv-x="466" d="M141 1409v125h185v-125l-17 -332h-149z" />
<glyph unicode="(" horiz-adv-x="604" d="M80 670q0 309 85.5 560t254.5 462l127 -54q-139 -205 -205 -440.5t-66 -527.5q0 -278 68 -531.5t203 -453.5l-127 -54q-166 205 -253 474t-87 565z" />
<glyph unicode=")" horiz-adv-x="604" d="M57 -315q135 200 203 453.5t68 531.5q0 291 -66.5 526.5t-204.5 441.5l127 54q169 -211 254.5 -462t85.5 -560q0 -295 -87.5 -564t-252.5 -475z" />
<glyph unicode="*" horiz-adv-x="1083" d="M94 1206l66 135l323 -200l-20 393h153l-22 -399l324 204l71 -135l-362 -155l260 -285l-121 -96l-225 311l-232 -322l-114 95l256 290z" />
<glyph unicode="+" horiz-adv-x="1236" d="M55 475v135h475v475h179v-475h473v-135h-473v-475h-179v475h-475z" />
<glyph unicode="," horiz-adv-x="358" d="M8 -332q47 71 71.5 139.5t24.5 153.5q0 90 -34 176l170 43q34 -78 34 -182q0 -193 -165 -385z" />
<glyph unicode="-" horiz-adv-x="917" d="M78 446v136h762v-136h-762z" />
<glyph unicode="." horiz-adv-x="407" d="M80 100q0 54 34.5 88.5t88.5 34.5q55 0 90 -34.5t35 -88.5q0 -56 -35 -90.5t-90 -34.5q-54 0 -88.5 35t-34.5 90z" />
<glyph unicode="/" horiz-adv-x="774" d="M49 -264l490 1749h186l-492 -1749h-184z" />
<glyph unicode="0" horiz-adv-x="1300" d="M104 709q0 364 142 556.5t409 192.5q264 0 403.5 -189.5t139.5 -547.5q0 -362 -142 -554t-411 -192q-263 0 -402 189t-139 545zM297 713q0 -284 92 -437t260 -153q170 0 262.5 154.5t92.5 441.5q0 285 -93 438.5t-262 153.5q-168 0 -260 -155t-92 -443z" />
<glyph unicode="1" horiz-adv-x="972" d="M63 0v143h345v1139h-345v123l398 29h137v-1291h317v-143h-852z" />
<glyph unicode="2" horiz-adv-x="1196" d="M68 0v141q104 77 178 134t162.5 129.5t149.5 130t122.5 125t98 126t60 121.5t23.5 121q0 136 -89 208.5t-261 72.5q-206 0 -410 -66l-26 137q244 78 485 78q245 0 374.5 -105t129.5 -300q0 -90 -39.5 -184.5t-105.5 -181.5t-168 -183t-210.5 -180.5t-248.5 -182.5h786 v-141h-1011z" />
<glyph unicode="3" horiz-adv-x="1114" d="M70 35l26 129q162 -49 330 -49q177 0 279 80t102 217q0 132 -90.5 203t-257.5 71h-109v135h117h22q137 0 218 67.5t81 182.5q0 114 -78 179t-229 65q-178 0 -358 -47l-25 137q194 53 416 53q221 0 339 -96.5t118 -267.5q0 -107 -59 -189.5t-167 -126.5 q128 -46 195.5 -140t67.5 -230q0 -196 -150.5 -314.5t-406.5 -118.5q-189 0 -381 60z" />
<glyph unicode="4" horiz-adv-x="1306" d="M74 395v133l735 906h186v-895h242v-144h-242v-395h-188v395h-733zM264 539h543v669z" />
<glyph unicode="5" horiz-adv-x="1236" d="M115 70l43 135q211 -82 407 -82q168 0 265.5 83t97.5 226q0 130 -89.5 208.5t-246.5 78.5q-158 0 -340 -55l-92 49l22 721h887v-142h-711l-12 -469q154 41 285 41q230 0 359.5 -117t129.5 -315q0 -211 -145.5 -334t-392.5 -123q-242 0 -467 95z" />
<glyph unicode="6" horiz-adv-x="1259" d="M111 688q0 360 169 566t468 206q165 0 354 -55l-39 -143q-158 47 -305 47q-207 0 -323 -144t-130 -415q179 104 395 104q222 0 343.5 -106t121.5 -297q0 -216 -137.5 -346t-365.5 -130q-259 0 -405 187t-146 526zM305 606q13 -230 108.5 -357.5t250.5 -127.5 q140 0 222.5 87t82.5 232q0 127 -79 198t-224 71q-193 0 -361 -103z" />
<glyph unicode="7" horiz-adv-x="1036" d="M47 1286v148h946v-150q-215 -274 -383 -624.5t-204 -659.5h-205q17 163 76 344t144.5 349t178.5 315t195 278h-748z" />
<glyph unicode="8" horiz-adv-x="1247" d="M100 401q0 127 53.5 226t135.5 168q-131 96 -131 282q0 172 128.5 276.5t340.5 104.5q210 0 337.5 -103t127.5 -272q0 -216 -172 -348q108 -46 167.5 -124.5t59.5 -213.5q0 -201 -134 -311.5t-376 -110.5q-256 0 -396.5 111t-140.5 315zM279 414q0 -142 91.5 -218.5 t258.5 -76.5q156 0 241.5 69.5t85.5 196.5q0 62 -25 109t-63.5 74.5t-97.5 51t-112.5 36.5t-125 33.5t-120.5 39.5q-133 -144 -133 -315zM348 1087q0 -32 7 -60t17 -49.5t29.5 -41.5t36 -33.5t45.5 -27.5t49.5 -22.5t57 -19.5t58 -17t62.5 -16.5t62 -15.5q146 131 146 293 q0 114 -77.5 183t-207.5 69t-207.5 -66.5t-77.5 -175.5z" />
<glyph unicode="9" horiz-adv-x="1263" d="M94 985q0 215 137.5 345t366.5 130q260 0 407.5 -186.5t147.5 -525.5q0 -361 -171 -567t-470 -206q-172 0 -354 56l37 143q158 -47 307 -47q207 0 325 145t131 416q-189 -108 -399 -108q-222 0 -343.5 107t-121.5 298zM291 995q0 -127 79 -197.5t224 -70.5q198 0 362 104 q-13 228 -109.5 356t-250.5 128q-141 0 -223 -88t-82 -232z" />
<glyph unicode=":" horiz-adv-x="407" d="M80 100q0 54 34.5 88.5t88.5 34.5q55 0 90 -34.5t35 -88.5q0 -56 -35 -90.5t-90 -34.5q-54 0 -88.5 35t-34.5 90zM80 834q0 54 34.5 89t88.5 35q55 0 90 -35t35 -89q0 -56 -35 -90.5t-90 -34.5q-54 0 -88.5 35t-34.5 90z" />
<glyph unicode=";" horiz-adv-x="399" d="M37 -332q46 70 70 138.5t24 154.5q0 88 -35 176l170 43q37 -78 37 -182q0 -192 -166 -385zM70 817q0 55 34.5 90t88.5 35q55 0 89.5 -34.5t34.5 -90.5q0 -54 -34.5 -89.5t-89.5 -35.5q-54 0 -88.5 35.5t-34.5 89.5z" />
<glyph unicode="&#x3c;" horiz-adv-x="1183" d="M84 434v172l1016 406v-154l-848 -338l848 -364v-156z" />
<glyph unicode="=" horiz-adv-x="1284" d="M96 186v138h1092v-138h-1092zM96 702v136h1092v-136h-1092z" />
<glyph unicode="&#x3e;" horiz-adv-x="1183" d="M84 0v156l848 364l-848 338v154l1016 -406v-172z" />
<glyph unicode="?" horiz-adv-x="1007" d="M78 1376q221 76 426 76q203 0 317.5 -97.5t114.5 -273.5q0 -65 -19.5 -119.5t-52 -91.5t-73.5 -70t-83.5 -57t-83.5 -52t-73.5 -55t-52 -66t-19.5 -85q0 -43 19 -92l-150 -26q-43 76 -43 151q0 60 24 109.5t62.5 84t85 65t93 60t85 60.5t62.5 74t24 94q0 118 -73 180 t-207 62q-155 0 -350 -60zM307 100q0 54 34.5 88.5t88.5 34.5q55 0 90 -34.5t35 -88.5q0 -56 -34.5 -90.5t-90.5 -34.5q-54 0 -88.5 35t-34.5 90z" />
<glyph unicode="@" horiz-adv-x="2226" d="M84 365q0 143 35.5 279t102.5 257.5t169.5 223t230.5 175.5t291.5 115t346.5 41q261 0 460.5 -94t309.5 -267.5t110 -400.5q0 -310 -165 -500t-423 -190q-216 0 -266 156q-126 -117 -282 -117q-154 0 -249.5 96.5t-95.5 278.5q0 105 29 196t78.5 155.5t115 110.5 t138.5 68.5t149 22.5q180 0 357 -78l-68 -502q-8 -90 -8 -110q0 -148 143 -148q154 0 254.5 152t100.5 397q0 292 -191.5 466.5t-519.5 174.5q-204 0 -382 -71.5t-304.5 -196t-199 -300.5t-72.5 -378q0 -301 179.5 -475t493.5 -174q138 0 297 30l-14 -120q-181 -50 -350 -50 q-177 0 -325.5 54t-253.5 153t-163.5 245.5t-58.5 324.5zM844 438q0 -120 59 -189t154 -69q119 0 215 84q1 14 3 41t3 41l59 479q-77 25 -155 25q-63 0 -122.5 -27t-108 -77t-78 -130.5t-29.5 -177.5z" />
<glyph unicode="A" d="M59 0v18l480 1416h239l457 -1416v-18h-203l-112 381h-553l-119 -381h-189zM414 530h463l-226 762z" />
<glyph unicode="B" horiz-adv-x="1290" d="M186 0v1434h521q182 0 281 -89t99 -253q0 -110 -52.5 -192.5t-145.5 -119.5q139 -31 217 -124.5t78 -233.5q0 -201 -126 -311.5t-353 -110.5h-519zM377 143h297q150 0 232.5 76.5t82.5 214.5q0 120 -80 193t-229 73h-303v-557zM377 844h299q104 0 166.5 62.5t62.5 168.5 q0 105 -57.5 160t-165.5 55h-305v-446z" />
<glyph unicode="C" horiz-adv-x="1271" d="M94 688q0 347 201 558.5t526 211.5q175 0 353 -45l-27 -145q-153 35 -309 35q-253 0 -402 -165.5t-149 -445.5q0 -268 143 -414.5t404 -146.5q183 0 333 41l29 -139q-185 -58 -395 -58q-331 0 -519 183.5t-188 529.5z" />
<glyph unicode="D" horiz-adv-x="1427" d="M186 0v1434h471q340 0 509 -177.5t169 -537.5q0 -719 -678 -719h-471zM377 143h262q502 0 502 576q0 288 -123 429.5t-375 141.5h-266v-1147z" />
<glyph unicode="E" horiz-adv-x="1155" d="M186 0v1434h893v-144h-702v-502h514v-147h-514v-498h702v-143h-893z" />
<glyph unicode="F" horiz-adv-x="1099" d="M186 0v1434h869v-144h-678v-542h553v-148h-553v-600h-191z" />
<glyph unicode="G" horiz-adv-x="1460" d="M94 688q0 348 203.5 559t538.5 211q127 0 232 -15.5t230 -51.5l-34 -146q-218 58 -404 58q-259 0 -416 -167.5t-157 -441.5q0 -258 141.5 -410.5t380.5 -152.5q178 0 330 57v361h-326v147h510v-612q-247 -109 -537 -109q-320 0 -506 191.5t-186 521.5z" />
<glyph unicode="H" horiz-adv-x="1482" d="M186 0v1434h191v-658h729v658h188v-1434h-188v629h-729v-629h-191z" />
<glyph unicode="I" horiz-adv-x="563" d="M186 0v1434h191v-1434h-191z" />
<glyph unicode="J" horiz-adv-x="757" d="M43 -6v137h162q95 0 145.5 51.5t50.5 153.5v1098h191v-1129q0 -158 -84 -244t-244 -86q-88 0 -221 19z" />
<glyph unicode="K" horiz-adv-x="1329" d="M186 0v1434h191v-678h131l565 678h221v-19l-614 -713l610 -684v-18h-225l-539 604h-149v-604h-191z" />
<glyph unicode="L" horiz-adv-x="1181" d="M186 0v1434h191v-1291h741v-143h-932z" />
<glyph unicode="M" horiz-adv-x="2052" d="M133 0v18l262 1416h281l350 -1289l358 1289h273l262 -1416v-18h-190l-218 1245v-6l-12 2l-346 -1241h-262l-342 1241h-10l-2 10l-211 -1251h-193z" />
<glyph unicode="N" horiz-adv-x="1460" d="M186 0v1434h187l714 -1137v1137h185v-1434h-185l-714 1130v-1130h-187z" />
<glyph unicode="O" horiz-adv-x="1531" d="M94 709q0 353 180 551t498 198q319 0 492.5 -192t173.5 -545q0 -347 -180.5 -546.5t-497.5 -199.5q-318 0 -492 193.5t-174 540.5zM287 713q0 -274 127 -428t350 -154q227 0 354 154.5t127 433.5q0 280 -127 432t-354 152q-225 0 -351 -153.5t-126 -436.5z" />
<glyph unicode="P" horiz-adv-x="1232" d="M186 0v1434h484q222 0 342.5 -109.5t120.5 -310.5q0 -205 -125 -319.5t-346 -114.5h-285v-580h-191zM377 725h274q130 0 207.5 76.5t77.5 210.5q0 133 -73.5 205.5t-207.5 72.5h-278v-565z" />
<glyph unicode="Q" horiz-adv-x="1531" d="M94 709q0 352 181 550.5t499 198.5q320 0 492 -192t172 -545q0 -321 -156.5 -517t-435.5 -224q65 -103 200 -146q125 -41 312 -41h26l-14 -166q-309 0 -480.5 92t-207.5 261q-282 23 -435 213.5t-153 515.5zM287 713q0 -274 127 -428t350 -154q227 0 354 154.5t127 433.5 q0 280 -125.5 432t-351.5 152q-225 0 -353 -154t-128 -436z" />
<glyph unicode="R" horiz-adv-x="1282" d="M186 0v1434h535q210 0 328 -115t118 -315q0 -147 -67 -253t-189 -153l281 -580v-18h-207l-250 563l-24 -2h-334v-561h-191zM377 709h313q124 0 202.5 80t78.5 210q0 139 -72 215t-203 76h-319v-581z" />
<glyph unicode="S" horiz-adv-x="1208" d="M119 59l41 142q85 -29 201 -49.5t208 -20.5q158 0 244 68t86 188q0 86 -66 139.5t-223 96.5q-60 17 -101 30t-95.5 34.5t-91.5 42.5t-76.5 52.5t-63 67t-38.5 82.5t-15 102q0 190 140 307t372 117q223 0 424 -67l-39 -146q-205 62 -377 62q-149 0 -237 -69.5t-88 -186.5 q0 -41 16.5 -74.5t41.5 -56.5t69 -44.5t82.5 -35t99.5 -31.5q262 -79 364.5 -169.5t102.5 -248.5q0 -194 -141 -305t-388 -111q-117 0 -239 24t-213 60z" />
<glyph unicode="T" horiz-adv-x="1257" d="M35 1282v152h1190v-152h-508v-1282h-189v1282h-493z" />
<glyph unicode="U" horiz-adv-x="1449" d="M164 500v934h190v-928q0 -189 98 -282t273 -93q186 0 278.5 91t92.5 284v928h190v-934q0 -269 -138 -398q-136 -127 -412 -127h-9q-274 2 -418.5 131.5t-144.5 393.5z" />
<glyph unicode="V" horiz-adv-x="1288" d="M53 1415v19h203l395 -1282l391 1282h193v-19l-471 -1415h-242z" />
<glyph unicode="W" horiz-adv-x="1996" d="M63 1413v21h205l293 -1274h12l322 1274h235l314 -1274h12l287 1274h199v-21l-361 -1413h-264l-303 1212h-13l-309 -1212h-266z" />
<glyph unicode="X" horiz-adv-x="1357" d="M59 0v18l514 697l-491 700v19h223l391 -586l385 586h213v-19l-506 -700l502 -697v-18h-227l-397 584l-392 -584h-215z" />
<glyph unicode="Y" horiz-adv-x="1265" d="M59 1415v19h207l381 -697l365 697h194v-19l-471 -831v-584h-190v584z" />
<glyph unicode="Z" horiz-adv-x="1337" d="M117 0v141l848 1145h-830v148h1071v-138l-856 -1149h871v-147h-1104z" />
<glyph unicode="[" horiz-adv-x="665" d="M156 -360v2050h475v-136h-289v-1779h289v-135h-475z" />
<glyph unicode="\" horiz-adv-x="774" d="M49 1485h184l492 -1749h-186z" />
<glyph unicode="]" horiz-adv-x="665" d="M35 -225h289v1779h-289v136h475v-2050h-475v135z" />
<glyph unicode="^" horiz-adv-x="1169" d="M78 416l407 1016h172l437 -1016h-154l-369 872l-338 -872h-155z" />
<glyph unicode="_" horiz-adv-x="1069" d="M78 -162h915v-137h-915v137z" />
<glyph unicode="`" horiz-adv-x="630" d="M80 1509l113 109l360 -352l-82 -76z" />
<glyph unicode="a" horiz-adv-x="1042" d="M96 270q0 154 106 238t298 84h221v94q0 110 -59 161.5t-187 51.5q-142 0 -338 -53l-24 131q240 72 407 72q385 0 385 -338v-711h-121l-28 72q-143 -97 -314 -97q-156 0 -251 81.5t-95 213.5zM279 285q0 -82 57 -132.5t153 -50.5q117 0 232 64v321h-197q-118 0 -181.5 -53 t-63.5 -149z" />
<glyph unicode="b" horiz-adv-x="1177" d="M162 0v1536h186v-547q130 60 273 60q222 0 344 -138.5t122 -388.5q0 -255 -130 -401t-357 -146q-172 0 -293 97l-31 -72h-114zM348 203q118 -84 232 -84q154 0 236.5 103t82.5 300q0 186 -82 287.5t-231 101.5q-122 0 -238 -63v-645z" />
<glyph unicode="c" horiz-adv-x="989" d="M90 496q0 249 147.5 401t389.5 152q146 0 288 -43l-30 -127q-106 34 -234 34q-167 0 -269.5 -112.5t-102.5 -296.5q0 -188 98 -288.5t278 -100.5q106 0 242 39l29 -119q-159 -60 -318 -60q-248 0 -383 136t-135 385z" />
<glyph unicode="d" horiz-adv-x="1183" d="M90 498q0 249 134.5 400t357.5 151q138 0 260 -58v545h184v-1536h-121l-26 78q-131 -103 -308 -103q-228 0 -354.5 137.5t-126.5 385.5zM279 502q0 -184 85.5 -287.5t237.5 -103.5q128 0 240 79v656q-118 67 -236 67q-148 0 -237.5 -112.5t-89.5 -298.5z" />
<glyph unicode="e" horiz-adv-x="1095" d="M90 506q0 243 135.5 393t356.5 150q200 0 312 -109.5t112 -308.5q0 -69 -19 -133h-713q5 -186 103 -286.5t276 -100.5q148 0 322 82l35 -109q-194 -109 -404 -109q-244 0 -380 140.5t-136 390.5zM283 616h548l3 31q0 135 -66.5 206t-189.5 71q-116 0 -194.5 -82.5 t-100.5 -225.5z" />
<glyph unicode="f" horiz-adv-x="694" d="M68 913v111h159v197q0 163 84 251.5t238 88.5q122 0 229 -35l-20 -127q-77 24 -152 24q-190 0 -190 -225v-174h246v-125h-246v-899h-189v899z" />
<glyph unicode="g" horiz-adv-x="1167" d="M76 -223q0 91 57 160t143 98q-55 55 -55 143q0 57 29 104t82 76q-104 43 -159.5 126t-55.5 198q0 170 121 271.5t327 101.5q149 0 254 -51l338 20v-131l-207 -12q45 -82 45 -191q0 -172 -119 -270t-329 -98q-60 0 -107 8q-67 -45 -67 -113q0 -90 129 -90h211 q173 0 272.5 -75.5t99.5 -207.5q0 -179 -142.5 -280t-391.5 -101q-226 0 -350.5 83.5t-124.5 230.5zM246 -205q0 -96 80 -151.5t225 -55.5q159 0 254.5 61t95.5 161q0 72 -57 110.5t-162 38.5h-172q-78 0 -137 21q-60 -28 -93.5 -76t-33.5 -109zM305 686q0 -117 64.5 -182.5 t177.5 -65.5q118 0 187 66t69 182q0 124 -61.5 188t-176.5 64q-121 0 -190.5 -66.5t-69.5 -185.5z" />
<glyph unicode="h" horiz-adv-x="1157" d="M162 0v1536h190v-571q154 84 316 84q175 0 264.5 -80.5t89.5 -237.5v-731h-188v709q0 200 -224 200q-127 0 -258 -71v-838h-190z" />
<glyph unicode="i" horiz-adv-x="532" d="M135 1370q0 57 36 92t95 35q58 0 93.5 -35t35.5 -92t-35.5 -92t-93.5 -35q-59 0 -95 35t-36 92zM174 0v1024h184v-1024h-184z" />
<glyph unicode="j" horiz-adv-x="559" d="M-111 -387h78q119 0 167 51t48 172v1188h185v-1188q0 -181 -90 -264.5t-281 -83.5h-107v125zM143 1370q0 57 36 92t95 35q58 0 93.5 -35t35.5 -92t-35.5 -92t-93.5 -35q-59 0 -95 35t-36 92z" />
<glyph unicode="k" horiz-adv-x="1054" d="M160 0v1536h188v-928h92l371 416h207v-18l-424 -455l418 -533v-18h-211l-361 475h-92v-475h-188z" />
<glyph unicode="l" horiz-adv-x="616" d="M162 227v1309h186v-1282q0 -78 34.5 -110.5t104.5 -32.5q43 0 88 18l15 -113q-93 -41 -184 -41q-118 0 -181 62.5t-63 189.5z" />
<glyph unicode="m" horiz-adv-x="1789" d="M154 0v1024h122l31 -82q163 107 332 107q210 0 297 -113q163 113 360 113q172 0 264.5 -83t92.5 -241v-725h-187v707q0 100 -58 151t-165 51q-133 0 -260 -71q12 -50 12 -111v-727h-184v709q0 101 -54.5 150.5t-168.5 49.5q-126 0 -248 -71v-838h-186z" />
<glyph unicode="n" horiz-adv-x="1148" d="M154 0v1024h122l29 -80q73 47 166.5 76t185.5 29q177 0 267 -80t90 -236v-733h-187v709q0 101 -54.5 150.5t-170.5 49.5q-127 0 -262 -71v-838h-186z" />
<glyph unicode="o" horiz-adv-x="1163" d="M90 502q0 261 131.5 404t372.5 143q229 0 355 -137t126 -396q0 -256 -131.5 -398.5t-365.5 -142.5q-233 0 -360.5 136.5t-127.5 390.5zM279 510q0 -192 78 -295.5t221 -103.5q148 0 227.5 103.5t79.5 295.5q0 196 -75.5 299.5t-215.5 103.5q-151 0 -233 -103.5 t-82 -299.5z" />
<glyph unicode="p" horiz-adv-x="1171" d="M154 -512v1536h122l31 -82q140 107 309 107q222 0 343.5 -134.5t121.5 -386.5q0 -255 -130 -404t-353 -149q-147 0 -258 62v-549h-186zM340 182q107 -71 238 -71q144 0 229.5 112t85.5 299t-80 289t-229 102q-68 0 -125 -21t-119 -65v-645z" />
<glyph unicode="q" horiz-adv-x="1165" d="M90 489q0 253 133.5 405.5t354.5 152.5q171 0 296 -91l33 70h111v-1538h-187v551q-118 -62 -270 -62q-224 0 -347.5 133t-123.5 379zM279 494q0 -184 81.5 -281.5t231.5 -97.5q135 0 239 69v641q-106 88 -233 88q-148 0 -233.5 -112t-85.5 -307z" />
<glyph unicode="r" horiz-adv-x="743" d="M154 0v1024h122l29 -78q137 103 309 103q59 0 105 -17l-21 -135q-47 8 -96 8q-143 0 -262 -71v-834h-186z" />
<glyph unicode="s" horiz-adv-x="978" d="M100 53l39 123q175 -67 332 -67q115 0 175.5 43.5t60.5 128.5q0 48 -33 79.5t-85 48.5t-115 31t-125.5 33t-114.5 47.5t-84.5 82t-32.5 128.5q0 140 109.5 229t283.5 89q170 0 346 -62l-45 -121q-160 54 -293 54q-97 0 -156 -47t-59 -123q0 -45 25 -76.5t66 -47.5 t93.5 -30t107.5 -24t107.5 -31t93.5 -48.5t66 -78t25 -119.5q0 -150 -108 -235t-300 -85q-196 0 -379 78z" />
<glyph unicode="t" horiz-adv-x="784" d="M37 913v111h174l41 307h143v-307h312v-125h-312v-604q0 -91 46.5 -137.5t136.5 -46.5q86 0 151 32l16 -114q-111 -54 -241 -54q-142 0 -217.5 75.5t-75.5 217.5l-2 631z" />
<glyph unicode="u" horiz-adv-x="1148" d="M137 301v723h185v-696q0 -103 59.5 -158t179.5 -55q119 0 246 69v840h188v-1024h-121l-32 82q-152 -107 -338 -107q-179 0 -273 85t-94 241z" />
<glyph unicode="v" horiz-adv-x="1015" d="M39 1006v18h194l279 -897l281 897h182v-18l-361 -1006h-225z" />
<glyph unicode="w" horiz-adv-x="1638" d="M43 1006v18h193l233 -895l260 895h199l248 -895l239 895h180v-18l-307 -1006h-231l-234 844l-239 -844h-242z" />
<glyph unicode="x" horiz-adv-x="1073" d="M37 0v18l395 486l-385 502v18h207l297 -410l297 410h190v-18l-409 -494l381 -494v-18h-205l-289 393l-289 -393h-190z" />
<glyph unicode="y" horiz-adv-x="1007" d="M37 1006v18h192l279 -895l278 895h187v-18l-363 -1006l-188 -512h-184v18l213 494h-64z" />
<glyph unicode="z" horiz-adv-x="1054" d="M94 0v121l623 764h-623v139h856v-117l-624 -768h632v-139h-864z" />
<glyph unicode="{" horiz-adv-x="702" d="M47 594v117q105 12 145.5 64t40.5 163v510q0 235 230 235q110 0 205 -28l-9 -109h-104q-71 0 -102.5 -38.5t-34.5 -121.5l-12 -479q-3 -124 -52.5 -185t-156.5 -75q108 -9 157 -62t52 -165l12 -479q3 -89 33.5 -124.5t103.5 -35.5h102l11 -105q-84 -32 -205 -32 q-119 0 -174.5 57t-55.5 178v510q0 102 -41 150t-145 55z" />
<glyph unicode="|" horiz-adv-x="487" d="M150 -305v1882h188v-1882h-188z" />
<glyph unicode="}" horiz-adv-x="702" d="M35 -324l12 105h100q74 0 104.5 35.5t33.5 124.5l12 479q3 112 52 165t157 62q-107 14 -156.5 75t-52.5 185l-12 479q-3 84 -34.5 122t-103.5 38h-104l-8 109q95 28 205 28q229 0 229 -235v-510q0 -111 40.5 -163t145.5 -64v-117q-104 -7 -145 -55t-41 -150v-510 q0 -122 -55.5 -178.5t-173.5 -56.5q-121 0 -205 32z" />
<glyph unicode="~" horiz-adv-x="1255" d="M96 412v84q0 116 67.5 180.5t178.5 64.5q65 0 140.5 -28.5t132.5 -62.5t127 -62.5t124 -28.5q73 0 111.5 40.5t44.5 133.5l137 -20v-76q0 -113 -64 -182.5t-184 -69.5q-57 0 -117 18.5t-111 45t-100 53t-101 45t-97 18.5q-71 0 -108.5 -41.5t-43.5 -128.5z" />
<glyph unicode="&#xa1;" horiz-adv-x="399" d="M76 924q0 56 35 90.5t90 34.5q54 0 88.5 -35t34.5 -90q0 -54 -34.5 -88.5t-88.5 -34.5q-55 0 -90 34.5t-35 88.5zM106 -102l25 686h135l27 -686v-308h-187v308z" />
<glyph unicode="&#xa2;" horiz-adv-x="983" d="M80 688q0 210 112 344t297 158l-8 229h158l-8 -227q156 -12 284 -78l-22 -285h-123l-2 207q-88 37 -193 37q-140 0 -223.5 -101.5t-83.5 -271.5q0 -179 86.5 -270.5t247.5 -91.5q143 0 287 59l29 -108q-143 -65 -287 -76l8 -211h-158l8 211q-195 17 -302 140.5 t-107 334.5z" />
<glyph unicode="&#xa3;" horiz-adv-x="1220" d="M94 0v135q77 0 141.5 16.5t119 53t85.5 102.5t31 156q0 70 -37 168h-295v114h244q-46 91 -71 171.5t-25 175.5q0 174 127.5 276t341.5 102q197 0 358 -53l-37 -125q-133 45 -297 45q-136 0 -216.5 -71.5t-80.5 -190.5q0 -62 15 -126t30 -101.5t45 -102.5h371v-114h-326 q27 -95 27 -160q0 -250 -199 -336h668v-135h-1020z" />
<glyph unicode="&#xa4;" horiz-adv-x="1284" d="M55 1188l97 94l172 -184q128 104 323 104q190 0 320 -100l168 180l94 -94l-180 -172q86 -125 86 -301q0 -202 -115 -336l192 -184l-92 -95l-190 203q-118 -76 -283 -76q-170 0 -289 78l-190 -205l-94 95l196 190q-112 131 -112 330q0 173 86 295zM319 715 q0 -158 88.5 -252t239.5 -94q149 0 237.5 94t88.5 252t-88.5 251t-237.5 93q-151 0 -239.5 -93t-88.5 -251z" />
<glyph unicode="&#xa5;" horiz-adv-x="1220" d="M37 1415v19h207l381 -697l364 697h195v-19l-404 -710h344v-97h-399l-12 -24v-121h411v-98h-411v-365h-191v365h-418v98h418v121l-14 24h-404v97h347z" />
<glyph unicode="&#xa6;" horiz-adv-x="483" d="M150 -305v737h184v-737h-184zM150 696v738h184v-738h-184z" />
<glyph unicode="&#xa7;" horiz-adv-x="1095" d="M90 641q0 113 63.5 201.5t182.5 142.5q-152 95 -152 254q0 151 113 236.5t297 85.5q202 0 371 -74l-47 -115q-158 62 -312 62q-103 0 -165 -49.5t-62 -135.5q0 -50 26 -89.5t69 -63.5t97.5 -47.5t111.5 -42.5t111.5 -47.5t97.5 -62.5t69 -89t26 -125q0 -118 -66 -203 t-173 -135q70 -35 117 -72t79.5 -97t32.5 -134q0 -156 -127 -262.5t-324 -106.5q-108 0 -210 22.5t-173 61.5l50 111q143 -64 319 -64q121 0 196.5 63t75.5 161q0 57 -38.5 102t-99.5 75t-135 58t-148 60t-135 72t-99.5 103t-38.5 144zM274 670q0 -29 10.5 -56t23.5 -46.5 t41.5 -40.5t48.5 -33.5t62 -31t63.5 -27t70.5 -27.5q209 109 209 266q0 34 -15 62.5t-33.5 47.5t-59 41t-66 32.5t-81 31.5t-79.5 31q-195 -91 -195 -250z" />
<glyph unicode="&#xa8;" horiz-adv-x="847" d="M76 1346q0 54 34.5 88t88.5 34t87 -34t33 -88t-33 -87.5t-87 -33.5t-88.5 33.5t-34.5 87.5zM528 1346q0 54 34.5 88t88.5 34t87.5 -34t33.5 -88t-33.5 -87.5t-87.5 -33.5t-88.5 33.5t-34.5 87.5z" />
<glyph unicode="&#xa9;" horiz-adv-x="1507" d="M78 676q0 194 87 347.5t242 239t349 85.5t348 -85.5t240 -239t86 -347.5t-86 -348.5t-240 -241t-348 -86.5t-349 86.5t-242 241t-87 348.5zM188 676q0 -251 160.5 -415.5t407.5 -164.5q245 0 403 164.5t158 415.5q0 250 -158 413.5t-403 163.5q-122 0 -227.5 -43.5 t-180.5 -120t-117.5 -183.5t-42.5 -230zM401 666q0 163 97.5 260.5t261.5 97.5q145 0 250 -57l-17 -215h-96v145q-73 27 -135 27q-100 0 -158.5 -67t-58.5 -183t65 -181t178 -65q107 0 207 43l23 -90q-121 -62 -260 -62q-160 0 -258.5 94.5t-98.5 252.5z" />
<glyph unicode="&#xaa;" horiz-adv-x="655" d="M49 993q0 94 65 142.5t191 48.5h109v53q0 64 -33.5 94.5t-104.5 30.5t-198 -31l-17 80q136 47 250 47q108 0 167 -53t59 -152v-436h-86l-17 51q-70 -53 -178 -53q-94 0 -150.5 48.5t-56.5 129.5zM174 1004q0 -46 32.5 -74.5t86.5 -28.5q68 0 121 35v176h-88 q-152 0 -152 -108z" />
<glyph unicode="&#xab;" horiz-adv-x="1128" d="M70 510l350 475l115 -72l-261 -403l261 -391l-115 -80zM567 510l351 475l114 -72l-260 -403l260 -391l-114 -80z" />
<glyph unicode="&#xac;" horiz-adv-x="1402" d="M51 584v151h1211v-571h-148v420h-1063z" />
<glyph unicode="&#xad;" horiz-adv-x="917" d="M78 446v136h762v-136h-762z" />
<glyph unicode="&#xae;" horiz-adv-x="899" d="M63 1073q0 175 105.5 280t282.5 105q173 0 278 -105t105 -280t-105 -280t-278 -105q-176 0 -282 105.5t-106 279.5zM143 1073q0 -144 83 -230.5t225 -86.5q139 0 221 87t82 230q0 145 -82 231.5t-221 86.5q-142 0 -225 -86.5t-83 -231.5zM305 862v441h164q71 0 111.5 -41 t40.5 -101q0 -82 -72 -114l74 -185h-86l-62 170h-6h-84v-170h-80zM385 1090h80q34 0 55 19t21 52q0 38 -21 60t-55 22h-80v-153z" />
<glyph unicode="&#xb0;" horiz-adv-x="798" d="M90 1153q0 141 83 223t226 82t226.5 -82t83.5 -223q0 -139 -83.5 -221t-226.5 -82q-142 0 -225.5 81.5t-83.5 221.5zM233 1155q0 -88 45.5 -140t120.5 -52t119.5 52t44.5 140q0 86 -44.5 137t-119.5 51t-120.5 -51t-45.5 -137z" />
<glyph unicode="&#xb1;" horiz-adv-x="1228" d="M51 0v135h1127v-135h-1127zM51 729v135h471v385h187v-385h469v-135h-469v-389h-187v389h-471z" />
<glyph unicode="&#xb2;" horiz-adv-x="745" d="M51 1839q158 49 316 49q155 0 234 -63t79 -183q0 -128 -111.5 -251.5t-347.5 -286.5h469v-90h-633v98q106 76 181.5 136t147.5 129t109 132.5t37 120.5q0 154 -198 154q-133 0 -264 -43z" />
<glyph unicode="&#xb3;" horiz-adv-x="735" d="M49 1034l23 94q118 -32 233 -32q95 0 158 45.5t63 122.5q0 74 -50.5 113.5t-145.5 39.5h-88v94h86h2q87 0 133.5 38t46.5 110q0 62 -47.5 95.5t-136.5 33.5q-16 0 -31.5 -0.5t-31 -2t-26.5 -2.5t-28 -4t-24.5 -4t-26 -5t-23.5 -5t-26 -6t-25 -6l-14 94q143 41 280 41 q140 0 217.5 -57.5t77.5 -161.5q0 -127 -115 -188q146 -59 146 -221q0 -122 -95.5 -191.5t-252.5 -69.5q-147 0 -279 35z" />
<glyph unicode="&#xb4;" horiz-adv-x="647" d="M78 1266l362 352l115 -109l-393 -319z" />
<glyph unicode="&#xb6;" horiz-adv-x="1267" d="M78 995q0 210 116.5 324.5t329.5 114.5h680v-144h-153v-1597h-140v1597h-247v-1597h-140v864q-214 0 -330 114.5t-116 323.5z" />
<glyph unicode="&#xb7;" horiz-adv-x="407" d="M80 539q0 54 34.5 88.5t88.5 34.5q55 0 90 -34.5t35 -88.5q0 -55 -35 -90t-90 -35q-54 0 -88.5 35t-34.5 90z" />
<glyph unicode="&#xb8;" horiz-adv-x="708" d="M70 -444l39 86q87 -56 184 -56q76 0 120 35.5t44 91.5q0 57 -46 87.5t-139 39.5l23 168h115l-13 -112q103 -9 165.5 -60t62.5 -131q0 -97 -81.5 -161t-209.5 -64q-80 0 -149.5 22t-114.5 54z" />
<glyph unicode="&#xb9;" horiz-adv-x="618" d="M37 1774v79l252 21h104v-768h189v-92h-537v92h209v668h-217z" />
<glyph unicode="&#xba;" horiz-adv-x="681" d="M43 1130q0 158 79.5 243t225.5 85q139 0 215 -82.5t76 -236.5t-79 -239t-222 -85q-140 0 -217.5 82.5t-77.5 232.5zM172 1137q0 -234 166 -234q172 0 172 234q0 233 -162 233q-176 0 -176 -233z" />
<glyph unicode="&#xbb;" horiz-adv-x="1128" d="M96 119l260 391l-260 403l115 72l350 -475l-350 -471zM594 119l260 391l-260 403l115 72l350 -475l-350 -471z" />
<glyph unicode="&#xbc;" horiz-adv-x="2064" d="M37 1333v80l252 21h104v-768h189v-93h-537v93h209v667h-217zM311 -113l1131 1598h139l-1130 -1598h-140zM1311 252v90l436 518h135v-514h146v-94h-146v-252h-139v252h-432zM1436 346h307v352z" />
<glyph unicode="&#xbd;" horiz-adv-x="2019" d="M37 1333v80l252 21h104v-768h189v-93h-537v93h209v667h-217zM311 -113l1131 1598h139l-1130 -1598h-140zM1325 825q155 49 315 49q156 0 235 -63t79 -182q0 -87 -56.5 -176.5t-151.5 -172t-251 -190.5h469v-90h-633v98q106 76 181.5 136t147.5 129t109 132.5t37 120.5 q0 76 -51.5 115t-148.5 39q-132 0 -263 -43z" />
<glyph unicode="&#xbe;" horiz-adv-x="2183" d="M49 594l23 94q122 -33 233 -33q95 0 158 45.5t63 122.5q0 74 -50.5 114t-145.5 40h-88v94h86h2q87 0 133.5 38t46.5 110q0 62 -47.5 95.5t-136.5 33.5q-16 0 -31.5 -0.5t-31 -2t-26.5 -2.5t-28 -4t-24.5 -4t-26 -5t-23.5 -5t-26 -6t-25 -6l-14 94q143 41 280 41 q140 0 217.5 -57.5t77.5 -161.5q0 -128 -115 -189q146 -59 146 -221q0 -122 -95.5 -191t-252.5 -69q-147 0 -279 35zM428 -113l1131 1598h139l-1131 -1598h-139zM1427 250v92l437 518h137v-516h145v-94h-145v-250h-141v250h-433zM1552 344h308v354z" />
<glyph unicode="&#xbf;" horiz-adv-x="1007" d="M74 -55q0 74 25 134.5t65 100t88.5 72.5t97 62t88.5 59.5t65 73t25 94.5q0 45 -18 92l149 26q43 -74 43 -151q0 -60 -24 -109.5t-62.5 -84t-85 -65t-93 -60t-85 -60.5t-62.5 -74t-24 -94q0 -118 73 -180t208 -62q158 0 350 60l33 -129q-221 -76 -426 -76 q-203 0 -316.5 97.5t-113.5 273.5zM453 926q0 56 34.5 90.5t90.5 34.5q54 0 89 -35t35 -90q0 -54 -35 -88.5t-89 -34.5q-55 0 -90 34.5t-35 88.5z" />
<glyph unicode="&#xc0;" d="M59 0v18l480 1416h239l457 -1416v-18h-203l-112 381h-553l-119 -381h-189zM322 1919l114 109l359 -353l-82 -76zM414 530h463l-226 762z" />
<glyph unicode="&#xc1;" d="M59 0v18l480 1416h239l457 -1416v-18h-203l-112 381h-553l-119 -381h-189zM414 530h463l-226 762zM551 1675l362 353l115 -109l-393 -320z" />
<glyph unicode="&#xc2;" d="M59 0v18l480 1416h239l457 -1416v-18h-203l-112 381h-553l-119 -381h-189zM338 1597v17l233 248h152l238 -248v-17h-156l-154 152h-8l-154 -152h-151zM414 530h463l-226 762z" />
<glyph unicode="&#xc3;" d="M59 0v18l480 1416h239l457 -1416v-18h-203l-112 381h-553l-119 -381h-189zM295 1675v66q0 78 43 120t125 42q58 0 167.5 -47.5t160.5 -47.5t76 23.5t28 77.5l104 -15v-61q0 -78 -47 -122t-131 -44q-57 0 -119.5 24t-117 48t-90.5 24q-46 0 -69 -24t-26 -76zM414 530h463 l-226 762z" />
<glyph unicode="&#xc4;" d="M59 0v18l480 1416h239l457 -1416v-18h-203l-112 381h-553l-119 -381h-189zM299 1755q0 54 34.5 88.5t88.5 34.5t87.5 -34.5t33.5 -88.5t-33.5 -87.5t-87.5 -33.5t-88.5 33.5t-34.5 87.5zM414 530h463l-226 762zM752 1755q0 54 34 88.5t88 34.5t87.5 -34.5t33.5 -88.5 t-33.5 -87.5t-87.5 -33.5t-88 33.5t-34 87.5z" />
<glyph unicode="&#xc5;" d="M59 0v18l480 1416h239l457 -1416v-18h-203l-112 381h-553l-119 -381h-189zM412 1772q0 95 61.5 147.5t173.5 52.5q110 0 171 -52.5t61 -147.5t-61 -148t-171 -53q-112 0 -173.5 53t-61.5 148zM414 530h463l-226 762zM530 1774q0 -60 31.5 -94.5t85.5 -34.5q53 0 83 34.5 t30 94.5q0 58 -30 91t-83 33q-54 0 -85.5 -33t-31.5 -91z" />
<glyph unicode="&#xc6;" horiz-adv-x="2068" d="M166 0l723 1434h1053v-131h-680v-523h456v-135h-456v-514h680v-131h-873v471h-489l-238 -471h-176zM647 606h422l-2 697h-70z" />
<glyph unicode="&#xc7;" horiz-adv-x="1271" d="M94 688q0 347 201 558.5t526 211.5q175 0 353 -45l-27 -145q-153 35 -309 35q-253 0 -402 -165.5t-149 -445.5q0 -268 143 -414.5t404 -146.5q183 0 333 41l29 -139q-171 -55 -365 -58l-8 -77q103 -9 164.5 -60t61.5 -133q0 -96 -80.5 -159.5t-208.5 -63.5q-82 0 -152 22 t-112 54l39 86q77 -56 184 -56q75 0 119.5 35.5t44.5 91.5q0 57 -46 86.5t-141 38.5l19 140q-293 24 -457 204.5t-164 503.5z" />
<glyph unicode="&#xc8;" horiz-adv-x="1155" d="M186 0v1434h893v-144h-702v-502h514v-147h-514v-498h702v-143h-893zM307 1919l115 109l358 -353l-82 -76z" />
<glyph unicode="&#xc9;" horiz-adv-x="1155" d="M186 0v1434h893v-144h-702v-502h514v-147h-514v-498h702v-143h-893zM537 1675l360 353l117 -109l-396 -320z" />
<glyph unicode="&#xca;" horiz-adv-x="1155" d="M186 0v1434h893v-144h-702v-502h514v-147h-514v-498h702v-143h-893zM322 1597v17l235 248h152l235 -248v-17h-153l-154 152h-8l-154 -152h-153z" />
<glyph unicode="&#xcb;" horiz-adv-x="1155" d="M186 0v1434h893v-144h-702v-502h514v-147h-514v-498h702v-143h-893zM285 1755q0 54 34.5 88.5t88.5 34.5t87 -34.5t33 -88.5t-33 -87.5t-87 -33.5t-88.5 33.5t-34.5 87.5zM737 1755q0 54 34.5 88.5t88.5 34.5t87.5 -34.5t33.5 -88.5t-33.5 -87.5t-87.5 -33.5t-88.5 33.5 t-34.5 87.5z" />
<glyph unicode="&#xcc;" horiz-adv-x="563" d="M-39 1919l113 109l360 -353l-82 -76zM186 0v1434h191v-1434h-191z" />
<glyph unicode="&#xcd;" horiz-adv-x="563" d="M186 0v1434h191v-1434h-191zM190 1675l361 353l115 -109l-394 -320z" />
<glyph unicode="&#xce;" horiz-adv-x="563" d="M-25 1597v17l236 248h149l238 -248v-17h-156l-151 152h-8l-154 -152h-154zM186 0v1434h191v-1434h-191z" />
<glyph unicode="&#xcf;" horiz-adv-x="563" d="M-61 1755q0 54 33 88.5t87 34.5t88.5 -34.5t34.5 -88.5t-34.5 -87.5t-88.5 -33.5t-87 33.5t-33 87.5zM186 0v1434h191v-1434h-191zM391 1755q0 54 33.5 88.5t87.5 34.5t88.5 -34.5t34.5 -88.5t-34.5 -87.5t-88.5 -33.5t-87.5 33.5t-33.5 87.5z" />
<glyph unicode="&#xd0;" horiz-adv-x="1435" d="M16 639v135h170v660h471q340 0 509 -177.5t169 -537.5q0 -719 -678 -719h-471v639h-170zM377 143h262q502 0 502 576q0 288 -123 429.5t-375 141.5h-266v-516h299v-135h-299v-496z" />
<glyph unicode="&#xd1;" horiz-adv-x="1460" d="M186 0v1434h187l714 -1137v1137h185v-1434h-185l-714 1130v-1130h-187zM377 1675v66q0 79 42.5 120.5t125.5 41.5q57 0 166 -47.5t159 -47.5q53 0 78.5 23.5t28.5 77.5l104 -15v-61q0 -78 -47 -122t-131 -44q-57 0 -120 24t-117.5 48t-90.5 24q-47 0 -69 -23.5t-27 -76.5 z" />
<glyph unicode="&#xd2;" horiz-adv-x="1531" d="M94 709q0 353 180 551t498 198q319 0 492.5 -192t173.5 -545q0 -347 -180.5 -546.5t-497.5 -199.5q-318 0 -492 193.5t-174 540.5zM287 713q0 -274 127 -428t350 -154q227 0 354 154.5t127 433.5q0 280 -127 432t-354 152q-225 0 -351 -153.5t-126 -436.5zM444 1919 l113 109l358 -353l-79 -76z" />
<glyph unicode="&#xd3;" horiz-adv-x="1531" d="M94 709q0 353 180 551t498 198q319 0 492.5 -192t173.5 -545q0 -347 -180.5 -546.5t-497.5 -199.5q-318 0 -492 193.5t-174 540.5zM287 713q0 -274 127 -428t350 -154q227 0 354 154.5t127 433.5q0 280 -127 432t-354 152q-225 0 -351 -153.5t-126 -436.5zM672 1675 l362 353l115 -109l-393 -320z" />
<glyph unicode="&#xd4;" horiz-adv-x="1531" d="M94 709q0 353 180 551t498 198q319 0 492.5 -192t173.5 -545q0 -347 -180.5 -546.5t-497.5 -199.5q-318 0 -492 193.5t-174 540.5zM287 713q0 -274 127 -428t350 -154q227 0 354 154.5t127 433.5q0 280 -127 432t-354 152q-225 0 -351 -153.5t-126 -436.5zM459 1597v17 l233 248h152l237 -248v-17h-155l-154 152h-8l-154 -152h-151z" />
<glyph unicode="&#xd5;" horiz-adv-x="1531" d="M94 709q0 353 180 551t498 198q319 0 492.5 -192t173.5 -545q0 -347 -180.5 -546.5t-497.5 -199.5q-318 0 -492 193.5t-174 540.5zM287 713q0 -274 127 -428t350 -154q227 0 354 154.5t127 433.5q0 280 -127 432t-354 152q-225 0 -351 -153.5t-126 -436.5zM416 1675v66 q0 78 43 120t125 42q58 0 167.5 -47.5t159.5 -47.5q53 0 78 23.5t29 77.5l102 -15v-61q0 -79 -46 -122.5t-132 -43.5q-57 0 -119.5 24t-116.5 48t-90 24q-47 0 -69 -23.5t-27 -76.5z" />
<glyph unicode="&#xd6;" horiz-adv-x="1531" d="M94 709q0 353 180 551t498 198q319 0 492.5 -192t173.5 -545q0 -347 -180.5 -546.5t-497.5 -199.5q-318 0 -492 193.5t-174 540.5zM287 713q0 -274 127 -428t350 -154q227 0 354 154.5t127 433.5q0 280 -127 432t-354 152q-225 0 -351 -153.5t-126 -436.5zM422 1755 q0 54 33.5 88.5t87.5 34.5t88.5 -34.5t34.5 -88.5t-34.5 -87.5t-88.5 -33.5t-87.5 33.5t-33.5 87.5zM874 1755q0 54 33.5 88.5t87.5 34.5t88.5 -34.5t34.5 -88.5t-34.5 -87.5t-88.5 -33.5t-87.5 33.5t-33.5 87.5z" />
<glyph unicode="&#xd7;" horiz-adv-x="1185" d="M84 905l115 115l395 -395l389 389l117 -113l-391 -391l393 -395l-113 -115l-395 395l-391 -391l-115 115l391 391z" />
<glyph unicode="&#xd8;" horiz-adv-x="1499" d="M94 709q0 353 179.5 551t496.5 198q195 0 344 -76l123 201h98l-151 -244q254 -185 254 -618q0 -347 -180.5 -546.5t-497.5 -199.5q-213 0 -367 91l-137 -224h-96l166 271q-232 188 -232 596zM287 713q0 -288 137 -441l598 963q-109 68 -258 68q-225 0 -351 -153.5 t-126 -436.5zM485 215q116 -84 279 -84q227 0 354 154.5t127 433.5q0 313 -158 465z" />
<glyph unicode="&#xd9;" horiz-adv-x="1449" d="M164 500v934h190v-928q0 -189 98 -282t273 -93q186 0 278.5 91t92.5 284v928h190v-934q0 -269 -138.5 -398t-420.5 -127q-274 2 -418.5 131.5t-144.5 393.5zM410 1919l114 109l359 -353l-82 -76z" />
<glyph unicode="&#xda;" horiz-adv-x="1449" d="M164 500v934h190v-928q0 -189 98 -282t273 -93q186 0 278.5 91t92.5 284v928h190v-934q0 -269 -138.5 -398t-420.5 -127q-274 2 -418.5 131.5t-144.5 393.5zM639 1675l360 353l117 -109l-395 -320z" />
<glyph unicode="&#xdb;" horiz-adv-x="1449" d="M164 500v934h190v-928q0 -189 98 -282t273 -93q186 0 278.5 91t92.5 284v928h190v-934q0 -269 -138.5 -398t-420.5 -127q-274 2 -418.5 131.5t-144.5 393.5zM424 1597v17l235 248h152l236 -248v-17h-154l-154 152h-8l-153 -152h-154z" />
<glyph unicode="&#xdc;" horiz-adv-x="1449" d="M164 500v934h190v-928q0 -189 98 -282t273 -93q186 0 278.5 91t92.5 284v928h190v-934q0 -269 -138.5 -398t-420.5 -127q-274 2 -418.5 131.5t-144.5 393.5zM387 1755q0 54 34.5 88.5t88.5 34.5t87.5 -34.5t33.5 -88.5t-33.5 -87.5t-87.5 -33.5t-88.5 33.5t-34.5 87.5z M840 1755q0 54 34.5 88.5t88.5 34.5t87 -34.5t33 -88.5t-33 -87.5t-87 -33.5t-88.5 33.5t-34.5 87.5z" />
<glyph unicode="&#xdd;" horiz-adv-x="1265" d="M59 1415v19h207l381 -697l365 697h194v-19l-471 -831v-584h-190v584zM557 1675l363 353l114 -109l-393 -320z" />
<glyph unicode="&#xde;" horiz-adv-x="1255" d="M242 0v1434h194v-191h264q227 0 345 -107.5t118 -310.5t-123.5 -315.5t-347.5 -112.5h-256v-397h-194zM436 532h244q133 0 210 77t77 214q0 139 -73 214t-208 75h-250v-580z" />
<glyph unicode="&#xdf;" horiz-adv-x="1388" d="M78 913v111h158v135q0 195 111 298.5t290 103.5q186 0 294.5 -84.5t108.5 -225.5q0 -44 -12 -81t-31 -63t-42 -49.5t-45.5 -44t-41.5 -41.5t-31 -48t-12 -58q0 -42 27 -74.5t70 -54.5t95.5 -43t105 -49.5t95.5 -65t70 -97.5t27 -140q0 -159 -112.5 -262t-297.5 -103 q-177 0 -321 74l32 111q112 -53 267 -53q110 0 173.5 61.5t63.5 157.5q0 50 -20.5 90t-54.5 65t-77 48.5t-88.5 40.5t-88.5 40t-77 48.5t-54.5 65.5t-20.5 91q0 58 22.5 106t54.5 81t63.5 65t54 74t22.5 92q0 88 -57 141.5t-158 53.5q-97 0 -157 -67.5t-60 -188.5v-1174 h-188v899z" />
<glyph unicode="&#xe0;" horiz-adv-x="1042" d="M96 270q0 154 106 238t298 84h221v94q0 110 -59 161.5t-187 51.5q-142 0 -338 -53l-24 131q240 72 407 72q385 0 385 -338v-711h-121l-28 72q-143 -97 -314 -97q-156 0 -251 81.5t-95 213.5zM199 1509l112 109l359 -352l-80 -76zM279 285q0 -82 57 -132.5t153 -50.5 q117 0 232 64v321h-197q-118 0 -181.5 -53t-63.5 -149z" />
<glyph unicode="&#xe1;" horiz-adv-x="1042" d="M96 270q0 154 106 238t298 84h221v94q0 110 -59 161.5t-187 51.5q-142 0 -338 -53l-24 131q240 72 407 72q385 0 385 -338v-711h-121l-28 72q-143 -97 -314 -97q-156 0 -251 81.5t-95 213.5zM279 285q0 -82 57 -132.5t153 -50.5q117 0 232 64v321h-197q-118 0 -181.5 -53 t-63.5 -149zM428 1266l360 352l115 -109l-393 -319z" />
<glyph unicode="&#xe2;" horiz-adv-x="1042" d="M96 270q0 154 106 238t298 84h221v94q0 110 -59 161.5t-187 51.5q-142 0 -338 -53l-24 131q240 72 407 72q385 0 385 -338v-711h-121l-28 72q-143 -97 -314 -97q-156 0 -251 81.5t-95 213.5zM213 1188v16l236 248h149l238 -248v-16h-156l-152 151h-10l-153 -151h-152z M279 285q0 -82 57 -132.5t153 -50.5q117 0 232 64v321h-197q-118 0 -181.5 -53t-63.5 -149z" />
<glyph unicode="&#xe3;" horiz-adv-x="1042" d="M96 270q0 154 106 238t298 84h221v94q0 110 -59 161.5t-187 51.5q-142 0 -338 -53l-24 131q240 72 407 72q385 0 385 -338v-711h-121l-28 72q-143 -97 -314 -97q-156 0 -251 81.5t-95 213.5zM170 1266v65q0 78 43 120t125 42q58 0 168 -47t160 -47q53 0 77.5 23t28.5 77 l102 -14v-62q0 -78 -46 -122t-130 -44q-45 0 -95 15t-85.5 33.5t-76 33.5t-70.5 15q-47 0 -69.5 -24t-27.5 -77zM279 285q0 -82 57 -132.5t153 -50.5q117 0 232 64v321h-197q-118 0 -181.5 -53t-63.5 -149z" />
<glyph unicode="&#xe4;" horiz-adv-x="1042" d="M96 270q0 154 106 238t298 84h221v94q0 110 -59 161.5t-187 51.5q-142 0 -338 -53l-24 131q240 72 407 72q385 0 385 -338v-711h-121l-28 72q-143 -97 -314 -97q-156 0 -251 81.5t-95 213.5zM176 1346q0 54 33.5 88t87.5 34t88.5 -34t34.5 -88t-34.5 -87.5t-88.5 -33.5 t-87.5 33.5t-33.5 87.5zM279 285q0 -82 57 -132.5t153 -50.5q117 0 232 64v321h-197q-118 0 -181.5 -53t-63.5 -149zM629 1346q0 54 33.5 88t87.5 34t88 -34t34 -88t-34 -87.5t-88 -33.5t-87.5 33.5t-33.5 87.5z" />
<glyph unicode="&#xe5;" horiz-adv-x="1042" d="M96 270q0 154 106 238t298 84h221v94q0 110 -59 161.5t-187 51.5q-142 0 -338 -53l-24 131q240 72 407 72q385 0 385 -338v-711h-121l-28 72q-143 -97 -314 -97q-156 0 -251 81.5t-95 213.5zM279 285q0 -82 57 -132.5t153 -50.5q117 0 232 64v321h-197q-118 0 -181.5 -53 t-63.5 -149zM287 1362q0 95 61.5 148t173.5 53q110 0 172 -53t62 -148t-62 -148t-172 -53q-112 0 -173.5 53t-61.5 148zM406 1364q0 -60 31 -94.5t85 -34.5t84.5 34.5t30.5 94.5q0 59 -30.5 92t-84.5 33t-85 -33.5t-31 -91.5z" />
<glyph unicode="&#xe6;" horiz-adv-x="1671" d="M76 274q0 155 110 238.5t312 83.5h186v92q0 110 -55.5 159.5t-175.5 49.5q-145 0 -334 -51l-25 127q222 76 395 76q118 0 200 -43t124 -121q140 159 365 159q200 0 310.5 -109t110.5 -308q0 -81 -16 -144h-709q8 -179 105 -276.5t270 -97.5q161 0 320 81l37 -112 q-194 -109 -406 -109q-262 0 -397 160q-171 -154 -387 -154q-154 0 -247 82t-93 217zM264 289q0 -80 57 -129t150 -49q151 0 274 104q-55 110 -61 268h-156q-126 0 -195 -51t-69 -143zM879 596h548v47q0 129 -66.5 199.5t-189.5 70.5q-119 0 -196 -84t-96 -233z" />
<glyph unicode="&#xe7;" horiz-adv-x="989" d="M90 494q0 250 147.5 402.5t389.5 152.5q146 0 288 -43l-30 -127q-106 34 -234 34q-167 0 -269.5 -113t-102.5 -296q0 -189 98 -290t278 -101q111 0 242 41l29 -119q-150 -55 -285 -60l-10 -77q104 -9 165.5 -59.5t61.5 -131.5q0 -97 -81 -161t-208 -64q-81 0 -151 22 t-115 54l39 86q87 -56 186 -56q75 0 119.5 36t44.5 91q0 57 -45.5 86.5t-140.5 38.5l18 140q-208 23 -321 156t-113 358z" />
<glyph unicode="&#xe8;" horiz-adv-x="1095" d="M90 506q0 243 135.5 393t356.5 150q200 0 312 -109.5t112 -308.5q0 -69 -19 -133h-713q5 -186 103 -286.5t276 -100.5q148 0 322 82l35 -109q-194 -109 -404 -109q-244 0 -380 140.5t-136 390.5zM244 1509l114 111l359 -354l-82 -74zM283 616h548l3 31q0 135 -66.5 206 t-189.5 71q-116 0 -194.5 -82.5t-100.5 -225.5z" />
<glyph unicode="&#xe9;" horiz-adv-x="1095" d="M90 506q0 243 135.5 393t356.5 150q200 0 312 -109.5t112 -308.5q0 -69 -19 -133h-713q5 -186 103 -286.5t276 -100.5q148 0 322 82l35 -109q-194 -109 -404 -109q-244 0 -380 140.5t-136 390.5zM283 616h548l3 31q0 135 -66.5 206t-189.5 71q-116 0 -194.5 -82.5 t-100.5 -225.5zM473 1266l363 354l114 -109l-393 -319z" />
<glyph unicode="&#xea;" horiz-adv-x="1095" d="M90 506q0 243 135.5 393t356.5 150q200 0 312 -109.5t112 -308.5q0 -69 -19 -133h-713q5 -186 103 -286.5t276 -100.5q148 0 322 82l35 -109q-194 -109 -404 -109q-244 0 -380 140.5t-136 390.5zM260 1188v18l234 246h151l238 -246v-18h-156l-154 151h-8l-153 -151h-152z M283 616h548l3 31q0 135 -66.5 206t-189.5 71q-116 0 -194.5 -82.5t-100.5 -225.5z" />
<glyph unicode="&#xeb;" horiz-adv-x="1095" d="M90 506q0 243 135.5 393t356.5 150q200 0 312 -109.5t112 -308.5q0 -69 -19 -133h-713q5 -186 103 -286.5t276 -100.5q148 0 322 82l35 -109q-194 -109 -404 -109q-244 0 -380 140.5t-136 390.5zM221 1348q0 54 34.5 87t88.5 33t88.5 -33t34.5 -87t-34.5 -88.5 t-88.5 -34.5t-88.5 34.5t-34.5 88.5zM283 616h548l3 31q0 135 -66.5 206t-189.5 71q-116 0 -194.5 -82.5t-100.5 -225.5zM674 1348q0 54 34.5 87t88.5 33t88.5 -33t34.5 -87t-34.5 -88.5t-88.5 -34.5t-88.5 34.5t-34.5 88.5z" />
<glyph unicode="&#xec;" horiz-adv-x="514" d="M-80 1509l113 109l360 -352l-82 -76zM164 0v1024h186v-1024h-186z" />
<glyph unicode="&#xed;" horiz-adv-x="514" d="M133 1257l234 355l135 -84l-271 -334zM164 0v1024h186v-1024h-186z" />
<glyph unicode="&#xee;" horiz-adv-x="514" d="M-66 1188v16l236 248h149l238 -248v-16h-156l-151 151h-8l-154 -151h-154zM164 0v1024h186v-1024h-186z" />
<glyph unicode="&#xef;" horiz-adv-x="514" d="M-102 1346q0 54 33 88t87 34t88.5 -34t34.5 -88t-34.5 -87.5t-88.5 -33.5t-87 33.5t-33 87.5zM164 0v1024h186v-1024h-186zM350 1346q0 54 33.5 88t87.5 34t88.5 -34t34.5 -88t-34.5 -87.5t-88.5 -33.5t-87.5 33.5t-33.5 87.5z" />
<glyph unicode="&#xf0;" horiz-adv-x="1208" d="M80 463q0 149 66 262t177.5 172t249.5 59q214 0 365 -79q-24 271 -152 413l-192 -180l-70 70l187 174q-91 63 -226 63q-103 0 -181.5 -16.5t-168.5 -57.5l-33 123q185 95 400 95q190 0 334 -93l170 160l67 -67l-162 -152q111 -108 164 -274t53 -357q0 -365 -158 -584 t-427 -219q-210 0 -336.5 134.5t-126.5 353.5zM270 473q0 -151 75 -247.5t208 -96.5q174 0 277 158.5t110 445.5q-135 88 -324 88q-150 0 -248 -96t-98 -252z" />
<glyph unicode="&#xf1;" horiz-adv-x="1148" d="M154 0v1024h122l29 -80q73 47 166.5 76t185.5 29q177 0 267 -80t90 -236v-733h-187v709q0 101 -54.5 150.5t-170.5 49.5q-127 0 -262 -71v-838h-186zM221 1266v65q0 78 42.5 120t123.5 42q58 0 168 -47t160 -47q53 0 78 23t28 77l105 -14v-62q0 -78 -47 -122t-131 -44 q-58 0 -120.5 24t-117 48.5t-90.5 24.5q-47 0 -69 -24t-27 -77z" />
<glyph unicode="&#xf2;" horiz-adv-x="1163" d="M90 502q0 261 131.5 404t372.5 143q229 0 355 -137t126 -396q0 -256 -131.5 -398.5t-365.5 -142.5q-233 0 -360.5 136.5t-127.5 390.5zM260 1509l113 109l358 -352l-80 -76zM279 510q0 -192 78 -295.5t221 -103.5q148 0 227.5 103.5t79.5 295.5q0 196 -75.5 299.5 t-215.5 103.5q-151 0 -233 -103.5t-82 -299.5z" />
<glyph unicode="&#xf3;" horiz-adv-x="1163" d="M90 502q0 261 131.5 404t372.5 143q229 0 355 -137t126 -396q0 -256 -131.5 -398.5t-365.5 -142.5q-233 0 -360.5 136.5t-127.5 390.5zM279 510q0 -192 78 -295.5t221 -103.5q148 0 227.5 103.5t79.5 295.5q0 196 -75.5 299.5t-215.5 103.5q-151 0 -233 -103.5 t-82 -299.5zM487 1266l363 352l115 -109l-394 -319z" />
<glyph unicode="&#xf4;" horiz-adv-x="1163" d="M90 502q0 261 131.5 404t372.5 143q229 0 355 -137t126 -396q0 -256 -131.5 -398.5t-365.5 -142.5q-233 0 -360.5 136.5t-127.5 390.5zM274 1188v16l234 248h151l238 -248v-16h-156l-153 151h-8l-154 -151h-152zM279 510q0 -192 78 -295.5t221 -103.5q148 0 227.5 103.5 t79.5 295.5q0 196 -75.5 299.5t-215.5 103.5q-151 0 -233 -103.5t-82 -299.5z" />
<glyph unicode="&#xf5;" horiz-adv-x="1163" d="M90 502q0 261 131.5 404t372.5 143q229 0 355 -137t126 -396q0 -256 -131.5 -398.5t-365.5 -142.5q-233 0 -360.5 136.5t-127.5 390.5zM231 1266v65q0 78 43 120t125 42q58 0 168 -47t160 -47q53 0 78 23t29 77l102 -14v-62q0 -79 -46 -122.5t-132 -43.5q-45 0 -94.5 15 t-85 33.5t-76 33.5t-70.5 15q-47 0 -69 -24t-27 -77zM279 510q0 -192 78 -295.5t221 -103.5q148 0 227.5 103.5t79.5 295.5q0 196 -75.5 299.5t-215.5 103.5q-151 0 -233 -103.5t-82 -299.5z" />
<glyph unicode="&#xf6;" horiz-adv-x="1163" d="M90 502q0 261 131.5 404t372.5 143q229 0 355 -137t126 -396q0 -256 -131.5 -398.5t-365.5 -142.5q-233 0 -360.5 136.5t-127.5 390.5zM238 1346q0 54 33 88t87 34t88.5 -34t34.5 -88t-34.5 -87.5t-88.5 -33.5t-87 33.5t-33 87.5zM279 510q0 -192 78 -295.5t221 -103.5 q148 0 227.5 103.5t79.5 295.5q0 196 -75.5 299.5t-215.5 103.5q-151 0 -233 -103.5t-82 -299.5zM690 1346q0 54 33.5 88t87.5 34t88.5 -34t34.5 -88t-34.5 -87.5t-88.5 -33.5t-87.5 33.5t-33.5 87.5z" />
<glyph unicode="&#xf7;" horiz-adv-x="1323" d="M96 479v135h1131v-135h-1131zM539 154q0 56 34.5 90.5t90.5 34.5q54 0 88 -35t34 -90q0 -54 -34 -88.5t-88 -34.5q-55 0 -90 34.5t-35 88.5zM539 985q0 55 34.5 90t90.5 35q54 0 88 -35t34 -90q0 -54 -34 -88.5t-88 -34.5q-55 0 -90 34.5t-35 88.5z" />
<glyph unicode="&#xf8;" horiz-adv-x="1110" d="M90 -195l166 271q-166 134 -166 426q0 261 131.5 404t372.5 143q131 0 233 -48l117 189h86l-139 -227q184 -133 184 -447q0 -256 -131.5 -398.5t-365.5 -142.5q-150 0 -261 60l-141 -230h-86zM279 510q0 -181 69 -285l397 645q-61 43 -153 43q-151 0 -232 -103.5 t-81 -299.5zM399 170q71 -59 179 -59q148 0 227.5 103t79.5 296q0 205 -84 309z" />
<glyph unicode="&#xf9;" horiz-adv-x="1148" d="M137 301v723h185v-696q0 -103 59.5 -158t179.5 -55q119 0 246 69v840h188v-1024h-121l-32 82q-152 -107 -338 -107q-179 0 -273 85t-94 241zM258 1509l115 109l358 -352l-82 -76z" />
<glyph unicode="&#xfa;" horiz-adv-x="1148" d="M137 301v723h185v-696q0 -103 59.5 -158t179.5 -55q119 0 246 69v840h188v-1024h-121l-32 82q-152 -107 -338 -107q-179 0 -273 85t-94 241zM487 1266l363 352l115 -109l-394 -319z" />
<glyph unicode="&#xfb;" horiz-adv-x="1148" d="M137 301v723h185v-696q0 -103 59.5 -158t179.5 -55q119 0 246 69v840h188v-1024h-121l-32 82q-152 -107 -338 -107q-179 0 -273 85t-94 241zM274 1188v16l234 248h151l238 -248v-16h-156l-153 151h-8l-154 -151h-152z" />
<glyph unicode="&#xfc;" horiz-adv-x="1148" d="M137 301v723h185v-696q0 -103 59.5 -158t179.5 -55q119 0 246 69v840h188v-1024h-121l-32 82q-152 -107 -338 -107q-179 0 -273 85t-94 241zM236 1346q0 54 34 88t88 34t87.5 -34t33.5 -88t-33.5 -87.5t-87.5 -33.5t-88 33.5t-34 87.5zM688 1346q0 54 34.5 88t88.5 34 t87.5 -34t33.5 -88t-33.5 -87.5t-87.5 -33.5t-88.5 33.5t-34.5 87.5z" />
<glyph unicode="&#xfd;" horiz-adv-x="1007" d="M37 1006v18h192l279 -895l278 895h187v-18l-363 -1006l-188 -512h-184v18l213 494h-64zM420 1266l360 352l117 -109l-395 -319z" />
<glyph unicode="&#xfe;" horiz-adv-x="1193" d="M205 -512v2048h166l20 -567q116 80 271 80q226 0 349.5 -135.5t123.5 -385.5q0 -262 -127.5 -407.5t-356.5 -145.5q-153 0 -260 60v-547h-186zM391 182q99 -71 240 -71q150 0 231.5 108t81.5 303q0 186 -82 288.5t-233 102.5q-133 0 -238 -84v-647z" />
<glyph unicode="&#xff;" horiz-adv-x="1007" d="M37 1006v18h192l279 -895l278 895h187v-18l-363 -1006l-188 -512h-184v18l213 494h-64zM168 1346q0 54 34.5 88t88.5 34q53 0 87 -34t34 -88t-34 -87.5t-87 -33.5q-54 0 -88.5 33.5t-34.5 87.5zM621 1346q0 54 34 88t88 34q53 0 87 -34t34 -88t-34 -87.5t-87 -33.5 q-54 0 -88 33.5t-34 87.5z" />
<glyph unicode="&#x152;" horiz-adv-x="2054" d="M80 709q0 358 177 553.5t497 195.5q64 0 187 -12t187 -12h814v-131h-695v-523h510v-135h-510v-514h695v-131h-861q-41 0 -160.5 -12.5t-177.5 -12.5q-324 0 -493.5 184t-169.5 550zM281 713q0 -293 125.5 -445.5t355.5 -152.5q49 0 153 7.5t138 8.5v1172q-46 2 -148.5 10 t-148.5 8q-224 0 -349.5 -159.5t-125.5 -448.5z" />
<glyph unicode="&#x153;" horiz-adv-x="1841" d="M59 504q0 258 132.5 400.5t371.5 142.5q133 0 232.5 -53.5t158.5 -155.5q65 100 166.5 154.5t227.5 54.5q200 0 312 -109.5t112 -306.5q0 -68 -17 -135h-711q5 -182 103.5 -283.5t271.5 -101.5q161 0 322 82l37 -113q-200 -109 -406 -109q-144 0 -252 55t-172 156 q-128 -207 -399 -207q-234 0 -362 137.5t-128 391.5zM250 510q0 -198 76.5 -298.5t222.5 -100.5q149 0 228 100.5t79 298.5q0 199 -75.5 299t-217.5 100q-153 0 -233 -99.5t-80 -299.5zM1053 616h546v31q0 129 -66.5 200t-189.5 71q-116 0 -192 -80t-98 -222z" />
<glyph unicode="&#x178;" horiz-adv-x="1265" d="M59 1415v19h207l381 -697l365 697h194v-19l-471 -831v-584h-190v584zM307 1755q0 54 33.5 88.5t87.5 34.5t88.5 -34.5t34.5 -88.5t-34.5 -87.5t-88.5 -33.5t-87.5 33.5t-33.5 87.5zM760 1755q0 54 33.5 88.5t87.5 34.5t88.5 -34.5t34.5 -88.5t-34.5 -87.5t-88.5 -33.5 t-87.5 33.5t-33.5 87.5z" />
<glyph unicode="&#x2c6;" horiz-adv-x="770" d="M76 1188v16l233 248h152l237 -248v-16h-155l-154 151h-8l-154 -151h-151z" />
<glyph unicode="&#x2dc;" horiz-adv-x="858" d="M78 1272v65q0 80 42 121t124 41q58 0 167.5 -47t159.5 -47q53 0 78.5 23.5t28.5 76.5l104 -14v-61q0 -78 -47 -122t-131 -44q-57 0 -120 24t-117.5 48t-90.5 24q-47 0 -69 -23.5t-27 -76.5z" />
<glyph unicode="&#x2000;" horiz-adv-x="1014" />
<glyph unicode="&#x2001;" horiz-adv-x="2028" />
<glyph unicode="&#x2002;" horiz-adv-x="1014" />
<glyph unicode="&#x2003;" horiz-adv-x="2028" />
<glyph unicode="&#x2004;" horiz-adv-x="676" />
<glyph unicode="&#x2005;" horiz-adv-x="507" />
<glyph unicode="&#x2006;" horiz-adv-x="338" />
<glyph unicode="&#x2007;" horiz-adv-x="338" />
<glyph unicode="&#x2008;" horiz-adv-x="253" />
<glyph unicode="&#x2009;" horiz-adv-x="405" />
<glyph unicode="&#x200a;" horiz-adv-x="112" />
<glyph unicode="&#x2010;" horiz-adv-x="917" d="M78 446v136h762v-136h-762z" />
<glyph unicode="&#x2011;" horiz-adv-x="917" d="M78 446v136h762v-136h-762z" />
<glyph unicode="&#x2012;" horiz-adv-x="917" d="M78 446v136h762v-136h-762z" />
<glyph unicode="&#x2013;" horiz-adv-x="1069" d="M78 446v136h915v-136h-915z" />
<glyph unicode="&#x2014;" horiz-adv-x="1527" d="M78 446v136h1372v-136h-1372z" />
<glyph unicode="&#x2018;" horiz-adv-x="428" d="M84 1188q0 192 166 385l100 -55q-47 -71 -71.5 -139.5t-24.5 -153.5q0 -88 35 -176l-170 -43q-35 77 -35 182z" />
<glyph unicode="&#x2019;" horiz-adv-x="428" d="M78 1065q46 70 70 138t24 153q0 86 -35 178l170 43q37 -78 37 -182q0 -192 -166 -385z" />
<glyph unicode="&#x201a;" horiz-adv-x="358" d="M8 -332q47 71 71.5 139.5t24.5 153.5q0 90 -34 176l170 43q34 -78 34 -182q0 -193 -165 -385z" />
<glyph unicode="&#x201c;" horiz-adv-x="837" d="M84 1188q0 192 166 385l100 -55q-47 -71 -71.5 -139.5t-24.5 -153.5q0 -88 35 -176l-170 -43q-35 77 -35 182zM496 1188q0 192 166 385l100 -55q-47 -71 -71.5 -139.5t-24.5 -153.5q0 -90 34 -176l-170 -43q-34 75 -34 182z" />
<glyph unicode="&#x201d;" horiz-adv-x="827" d="M78 1065q46 70 70 138t24 153q0 86 -35 178l170 43q37 -78 37 -182q0 -192 -166 -385zM477 1065q96 141 96 291q0 88 -34 178l170 43q36 -82 36 -182q0 -187 -165 -385z" />
<glyph unicode="&#x201e;" horiz-adv-x="761" d="M8 -332q47 71 71.5 139.5t24.5 153.5q0 90 -34 176l170 43q34 -78 34 -182q0 -193 -165 -385zM412 -332q96 141 96 293q0 88 -35 176l170 43q37 -84 37 -182q0 -186 -166 -385z" />
<glyph unicode="&#x2022;" horiz-adv-x="638" d="M80 512q0 108 66 174t173 66q109 0 174.5 -65.5t65.5 -174.5q0 -108 -66 -174t-174 -66q-107 0 -173 66.5t-66 173.5z" />
<glyph unicode="&#x2026;" horiz-adv-x="1306" d="M80 100q0 54 34.5 88.5t88.5 34.5q55 0 90 -34.5t35 -88.5q0 -56 -35 -90.5t-90 -34.5q-54 0 -88.5 35t-34.5 90zM537 100q0 54 35 88.5t90 34.5q54 0 88 -34.5t34 -88.5q0 -55 -34 -90t-88 -35q-56 0 -90.5 34.5t-34.5 90.5zM979 100q0 54 34.5 88.5t88.5 34.5 q55 0 90 -34.5t35 -88.5q0 -56 -34.5 -90.5t-90.5 -34.5q-54 0 -88.5 35t-34.5 90z" />
<glyph unicode="&#x202f;" horiz-adv-x="405" />
<glyph unicode="&#x2039;" horiz-adv-x="630" d="M70 510l350 475l115 -72l-261 -403l261 -391l-115 -80z" />
<glyph unicode="&#x203a;" horiz-adv-x="630" d="M96 119l260 391l-260 403l115 72l350 -475l-350 -471z" />
<glyph unicode="&#x205f;" horiz-adv-x="507" />
<glyph unicode="&#x20ac;" horiz-adv-x="1333" d="M27 502l18 112h143q-2 23 -2 68q0 51 7 119h-142l19 112h137q52 262 214 403.5t400 141.5q222 0 436 -82l-43 -137q-101 38 -179 54t-183 16q-167 0 -283.5 -102.5t-160.5 -293.5h540l-18 -112h-541q-6 -56 -6 -119q0 -12 1 -34t1 -32h539l-19 -112l-504 -2 q38 -187 157.5 -287t303.5 -100q103 0 178 10.5t181 36.5l16 -131q-124 -31 -213 -43.5t-201 -12.5q-252 0 -415 137.5t-207 389.5h-174z" />
<glyph unicode="&#x2122;" horiz-adv-x="1794" d="M84 1333v101h666v-101h-273v-624h-135v624h-258zM778 711l127 723h174l168 -590l176 590h164l131 -723h-129l-100 571l-180 -571h-125l-176 589l-105 -589h-125z" />
<glyph unicode="&#x25fc;" horiz-adv-x="1024" d="M0 0v1024h1024v-1024h-1024z" />
</font>
</defs>
</svg>
