<?xml version="1.0" encoding="utf-8"?>
<!-- Generator: Adobe Illustrator 23.0.2, SVG Export Plug-In . SVG Version: 6.00 Build 0)  -->
<svg version="1.1" id="Camada_1" xmlns="http://www.w3.org/2000/svg" xmlns:xlink="http://www.w3.org/1999/xlink" x="0px" y="0px"
	 viewBox="0 0 200 200" style="enable-background:new 0 0 200 200;" xml:space="preserve">
<style type="text/css">
	.st0{fill:none;stroke:#FFFFFF;stroke-width:3;stroke-miterlimit:10;}
</style>
<path class="st0" d="M137.9,291.7H-92.9c-34,0-61.6-27.6-61.6-61.6v0c0-34,27.6-61.6,61.6-61.6h230.9c34,0,61.6,27.6,61.6,61.6v0
	C199.5,264.1,171.9,291.7,137.9,291.7z"/>
<path class="st0" d="M-61.1,328.4V142.6c0-34,27.6-61.6,61.6-61.6h0c34,0,61.6,27.6,61.6,61.6v185.9c0,34-27.6,61.6-61.6,61.6h0
	C-33.5,390-61.1,362.4-61.1,328.4z"/>
</svg>
