<?xml version="1.0" encoding="utf-8"?>
<!-- Generator: Adobe Illustrator 23.0.2, SVG Export Plug-In . SVG Version: 6.00 Build 0)  -->
<svg version="1.1" id="Camada_1" xmlns="http://www.w3.org/2000/svg" xmlns:xlink="http://www.w3.org/1999/xlink" x="0px" y="0px"
	 viewBox="0 0 200 402" style="enable-background:new 0 0 200 402;" xml:space="preserve">
<style type="text/css">
	.st0{fill:none;stroke:#FFFFFF;stroke-width:3;stroke-miterlimit:10;}
</style>
<path class="st0" d="M-91.6,152.1V-33.8c0-34,27.6-61.6,61.6-61.6l0,0c34,0,61.6,27.6,61.6,61.6v185.9c0,34-27.6,61.6-61.6,61.6l0,0
	C-64,213.6-91.6,186.1-91.6,152.1z"/>
<path class="st0" d="M-61.1,357.4V171.6c0-34,27.6-61.6,61.6-61.6l0,0c34,0,61.6,27.6,61.6,61.6v185.9c0,34-27.6,61.6-61.6,61.6l0,0
	C-33.5,419-61.1,391.4-61.1,357.4z"/>
</svg>
