<?xml version="1.0" encoding="utf-8"?>
<!-- Generator: Adobe Illustrator 23.0.2, SVG Export Plug-In . SVG Version: 6.00 Build 0)  -->
<svg version="1.1" id="Camada_1" xmlns="http://www.w3.org/2000/svg" xmlns:xlink="http://www.w3.org/1999/xlink" x="0px" y="0px"
	 viewBox="0 0 200 200" style="enable-background:new 0 0 200 200;" xml:space="preserve">
<style type="text/css">
	.st0{fill:none;stroke:#FFFFFF;stroke-width:3;stroke-miterlimit:10;}
</style>
<path class="st0" d="M-91.6,93.1V-92.8c0-34,27.6-61.6,61.6-61.6h0c34,0,61.6,27.6,61.6,61.6V93.1c0,34-27.6,61.6-61.6,61.6h0
	C-64,154.6-91.6,127.1-91.6,93.1z"/>
<path class="st0" d="M-61.1,298.4V112.6c0-34,27.6-61.6,61.6-61.6h0c34,0,61.6,27.6,61.6,61.6v185.9c0,34-27.6,61.6-61.6,61.6h0
	C-33.5,360-61.1,332.4-61.1,298.4z"/>
</svg>
