<?xml version="1.0" encoding="utf-8"?>
<!-- Generator: Adobe Illustrator 23.0.2, SVG Export Plug-In . SVG Version: 6.00 Build 0)  -->
<svg version="1.1" id="Camada_1" xmlns="http://www.w3.org/2000/svg" xmlns:xlink="http://www.w3.org/1999/xlink" x="0px" y="0px"
	 viewBox="0 0 200 200" style="enable-background:new 0 0 200 200;" xml:space="preserve">
<style type="text/css">
	.st0{fill:none;stroke:#FFFFFF;stroke-width:3;stroke-miterlimit:10;}
</style>
<path class="st0" d="M72.9,62L-113,61.4c-34-0.1-61.5-27.7-61.4-61.7v0c0.1-34,27.7-61.5,61.7-61.4l185.9,0.5
	c34,0.1,61.5,27.7,61.4,61.7v0C134.5,34.6,106.9,62.1,72.9,62z"/>
<path class="st0" d="M-61.4,98.3l0.5-185.9c0.1-34,27.7-61.5,61.7-61.4h0c34,0.1,61.5,27.7,61.4,61.7L61.8,98.6
	C61.7,132.6,34,160.1,0,160h0C-34,159.9-61.5,132.3-61.4,98.3z"/>
</svg>
